<svg width="41" height="47" viewBox="0 0 41 47" fill="none" xmlns="http://www.w3.org/2000/svg">
<path d="M40.7303 14.97C40.3045 10.3514 38.4403 5.98291 35.4003 2.47995C35.3075 2.33959 35.1708 2.23398 35.0115 2.17969C34.8523 2.1254 34.6795 2.12549 34.5203 2.17995C34.3265 2.27593 34.1506 2.40447 34.0003 2.55996C33.4103 3.11996 32.8303 3.69995 32.2403 4.28995L31.1203 5.47995L30.6803 5.05996C29.0708 3.46032 27.1606 2.19498 25.0599 1.33684C22.9592 0.478709 20.7095 0.0447506 18.4403 0.0599565H18.3303C13.8862 0.0912656 9.62111 1.81513 6.40332 4.88057C3.18553 7.94602 1.25697 12.1226 1.01032 16.56C0.885381 19.0416 1.2928 21.5212 2.2052 23.8324C3.11761 26.1436 4.51386 28.2329 6.30029 29.9599L6.79035 30.4599L6.08032 31L5.8703 31.17L5.4903 31.55C4.9103 32.13 4.31032 32.72 3.73032 33.32C3.63747 33.4054 3.56299 33.5089 3.51141 33.6241C3.45984 33.7393 3.43226 33.8638 3.43033 33.9899C3.44181 34.0993 3.47516 34.2053 3.52841 34.3015C3.58167 34.3977 3.65375 34.4822 3.74033 34.55C5.34884 35.9019 7.13141 37.0319 9.04035 37.9099C12.1796 39.3241 15.5987 40.0079 19.0403 39.9099H19.3703H19.9203L20.0403 40.48V45.1299H9.75031C9.53031 45.1299 8.8403 45.19 8.8103 45.87C8.8103 46.13 8.81034 46.43 9.41034 46.7H32.3503H32.4203C32.6012 46.6349 32.7521 46.5061 32.8449 46.3377C32.9376 46.1693 32.9657 45.9729 32.924 45.7853C32.8823 45.5976 32.7736 45.4316 32.6183 45.3183C32.463 45.2051 32.2717 45.1523 32.0803 45.17H21.6703V40.9C21.6703 39.9 21.8803 39.6399 22.8303 39.4399C26.8158 38.669 30.5034 36.7905 33.4703 34.0199C36.1103 31.6525 38.1465 28.6885 39.4093 25.3749C40.6721 22.0613 41.125 18.494 40.7303 14.97ZM25.0103 3.05996L25.0703 3.00995H25.1403C26.0059 3.42519 26.8325 3.91716 27.6103 4.47995L27.7203 4.55996L27.5903 4.71996C27.2403 5.11996 26.9003 5.48996 26.5903 5.83996C26.3818 6.06856 26.1288 6.25211 25.8467 6.37937C25.5647 6.50662 25.2597 6.57489 24.9503 6.57996C24.5197 6.57669 24.1006 6.44049 23.7503 6.18996C23.5642 6.08623 23.4215 5.91918 23.3481 5.71917C23.2747 5.51915 23.2755 5.29943 23.3503 5.09995C23.6948 4.27378 24.2714 3.5652 25.0103 3.05996ZM3.2803 12.8499C4.03058 10.3918 5.36196 8.15056 7.16181 6.31591C8.96165 4.48125 11.177 3.10718 13.6203 2.30996H13.7403V2.41996C13.9403 2.97996 14.1503 3.50996 14.3603 4.04996C14.5003 4.39996 14.6303 4.73996 14.7603 5.04996C15.2503 6.32996 14.7603 7.44995 13.3703 8.45995C12.7031 8.91475 11.9072 9.14267 11.1003 9.10996H10.7903C9.69615 9.04775 8.60136 9.22168 7.58032 9.61995C7.32341 9.7153 7.09591 9.87624 6.92047 10.0868C6.74504 10.2973 6.62778 10.5501 6.58032 10.82C6.58152 11.07 6.65111 11.3149 6.78156 11.5282C6.912 11.7415 7.0983 11.915 7.32031 12.03C8.10751 12.4968 8.93004 12.9014 9.78034 13.2399C10.0603 13.3499 10.3503 13.4699 10.6303 13.5999C10.9103 13.7299 11.1203 13.79 11.3703 13.87C11.8102 13.9953 12.2308 14.1803 12.6203 14.42C13.1741 14.8428 13.6482 15.3609 14.0203 15.95C14.4443 16.5945 15.0285 17.1178 15.7158 17.4684C16.403 17.8191 17.1696 17.985 17.9403 17.95C18.4445 17.9138 18.9418 17.8129 19.4203 17.65C19.492 17.6154 19.5707 17.5974 19.6503 17.5974C19.73 17.5974 19.8086 17.6154 19.8803 17.65C19.9385 17.7026 19.984 17.7677 20.0135 17.8405C20.0429 17.9132 20.0555 17.9917 20.0503 18.07C20.12 18.7532 20.0012 19.4426 19.7068 20.0631C19.4124 20.6837 18.9536 21.2117 18.3803 21.59C17.3017 22.2917 16.4067 23.2415 15.7703 24.36C15.5807 24.6961 15.3106 24.98 14.9842 25.1859C14.6578 25.3919 14.2854 25.5135 13.9003 25.54H13.5803C13.1235 25.538 12.6727 25.4359 12.2597 25.2406C11.8467 25.0453 11.4817 24.7618 11.1903 24.4099C10.5132 23.5846 10.0895 22.5808 9.97034 21.5199C9.90034 20.9399 9.86031 20.36 9.82031 19.79C9.78031 19.22 9.74033 18.55 9.65033 17.93C9.59708 17.1772 9.39248 16.4429 9.04883 15.7711C8.70518 15.0993 8.22954 14.5037 7.65033 14.0199C6.77253 13.4064 5.72091 13.0909 4.65033 13.12C4.23781 13.0934 3.82713 13.0434 3.42032 12.97H3.17032L3.2803 12.8499ZM2.60031 17.43C2.60317 16.4638 2.69353 15.4998 2.8703 14.55V14.44H3.27033C3.88033 14.51 4.50029 14.58 5.11029 14.61C5.72274 14.6323 6.31367 14.8418 6.80353 15.2101C7.29339 15.5783 7.65872 16.0878 7.85034 16.67C8.20415 17.6821 8.38004 18.7478 8.3703 19.82C8.3703 20.1299 8.3703 20.44 8.4303 20.75C8.49574 22.3539 9.03511 23.9024 9.98029 25.2C10.5822 25.9759 11.4152 26.5403 12.3589 26.8117C13.3026 27.0832 14.3082 27.0475 15.2303 26.7099C15.9387 26.4673 16.5332 25.9726 16.9003 25.32C17.5063 24.2774 18.3363 23.3825 19.3303 22.7C20.0922 22.1692 20.698 21.4441 21.0849 20.6C21.4718 19.7559 21.6256 18.8236 21.5303 17.9C21.5165 17.6073 21.4386 17.3213 21.3021 17.0621C21.1656 16.8029 20.9738 16.5769 20.7403 16.4C20.4958 16.2489 20.2199 16.156 19.9339 16.1283C19.6479 16.1005 19.3593 16.1387 19.0903 16.2399C18.7298 16.4199 18.3368 16.5255 17.9346 16.5502C17.5325 16.575 17.1294 16.5185 16.7496 16.3841C16.3697 16.2497 16.0209 16.0402 15.7238 15.768C15.4267 15.4958 15.1874 15.1666 15.0203 14.8C14.3252 13.6992 13.2622 12.8806 12.0203 12.4899C11.2703 12.2399 10.5203 11.95 9.79035 11.67L9.01032 11.48C8.88032 11.48 8.75031 11.36 8.63031 11.3L8.47034 11.21H8.40033V10.82H8.51032L9.2403 10.7699C9.7803 10.7699 10.3403 10.68 10.8903 10.68C11.8262 10.6955 12.7521 10.4863 13.5903 10.07C14.7935 9.48778 15.7251 8.46303 16.1903 7.20995C16.4457 6.33033 16.3999 5.3906 16.0603 4.53995C15.8403 3.85995 15.5903 3.20995 15.3303 2.53995L15.1203 1.98995H15.2603C16.2812 1.78683 17.3194 1.68302 18.3603 1.67995H18.4103C20.0406 1.68585 21.66 1.94563 23.2103 2.44996H23.3803L23.1703 2.72995C22.8003 3.20995 22.4603 3.66995 22.1703 4.15995C21.9769 4.48677 21.8574 4.85201 21.8203 5.22995C21.6603 6.68995 22.4403 7.60995 24.2103 8.06995C24.8366 8.21791 25.492 8.18562 26.1008 7.97681C26.7095 7.768 27.2467 7.39121 27.6503 6.88996C27.9803 6.55996 28.2903 6.20996 28.6503 5.88996L28.8903 5.63996L28.9803 5.71996C30.9836 7.51064 32.5037 9.777 33.4003 12.31L33.4503 12.46H33.2903C31.8757 12.6096 30.4453 12.4632 29.0903 12.03L28.8403 11.94C28.3975 11.7475 27.9294 11.6195 27.4503 11.56H27.2503C26.5782 11.5819 25.934 11.8344 25.426 12.275C24.918 12.7157 24.577 13.3177 24.4603 13.98C23.7203 16.98 24.5703 19.24 27.0803 20.78L27.4603 21.0199C27.8961 21.2462 28.245 21.6099 28.4529 22.0547C28.6609 22.4995 28.7162 23.0005 28.6103 23.48C28.2609 24.861 28.3411 26.3157 28.8403 27.65C29.0025 28.0239 29.1931 28.385 29.4103 28.73L29.4603 28.82L29.3903 28.89C27.5245 30.6747 25.2525 31.9789 22.7703 32.69H22.6503L22.5503 32.3L22.2803 31.18C22.1537 30.3754 21.7777 29.6308 21.2054 29.0513C20.6331 28.4718 19.8933 28.0866 19.0903 27.95C17.9065 27.8029 16.7073 28.0505 15.6785 28.6544C14.6498 29.2583 13.849 30.1847 13.4003 31.29C13.2903 31.57 13.2103 31.8599 13.1203 32.1599V32.29H13.0003C9.96512 31.1677 7.34156 29.1515 5.47589 26.5074C3.61023 23.8634 2.59017 20.7157 2.55032 17.48L2.60031 17.43ZM29.2303 20.43C28.8423 20.0457 28.4091 19.71 27.9403 19.43L27.8103 19.34C26.9891 18.8852 26.3498 18.1612 26.0003 17.29C25.7759 16.7223 25.669 16.1149 25.6862 15.5047C25.7033 14.8945 25.8443 14.2941 26.1003 13.7399C26.1705 13.5558 26.2777 13.388 26.4153 13.247C26.5529 13.1059 26.718 12.9946 26.9003 12.92C27.2275 12.8057 27.5862 12.8237 27.9003 12.97C29.6875 13.7291 31.6437 14.0017 33.5703 13.76H33.8803V13.8499C34.1475 15.0044 34.285 16.185 34.2903 17.37C34.3096 21.088 33.0011 24.6908 30.6003 27.53L30.4803 27.6599L30.4003 27.51C29.8422 26.4652 29.6857 25.2522 29.9603 24.0999C30.1479 23.4799 30.1747 22.8224 30.0383 22.1891C29.9018 21.5559 29.6066 20.9677 29.1803 20.48L29.2303 20.43ZM21.2303 33.05H21.1003C20.2445 33.1953 19.3784 33.2722 18.5103 33.28H18.4503C17.186 33.265 15.9277 33.1039 14.7003 32.8H14.5903V32.69C14.6847 32.1608 14.8847 31.656 15.1785 31.2058C15.4723 30.7557 15.8538 30.3694 16.3003 30.07C16.6858 29.7878 17.1261 29.5895 17.5928 29.4879C18.0596 29.3863 18.5424 29.3836 19.0103 29.48C19.4544 29.5626 19.8642 29.7747 20.1881 30.0897C20.5119 30.4046 20.7354 30.8083 20.8303 31.25C20.9503 31.72 21.0603 32.25 21.1603 32.68L21.2303 33.05ZM18.2903 38.3399C13.895 38.3616 9.6109 36.9582 6.08032 34.34L5.50031 33.9L7.9903 31.4099L8.42029 31.7099C11.8064 34.0786 15.9225 35.1702 20.0374 34.7909C24.1523 34.4116 27.9995 32.586 30.8956 29.6383C33.7917 26.6906 35.5492 22.8118 35.8558 18.6909C36.1624 14.57 34.9983 10.4737 32.5703 7.12995L32.2603 6.69996L34.7503 4.23995L35.1903 4.78995C37.5182 7.91689 38.9297 11.6301 39.2668 15.5138C39.604 19.3974 38.8535 23.2983 37.0994 26.7796C35.3452 30.2609 32.6567 33.1853 29.3347 35.2252C26.0128 37.2652 22.1886 38.3402 18.2903 38.33V38.3399Z" fill="#7797E9"/>
</svg>
