<svg width="50" height="48" viewBox="0 0 50 48" fill="none" xmlns="http://www.w3.org/2000/svg">
<path d="M3.63023 48L1.63023 47.48C1.45683 47.4564 1.29738 47.3722 1.18021 47.2422C1.06304 47.1122 0.995735 46.9449 0.990234 46.77C0.990234 46.36 1.25023 46.17 1.59023 46.02C3.00478 45.4028 4.16816 44.324 4.89024 42.96C4.96903 42.8487 5.00529 42.7128 4.99245 42.577C4.9796 42.4413 4.9185 42.3146 4.82024 42.22C2.53381 39.4993 1.20484 36.1026 1.03786 32.5527C0.870874 29.0028 1.87513 25.4963 3.89607 22.573C5.91702 19.6497 8.84265 17.4716 12.2227 16.3738C15.6028 15.276 19.2499 15.3195 22.6029 16.4974C25.9558 17.6754 28.8288 19.9225 30.7795 22.8931C32.7303 25.8637 33.6508 29.3931 33.3993 32.938C33.1479 36.483 31.7384 39.847 29.3878 42.5125C27.0373 45.178 23.8759 46.9972 20.3902 47.69C19.7402 47.82 19.0702 47.9 18.3902 48H16.0002C16.0002 48 15.9202 47.94 15.8702 47.94C13.7823 47.7695 11.746 47.2027 9.87023 46.27C9.70029 46.2471 9.52761 46.2824 9.38023 46.37C8.47023 46.8 7.58023 47.28 6.66023 47.69C6.23778 47.8346 5.80247 47.9384 5.36024 48H3.63023ZM3.63023 46.52C3.90023 46.52 4.03023 46.58 4.17023 46.58C5.90391 46.6808 7.60943 46.1075 8.93024 44.98C9.50024 44.51 9.61024 44.5 10.2602 44.84C12.9457 46.2736 16.0107 46.8363 19.0302 46.45C22.3196 46.0533 25.3812 44.5657 27.726 42.225C30.0708 39.8842 31.5636 36.8252 31.966 33.5365C32.3683 30.2478 31.6571 26.9191 29.9458 24.0821C28.2345 21.245 25.6219 19.0632 22.5252 17.8852C19.4286 16.7071 16.0264 16.6006 12.8621 17.5829C9.69787 18.5651 6.954 20.5793 5.06874 23.3039C3.18348 26.0284 2.26557 29.3061 2.46161 32.6135C2.65765 35.9209 3.95633 39.0672 6.15024 41.55C6.37434 41.7311 6.52304 41.989 6.56741 42.2737C6.61177 42.5584 6.54861 42.8493 6.39024 43.09C6.32877 43.1993 6.2753 43.313 6.23023 43.43C5.61159 44.6514 4.71404 45.71 3.61024 46.52H3.63023Z" fill="#7797E9"/>
<path d="M48.9907 31.5001C48.5671 31.9171 48.0125 32.1749 47.4207 32.2301C46.2575 32.5245 45.0433 32.5552 43.8667 32.3199C42.6902 32.0846 41.5812 31.5893 40.6207 30.8701C40.5161 30.7862 40.3886 30.7356 40.2549 30.7249C40.1212 30.7142 39.9874 30.7439 39.8707 30.8101C38.6007 31.2801 37.3207 31.7001 36.0407 32.1401C35.9191 32.1698 35.7954 32.1899 35.6707 32.2001C35.4904 32.229 35.306 32.1852 35.1579 32.0784C35.0099 31.9715 34.9102 31.8103 34.8807 31.6301C34.8602 31.5447 34.8573 31.4559 34.872 31.3693C34.8868 31.2826 34.919 31.1999 34.9667 31.126C35.0144 31.0522 35.0765 30.9888 35.1494 30.9396C35.2223 30.8905 35.3044 30.8566 35.3907 30.8401C35.8207 30.7201 36.2807 30.6801 36.7007 30.5201C37.7007 30.1301 38.8007 29.7201 39.8107 29.2601C40.0017 29.142 40.2268 29.0915 40.45 29.1169C40.6731 29.1423 40.8812 29.2421 41.0407 29.4001C41.7279 30.0065 42.5329 30.4643 43.4054 30.7448C44.2779 31.0253 45.1989 31.1225 46.1107 31.0301H46.3507L45.6707 30.4501C44.7405 29.6196 44.0033 28.5957 43.5107 27.4501C43.4135 27.2572 43.3815 27.0379 43.4193 26.8252C43.4572 26.6125 43.5629 26.4177 43.7207 26.2701C45.2266 24.6172 46.3388 22.6449 46.9742 20.501C47.6096 18.3571 47.7517 16.0973 47.3897 13.8907C47.0278 11.6842 46.1712 9.58815 44.8842 7.75963C43.5972 5.93111 41.9131 4.41753 39.958 3.33227C38.003 2.24701 35.8278 1.61821 33.5952 1.49297C31.3627 1.36773 29.1308 1.7493 27.0667 2.6091C25.0025 3.46889 23.1597 4.78462 21.6762 6.45772C20.1928 8.13082 19.1072 10.1179 18.5007 12.2701C18.3907 12.6601 18.3107 13.0601 18.2207 13.4501C18.0907 14.0001 17.7907 14.2701 17.3807 14.2001C16.9707 14.1301 16.7207 13.7601 16.8407 13.2001C17.2531 10.8933 18.1766 8.70795 19.5436 6.80452C20.9106 4.90109 22.6864 3.32783 24.7407 2.20014C26.8304 1.00325 29.161 0.288217 31.5623 0.107249C33.9636 -0.0737194 36.3751 0.283945 38.6205 1.15413C40.8659 2.02432 42.8886 3.38505 44.5409 5.13695C46.1932 6.88885 47.4333 8.98767 48.1707 11.2801C48.4811 12.4082 48.7249 13.5535 48.9007 14.7101L48.9907 15.1601V17.4501C48.9549 17.5372 48.9281 17.6276 48.9107 17.7201C48.6184 21.0461 47.2852 24.1953 45.1007 26.7201C45.0234 26.8049 44.9806 26.9154 44.9806 27.0301C44.9806 27.1448 45.0234 27.2554 45.1007 27.3401C45.803 28.6763 46.9185 29.7497 48.2807 30.4001C48.5445 30.5504 48.7983 30.7174 49.0407 30.9001L48.9907 31.5001Z" fill="#7797E9"/>
<path d="M29.9402 15.6001C30.1215 15.6001 30.2955 15.6714 30.4246 15.7986C30.5538 15.9259 30.6276 16.0988 30.6302 16.2801C30.6358 16.3731 30.622 16.4662 30.5896 16.5536C30.5571 16.6409 30.5069 16.7206 30.4419 16.7874C30.377 16.8542 30.2988 16.9067 30.2125 16.9416C30.1261 16.9765 30.0334 16.993 29.9402 16.9901C29.7597 16.9903 29.586 16.9206 29.4556 16.7958C29.3251 16.6709 29.248 16.5005 29.2402 16.3201C29.2402 16.1326 29.3133 15.9524 29.444 15.8179C29.5747 15.6835 29.7528 15.6053 29.9402 15.6001Z" fill="#7797E9"/>
<path d="M32.7796 16.9901C32.6001 16.9875 32.4286 16.915 32.3016 16.7881C32.1747 16.6611 32.1022 16.4896 32.0996 16.3101C32.0996 16.1218 32.1744 15.9412 32.3076 15.8081C32.4407 15.6749 32.6213 15.6001 32.8096 15.6001C32.9024 15.6012 32.994 15.6213 33.0788 15.6592C33.1636 15.697 33.2397 15.7519 33.3024 15.8202C33.3652 15.8886 33.4133 15.9692 33.4438 16.0568C33.4743 16.1445 33.4864 16.2375 33.4796 16.3301C33.4784 16.4198 33.4591 16.5084 33.423 16.5905C33.3868 16.6727 33.3346 16.7467 33.2693 16.8083C33.204 16.8698 33.127 16.9176 33.0429 16.9489C32.9588 16.9801 32.8693 16.9941 32.7796 16.9901Z" fill="#7797E9"/>
<path d="M35.6099 15.6C35.7034 15.6061 35.7946 15.6312 35.8781 15.6737C35.9616 15.7163 36.0355 15.7754 36.0954 15.8474C36.1553 15.9195 36.1998 16.003 36.2264 16.0928C36.253 16.1826 36.261 16.2769 36.2499 16.37C36.2436 16.4589 36.2196 16.5458 36.1794 16.6254C36.1391 16.705 36.0833 16.7757 36.0153 16.8335C35.9473 16.8912 35.8685 16.9348 35.7834 16.9617C35.6983 16.9886 35.6087 16.9982 35.5199 16.99C35.427 16.9837 35.3363 16.9589 35.253 16.9171C35.1698 16.8753 35.0958 16.8173 35.0352 16.7465C34.9747 16.6758 34.9289 16.5936 34.9005 16.5049C34.8721 16.4162 34.8617 16.3227 34.8699 16.23C34.89 16.0505 34.9778 15.8855 35.1152 15.7685C35.2527 15.6515 35.4296 15.5912 35.6099 15.6Z" fill="#7797E9"/>
<path d="M14.7791 31.76C14.7791 30.87 14.7791 29.98 14.7791 29.09C14.7791 28.5 15.0191 28.26 15.5991 28.25C16.1791 28.24 16.5991 28.25 17.0891 28.25C17.4201 28.2522 17.7454 28.3365 18.0358 28.4953C18.3262 28.6541 18.5726 28.8825 18.753 29.16C18.9334 29.4375 19.0421 29.7555 19.0693 30.0854C19.0966 30.4152 19.0415 30.7467 18.9091 31.05C18.8647 31.1361 18.8514 31.2349 18.8714 31.3297C18.8915 31.4244 18.9437 31.5094 19.0191 31.57C19.3192 31.884 19.5156 32.2826 19.5818 32.7118C19.648 33.1411 19.5807 33.5803 19.3891 33.97C19.2302 34.3656 18.9525 34.702 18.5943 34.9331C18.2361 35.1641 17.815 35.2784 17.3891 35.26C16.7691 35.26 16.1391 35.26 15.5191 35.26C15.4176 35.2731 15.3143 35.2627 15.2174 35.2296C15.1204 35.1966 15.0323 35.1417 14.9599 35.0693C14.8875 34.9969 14.8326 34.9088 14.7995 34.8118C14.7665 34.7149 14.7561 34.6116 14.7691 34.51C14.7791 33.6 14.7791 32.68 14.7791 31.76ZM16.2091 33.8601C16.6491 33.8601 17.0491 33.8601 17.4491 33.8601C17.6463 33.8574 17.8345 33.7772 17.973 33.6369C18.1115 33.4965 18.1892 33.3072 18.1892 33.1101C18.2058 32.9046 18.1404 32.701 18.0074 32.5436C17.8744 32.3862 17.6845 32.2879 17.4791 32.27C17.0691 32.27 16.6491 32.27 16.2091 32.27V33.8601ZM16.2091 30.8601C16.5391 30.8601 16.8391 30.8601 17.1291 30.8601C17.2039 30.8615 17.2782 30.8476 17.3474 30.8193C17.4167 30.791 17.4794 30.749 17.5318 30.6956C17.5843 30.6422 17.6252 30.5788 17.6523 30.509C17.6793 30.4393 17.6919 30.3648 17.6892 30.29C17.6961 30.2159 17.6875 30.1411 17.6641 30.0704C17.6407 29.9997 17.603 29.9345 17.5532 29.8791C17.5034 29.8237 17.4427 29.7792 17.3749 29.7484C17.3071 29.7176 17.2336 29.7011 17.1591 29.7C16.8491 29.7 16.5391 29.7 16.2091 29.7V30.8601Z" fill="#7797E9"/>
<path d="M13.4297 34.7102C13.2897 34.8502 13.1397 35.1602 12.9297 35.2002C12.7197 35.2402 12.3997 35.0802 12.1397 34.9902C12.1397 34.9902 12.0397 34.8602 12.0297 34.7902C11.9097 33.9402 11.3497 33.7902 10.6297 33.9102C10.5199 33.9202 10.4095 33.9202 10.2997 33.9102C9.5597 33.7902 9.0697 33.9802 8.8797 34.7902C8.85859 34.8829 8.81708 34.9698 8.7582 35.0444C8.69932 35.1191 8.62455 35.1797 8.53932 35.2218C8.45408 35.264 8.36053 35.2866 8.26546 35.288C8.17039 35.2895 8.07618 35.2697 7.9897 35.2302C7.90101 35.1974 7.82 35.1467 7.75172 35.0813C7.68343 35.0159 7.62932 34.9371 7.59275 34.8499C7.55618 34.7627 7.53792 34.6689 7.53912 34.5743C7.54031 34.4798 7.56094 34.3865 7.5997 34.3002C8.2897 32.4602 8.98971 30.6302 9.68971 28.7902C9.74982 28.6334 9.85607 28.4985 9.99444 28.4034C10.1328 28.3083 10.2968 28.2573 10.4647 28.2573C10.6326 28.2573 10.7966 28.3083 10.935 28.4034C11.0733 28.4985 11.1796 28.6334 11.2397 28.7902C11.9064 30.6102 12.5997 32.4335 13.3197 34.2602C13.3597 34.3702 13.3697 34.4502 13.4297 34.7102ZM11.1397 32.4502L10.4697 30.7002L9.7797 32.4502H11.1397Z" fill="#7797E9"/>
<path d="M24.3902 35.2702C23.8581 35.2633 23.3346 35.1355 22.8592 34.8965C22.3838 34.6575 21.969 34.3136 21.6461 33.8907C21.3232 33.4678 21.1006 32.977 20.9953 32.4555C20.8899 31.9339 20.9045 31.3952 21.038 30.8801C21.1714 30.3651 21.4202 29.8871 21.7656 29.4823C22.1109 29.0775 22.5438 28.7566 23.0314 28.5437C23.5191 28.3308 24.0487 28.2315 24.5804 28.2535C25.112 28.2754 25.6317 28.4179 26.1002 28.6702L26.3002 28.7802C26.3879 28.8237 26.4662 28.8842 26.5304 28.9582C26.5945 29.0322 26.6434 29.1182 26.6741 29.2112C26.7048 29.3043 26.7167 29.4025 26.7092 29.5001C26.7016 29.5978 26.6748 29.693 26.6302 29.7802C26.5813 29.8629 26.5159 29.9346 26.4381 29.9909C26.3603 30.0473 26.2718 30.087 26.178 30.1076C26.0842 30.1282 25.9872 30.1294 25.8929 30.1109C25.7987 30.0924 25.7092 30.0547 25.6302 30.0002C25.1605 29.7132 24.6026 29.6065 24.0602 29.7002C23.5186 29.8115 23.042 30.1299 22.7319 30.5876C22.4218 31.0453 22.3028 31.606 22.4002 32.1502C22.4979 32.6861 22.8019 33.1623 23.2469 33.4764C23.692 33.7906 24.2425 33.9176 24.7802 33.8302C25.0937 33.7358 25.3835 33.5756 25.6302 33.3602C26.0302 33.0502 26.4102 33.0002 26.7002 33.3002C26.7715 33.374 26.8263 33.4621 26.8608 33.5588C26.8953 33.6554 26.9087 33.7583 26.9002 33.8606C26.8917 33.9629 26.8614 34.0622 26.8114 34.1518C26.7614 34.2414 26.6927 34.3193 26.6102 34.3802C26.3255 34.6789 25.9799 34.913 25.5969 35.0665C25.2139 35.2201 24.8024 35.2895 24.3902 35.2702Z" fill="#7797E9"/>
</svg>
