<svg width="49" height="49" viewBox="0 0 49 49" fill="none" xmlns="http://www.w3.org/2000/svg">
<path d="M47.59 17.29C46.73 16.42 45.86 15.56 44.99 14.69C44.12 13.82 43.99 13.96 43.28 14.69L37.16 20.8V1.20004C37.16 0.250043 36.96 0.0400391 36 0.0400391H1.17001C0.170013 0.0400391 0 0.240041 0 1.19004V46.87C0 47.87 0.210004 48.04 1.16 48.04H35.99C36.99 48.04 37.16 47.83 37.16 46.88C37.16 40.88 37.16 35.78 37.16 29.74C37.1501 29.5748 37.1783 29.4095 37.2425 29.2569C37.3066 29.1044 37.405 28.9686 37.53 28.86L47.59 18.81C48.16 18.2 48.16 17.86 47.59 17.29ZM35.59 46.41H1.59001V1.56004H35.59V2.08004C35.59 8.35004 35.59 15.63 35.59 21.9C35.5963 22.0407 35.5729 22.1811 35.5212 22.3121C35.4695 22.4431 35.3907 22.5616 35.29 22.66C34.61 23.31 33.96 23.97 33.29 24.66C33.1805 24.775 33.0486 24.8663 32.9024 24.9282C32.7561 24.9902 32.5988 25.0214 32.44 25.0201H14.71C14.6054 25.02 14.5019 25.0408 14.4054 25.0811C14.3089 25.1214 14.2213 25.1805 14.1478 25.255C14.0743 25.3294 14.0164 25.4176 13.9772 25.5146C13.9381 25.6117 13.9187 25.7155 13.92 25.82C13.92 26.0163 13.998 26.2045 14.1367 26.3433C14.2755 26.4821 14.4637 26.56 14.66 26.56H31.48C30.63 27.4 29.84 28.11 29.15 28.91C28.9216 29.1801 28.6315 29.391 28.3042 29.525C27.9769 29.6591 27.6222 29.7122 27.27 29.68C22.96 29.68 16.87 29.68 14.71 29.68C14.6054 29.68 14.5019 29.7008 14.4054 29.7411C14.3089 29.7814 14.2213 29.8405 14.1478 29.9149C14.0743 29.9894 14.0164 30.0776 13.9772 30.1747C13.9381 30.2717 13.9187 30.3755 13.92 30.48C13.92 30.5772 13.9391 30.6734 13.9763 30.7632C14.0135 30.853 14.068 30.9346 14.1367 31.0033C14.2055 31.072 14.287 31.1265 14.3768 31.1637C14.4666 31.2009 14.5628 31.22 14.66 31.22H26.84C26.27 31.78 25.84 32.22 25.34 32.69C25.1858 32.7686 25.0119 32.7999 24.84 32.78H14.71C14.5005 32.78 14.2996 32.8633 14.1514 33.0114C14.0032 33.1596 13.92 33.3605 13.92 33.57C13.92 33.6672 13.9391 33.7634 13.9763 33.8532C14.0135 33.943 14.068 34.0246 14.1367 34.0933C14.2055 34.162 14.287 34.2165 14.3768 34.2537C14.4666 34.2909 14.5628 34.31 14.66 34.31H24.4C24.31 34.54 24.25 34.7 24.18 34.86C23.67 36.08 23.18 37.29 22.62 38.5C22.5308 38.6578 22.4944 38.8398 22.5159 39.0197C22.5375 39.1996 22.616 39.3679 22.74 39.5C22.874 39.6222 23.0443 39.6971 23.2249 39.7134C23.4054 39.7296 23.5864 39.6863 23.74 39.59C25.4 38.87 27.07 38.17 28.74 37.44C29.0195 37.3032 29.2787 37.1282 29.51 36.92C31.4233 35.02 33.3267 33.1134 35.22 31.2L35.64 30.8L35.59 46.41ZM27.23 36.41L24.71 37.46C25.11 36.55 25.45 35.75 25.79 34.94L27.23 36.41ZM28.71 35.41L26.85 33.55L41.08 19.31L42.95 21.18L28.71 35.41ZM44.15 19.89L42.29 18.0201L44.13 16.17L45.99 18.04L44.15 19.89Z" fill="#7797E9"/>
<path d="M14.5994 23.4102H32.5294C32.7256 23.4102 32.9139 23.3322 33.0526 23.1934C33.1914 23.0547 33.2694 22.8664 33.2694 22.6702C33.2694 22.4739 33.1914 22.2857 33.0526 22.1469C32.9139 22.0081 32.7256 21.9302 32.5294 21.9302H14.5994C14.4031 21.9302 14.2149 22.0081 14.0761 22.1469C13.9373 22.2857 13.8594 22.4739 13.8594 22.6702C13.8594 22.8664 13.9373 23.0547 14.0761 23.1934C14.2149 23.3322 14.4031 23.4102 14.5994 23.4102Z" fill="#7797E9"/>
<path d="M32.5209 40.51H14.6209C14.4246 40.51 14.2364 40.588 14.0976 40.7267C13.9588 40.8655 13.8809 41.0537 13.8809 41.25C13.8808 41.4472 13.9585 41.6365 14.097 41.7768C14.2355 41.9172 14.4237 41.9974 14.6209 42H32.5209C32.7198 42 32.9105 41.921 33.0512 41.7803C33.1918 41.6397 33.2709 41.4489 33.2709 41.25C33.2709 41.0511 33.1918 40.8603 33.0512 40.7197C32.9105 40.579 32.7198 40.5 32.5209 40.5V40.51Z" fill="#7797E9"/>
<path d="M14.6091 38.8999H20.1491C20.3454 38.8999 20.5336 38.822 20.6724 38.6832C20.8112 38.5444 20.8891 38.3562 20.8891 38.1599C20.8891 37.9637 20.8112 37.7754 20.6724 37.6367C20.5336 37.4979 20.3454 37.4199 20.1491 37.4199H14.6091C14.512 37.4199 14.4157 37.4391 14.326 37.4763C14.2362 37.5134 14.1546 37.5679 14.0859 37.6367C14.0172 37.7054 13.9626 37.787 13.9255 37.8767C13.8883 37.9665 13.8691 38.0627 13.8691 38.1599C13.8691 38.2571 13.8883 38.3533 13.9255 38.4431C13.9626 38.5329 14.0172 38.6145 14.0859 38.6832C14.1546 38.7519 14.2362 38.8064 14.326 38.8436C14.4157 38.8808 14.512 38.8999 14.6091 38.8999Z" fill="#7797E9"/>
<path d="M7.56 12.3701H11.61V11.0901H7.56V8.9101H12.13V7.6001H6V15.9901H12.3V14.6901H7.56V12.3701Z" fill="#7797E9"/>
<path d="M17.0805 8.9201H21.2405L21.2505 7.6001H15.5605V15.9901H17.0905L17.0805 8.9201Z" fill="#7797E9"/>
<path d="M26.6498 14.7401C26.2153 14.7507 25.7837 14.6667 25.3849 14.4941C24.986 14.3214 24.6295 14.0641 24.3398 13.7401L23.3398 14.7401C23.7656 15.2076 24.2893 15.5755 24.8735 15.8175C25.4577 16.0594 26.0882 16.1696 26.7198 16.1401C27.8283 16.0867 28.8737 15.6088 29.6394 14.8054C30.405 14.002 30.832 12.9348 30.832 11.8251C30.832 10.7153 30.405 9.64811 29.6394 8.84473C28.8737 8.04136 27.8283 7.56344 26.7198 7.51006C26.0882 7.48053 25.4577 7.59068 24.8735 7.83267C24.2893 8.07466 23.7656 8.44253 23.3398 8.91006L24.3398 9.91006C24.6295 9.586 24.986 9.32874 25.3849 9.15607C25.7837 8.98341 26.2153 8.89947 26.6498 8.91006C27.3007 8.89696 27.9344 9.11945 28.4342 9.53657C28.934 9.95369 29.2663 10.5374 29.3698 11.1801H25.6398V12.4201H29.3998C29.3026 13.0753 28.9695 13.6726 28.4632 14.0997C27.9569 14.5269 27.3121 14.7545 26.6498 14.7401Z" fill="#7797E9"/>
<path d="M10.0209 22.06L7.3309 24.75L5.8609 23.28C5.71872 23.1475 5.53068 23.0754 5.33637 23.0788C5.14207 23.0822 4.9567 23.161 4.81928 23.2984C4.68187 23.4358 4.60315 23.6212 4.59973 23.8155C4.5963 24.0098 4.66842 24.1978 4.8009 24.34L6.8009 26.34C6.94152 26.4804 7.13215 26.5593 7.3309 26.5593C7.52965 26.5593 7.72027 26.4804 7.8609 26.34L11.0809 23.12C11.1546 23.0513 11.2137 22.9685 11.2547 22.8765C11.2957 22.7845 11.3177 22.6852 11.3195 22.5845C11.3213 22.4838 11.3027 22.3838 11.265 22.2904C11.2273 22.197 11.1712 22.1122 11.0999 22.0409C11.0287 21.9697 10.9439 21.9136 10.8505 21.8759C10.7571 21.8381 10.6571 21.8196 10.5564 21.8214C10.4557 21.8232 10.3564 21.8452 10.2644 21.8862C10.1724 21.9272 10.0896 21.9863 10.0209 22.06Z" fill="#7797E9"/>
<path d="M10.0209 30.06L7.3309 32.75L5.8609 31.28C5.71872 31.1475 5.53068 31.0754 5.33637 31.0788C5.14207 31.0822 4.9567 31.161 4.81928 31.2984C4.68187 31.4358 4.60315 31.6212 4.59973 31.8155C4.5963 32.0098 4.66842 32.1978 4.8009 32.34L6.8009 34.34C6.94152 34.4804 7.13215 34.5593 7.3309 34.5593C7.52965 34.5593 7.72027 34.4804 7.8609 34.34L11.0809 31.12C11.1546 31.0513 11.2137 30.9685 11.2547 30.8765C11.2957 30.7845 11.3177 30.6852 11.3195 30.5845C11.3213 30.4838 11.3027 30.3838 11.265 30.2904C11.2273 30.197 11.1712 30.1122 11.0999 30.0409C11.0287 29.9697 10.9439 29.9136 10.8505 29.8759C10.7571 29.8381 10.6571 29.8196 10.5564 29.8214C10.4557 29.8232 10.3564 29.8452 10.2644 29.8862C10.1724 29.9272 10.0896 29.9863 10.0209 30.06Z" fill="#7797E9"/>
<path d="M10.0209 38.06L7.3309 40.75L5.8609 39.28C5.71872 39.1475 5.53068 39.0754 5.33637 39.0788C5.14207 39.0822 4.9567 39.161 4.81928 39.2984C4.68187 39.4358 4.60315 39.6212 4.59973 39.8155C4.5963 40.0098 4.66842 40.1978 4.8009 40.34L6.8009 42.34C6.94152 42.4804 7.13215 42.5593 7.3309 42.5593C7.52965 42.5593 7.72027 42.4804 7.8609 42.34L11.0809 39.12C11.1546 39.0513 11.2137 38.9685 11.2547 38.8765C11.2957 38.7845 11.3177 38.6852 11.3195 38.5845C11.3213 38.4838 11.3027 38.3838 11.265 38.2904C11.2273 38.197 11.1712 38.1122 11.0999 38.0409C11.0287 37.9697 10.9439 37.9136 10.8505 37.8759C10.7571 37.8381 10.6571 37.8196 10.5564 37.8214C10.4557 37.8232 10.3564 37.8452 10.2644 37.8862C10.1724 37.9272 10.0896 37.9863 10.0209 38.06Z" fill="#7797E9"/>
</svg>
