<svg width="34" height="49" viewBox="0 0 34 49" fill="none" xmlns="http://www.w3.org/2000/svg">
<path d="M31.8604 12.4499C32.4504 9.73986 33.0504 7.02986 33.6404 4.32986C33.8104 3.54986 33.6404 3.32986 32.8704 3.11986L25.5604 1.50986L23.4604 1.04986C22.7404 0.88986 22.4604 1.04986 22.3104 1.76986C21.8004 4.07986 21.3104 6.37986 20.7704 8.68986C20.0604 11.9399 19.3404 15.1999 18.6304 18.4499L18.1304 20.7199H15.4004V9.89986H16.5004V12.0799C16.5004 13.3299 16.5004 14.5799 16.5004 15.8299C16.486 15.9325 16.4939 16.0369 16.5236 16.1362C16.5533 16.2354 16.604 16.3271 16.6724 16.405C16.7407 16.4828 16.8251 16.545 16.9196 16.5872C17.0142 16.6295 17.1168 16.6509 17.2204 16.6499C17.6504 16.6499 17.9304 16.3299 17.9404 15.8199V9.24986C17.9404 8.72986 17.6804 8.47986 17.1304 8.47986H15.3904V7.06986C15.3904 6.06986 15.3904 5.16986 15.3904 4.21986C15.3904 3.59986 15.1404 3.33986 14.5204 3.33986H11.6604C10.7404 3.33986 10.5504 3.52986 10.5504 4.42986V20.7299H9.79039L9.5204 19.2499C8.8404 15.7699 8.14038 12.1699 7.43038 8.62986C7.36837 8.32435 7.24671 8.03407 7.07234 7.77566C6.89797 7.51724 6.67432 7.29576 6.41423 7.12391C6.15413 6.95206 5.86269 6.83322 5.55659 6.77418C5.25049 6.71514 4.93575 6.71707 4.6304 6.77986C4.0804 6.86986 3.54039 6.97986 3.03039 7.08986C2.6929 7.13663 2.36915 7.25442 2.08052 7.43548C1.79188 7.61653 1.54493 7.85673 1.35594 8.14022C1.16694 8.42372 1.0402 8.74407 0.98408 9.08013C0.927965 9.4162 0.943753 9.76034 1.03039 10.0899L1.97039 14.8699L3.08039 20.5299V20.6799H2.31039C1.41039 20.6799 1.22039 20.8699 1.22039 21.7799V47.6599C1.22039 48.5499 1.42038 48.7499 2.32038 48.7499H30.4204C31.3204 48.7499 31.5104 48.5499 31.5104 47.6399V21.8099C31.5104 20.9099 31.3204 20.7199 30.4104 20.7199H30.0304V20.5699C30.6704 17.8599 31.3104 15.1599 31.8604 12.4499ZM12.0404 4.78986H13.9104V6.68986H12.0404V4.78986ZM12.0404 8.21986H14.0404V20.7199H12.0404V8.21986ZM2.64039 10.4999C2.64039 10.3999 2.64039 10.2999 2.59039 10.2099C2.54742 10.0318 2.51403 9.85152 2.49038 9.66986C2.4629 9.54672 2.46104 9.41924 2.48492 9.29536C2.5088 9.17147 2.55791 9.05382 2.62919 8.94971C2.70047 8.84561 2.79239 8.75728 2.89926 8.69021C3.00612 8.62314 3.12565 8.57877 3.25039 8.55986C3.85039 8.40986 4.43039 8.29986 4.97039 8.21986C5.18609 8.18916 5.40563 8.23687 5.58914 8.35432C5.77264 8.47176 5.90792 8.65114 5.97039 8.85986C6.03342 9.06589 6.08023 9.27653 6.11039 9.48986C6.11039 9.58986 6.11039 9.69986 6.17039 9.80986V9.92986L2.61039 10.6199L2.64039 10.4999ZM3.08039 12.7599C3.08039 12.6399 3.08039 12.5099 3.03039 12.3799C3.03582 12.3166 3.03582 12.2531 3.03039 12.1899V12.0699L6.54038 11.3899L6.62039 11.7699C6.62039 11.8999 6.68039 12.0199 6.70039 12.1499L7.26039 14.9999C7.62039 16.8599 7.99038 18.7099 8.35038 20.5699V20.7199H4.6304V20.6199L3.73039 16.0399C3.48039 14.9499 3.31039 13.8599 3.05039 12.7599H3.08039ZM30.0804 22.2099V47.2499H2.72039V22.2499L30.0804 22.2099ZM29.9004 14.7399C29.4604 16.6999 29.0304 18.6599 28.6104 20.6199V20.7199H19.6104L19.9704 19.1399L20.5704 19.2799L21.5704 19.4999C22.1004 19.5999 22.4904 19.3999 22.5704 18.9599C22.6504 18.5199 22.3804 18.1999 21.8504 18.0699L20.8504 17.8499L20.2204 17.7099L20.6504 15.8399L21.3004 15.9799L22.3004 16.1899C22.4014 16.225 22.5085 16.2387 22.6151 16.2302C22.7217 16.2216 22.8253 16.191 22.9194 16.1402C23.0134 16.0894 23.0959 16.0195 23.1615 15.9351C23.2271 15.8507 23.2744 15.7536 23.3004 15.6499C23.3904 15.2399 23.1304 14.8999 22.6304 14.7799L21.5504 14.5299L20.9704 14.3999L21.3904 12.5099L22.6504 12.7899L25.5704 13.4299C25.6649 13.4574 25.764 13.4661 25.8619 13.4554C25.9598 13.4447 26.0547 13.4148 26.141 13.3675C26.2274 13.3201 26.3036 13.2562 26.3652 13.1794C26.4269 13.1026 26.4728 13.0144 26.5004 12.9199C26.5239 12.8239 26.5276 12.7241 26.5114 12.6266C26.4952 12.5292 26.4593 12.436 26.406 12.3528C26.3527 12.2696 26.2831 12.198 26.2013 12.1425C26.1196 12.087 26.0274 12.0487 25.9304 12.0299L25.6004 11.9499H25.4704L21.7004 11.1199L22.1204 9.22986L22.7204 9.35986L23.7204 9.57986C23.8489 9.61537 23.9833 9.62482 24.1155 9.60765C24.2477 9.59047 24.3752 9.54702 24.4904 9.47986C24.5637 9.42494 24.6253 9.35598 24.6716 9.277C24.718 9.19803 24.7482 9.11062 24.7604 9.01986C24.8604 8.44986 24.3304 8.22986 24.0104 8.14986L23.0104 7.93986L22.3804 7.79986L22.8204 5.90986L23.4304 6.04986L24.4304 6.26986C24.9804 6.37986 25.3604 6.18986 25.4304 5.76986C25.4557 5.68145 25.4626 5.58876 25.4505 5.49758C25.4385 5.40639 25.4078 5.31867 25.3604 5.23986C25.2814 5.13464 25.1825 5.04603 25.0692 4.9791C24.956 4.91218 24.8306 4.86826 24.7004 4.84986L23.1204 4.47986L23.5504 2.59986L32.0204 4.45986V4.68986C32.0204 4.75986 32.0204 4.82986 32.0204 4.88986L30.9404 9.77986L29.9004 14.7399Z" fill="#7797E9"/>
</svg>
