<svg width="49" height="49" viewBox="0 0 49 49" fill="none" xmlns="http://www.w3.org/2000/svg">
<path d="M48.0106 6.35005L47.5206 7.22005C47.9006 7.84005 47.9206 8.22005 47.5706 8.50005C47.2206 8.78005 46.8906 8.75005 46.3306 8.31005L45.5806 9.11005C45.9906 9.72005 46.0106 10.1101 45.6806 10.3901C45.3506 10.6701 45.0006 10.6501 44.4106 10.2501L44.2706 10.3601L43.6306 10.9601C44.0606 11.6801 44.0806 12.0301 43.7406 12.3301C43.4006 12.6301 43.0206 12.5801 42.3306 11.9801C41.1518 12.4745 40.0687 13.1717 39.1306 14.0401C36.9106 16.4501 34.6006 18.7801 32.3306 21.1401C32.2406 21.2401 32.1506 21.3501 32.1906 21.4201C32.7722 22.4948 33.2963 23.5997 33.7606 24.7301C34.3347 26.3566 34.2664 28.141 33.5695 29.7188C32.8725 31.2966 31.5996 32.549 30.0106 33.2201C29.0352 33.6261 28.0867 34.0937 27.1706 34.6201C26.7603 34.8793 26.4098 35.223 26.1426 35.6282C25.8754 36.0334 25.6974 36.4908 25.6206 36.9701C25.2706 38.5 24.9706 40.0601 24.4806 41.5501C23.9427 43.2613 22.9873 44.8118 21.7007 46.0617C20.4141 47.3117 18.8367 48.2218 17.1106 48.7101C16.6806 48.8401 16.2306 48.9101 15.7906 49.0001H14.0606C13.2344 48.8414 12.4167 48.6411 11.6106 48.4001C9.62864 47.6713 7.81287 46.5526 6.27061 45.1101C4.06258 43.2506 2.27044 40.9474 1.01061 38.3501C0.462699 37.2762 0.136107 36.1033 0.0502163 34.9008C-0.0356745 33.6983 0.120887 32.4909 0.510612 31.3501C1.44902 28.6333 3.4271 26.3998 6.01061 25.1401C7.77363 24.3435 9.64325 23.8079 11.5606 23.5501C12.3766 23.4212 13.1427 23.0744 13.7781 22.5464C14.4135 22.0184 14.8946 21.3287 15.1706 20.5501C15.5066 19.6633 15.9112 18.804 16.3806 17.9801C17.1941 16.7462 18.3891 15.8124 19.783 15.3212C21.1769 14.8301 22.6933 14.8086 24.1006 15.2601C24.7039 15.4653 25.292 15.7126 25.8606 16.0001C26.4306 16.2901 26.9506 16.6701 27.5106 17.0001C27.6155 16.9157 27.7157 16.8255 27.8106 16.7301C30.2306 14.4101 32.6406 12.0701 35.0706 9.73005C35.6017 9.24932 36.0274 8.66365 36.3206 8.01005C36.5106 7.57005 36.7506 7.15005 36.9606 6.72005C36.3706 5.93005 36.3106 5.61005 36.6606 5.25005C37.0106 4.89005 37.3606 4.98005 37.8906 5.35005L38.6606 4.57005C38.4006 4.22005 38.1406 3.78005 38.6006 3.32005C39.0606 2.86005 39.2406 3.05005 39.8706 3.47005L40.1006 3.25005L40.6606 2.79005C40.2006 2.08005 40.1706 1.74005 40.4906 1.42005C40.8106 1.10005 41.1906 1.14005 41.7406 1.53005C42.9006 0.620054 44.0906 1.00005 45.2006 1.53005C45.8813 1.85254 46.4762 2.33134 46.9367 2.92742C47.3973 3.52349 47.7104 4.21997 47.8506 4.96005C47.8761 5.04821 47.9062 5.13499 47.9406 5.22005L48.0106 6.35005ZM26.4406 18.0701C25.7206 17.6801 25.1006 17.2901 24.4406 16.9901C23.7726 16.6627 23.0434 16.4791 22.3 16.4511C21.5567 16.4231 20.8157 16.5512 20.125 16.8273C19.4342 17.1035 18.8091 17.5214 18.2898 18.0541C17.7706 18.5868 17.3689 19.2225 17.1106 19.9201C16.9406 20.3401 16.7706 20.7601 16.5906 21.1701C16.2459 22.1665 15.6383 23.0512 14.8321 23.7307C14.0259 24.4101 13.051 24.8591 12.0106 25.0301C11.2706 25.1701 10.5406 25.3301 9.81062 25.4901C7.56171 25.8662 5.4952 26.9609 3.92062 28.6101C1.76062 31.0401 0.92061 33.7601 2.07061 36.9201C2.69965 38.6026 3.64309 40.1501 4.85061 41.4801C6.55809 43.5567 8.67554 45.2588 11.0706 46.4801C12.4978 47.2515 14.1322 47.5525 15.7406 47.3401C17.218 47.1015 18.6126 46.4984 19.7981 45.5852C20.9837 44.672 21.9229 43.4776 22.5306 42.1101C23.1831 40.5872 23.6401 38.9878 23.8906 37.3501C24.0475 36.2039 24.5066 35.1202 25.2206 34.2101C25.9556 33.4182 26.8527 32.794 27.8506 32.3801C28.7619 32.0624 29.6315 31.636 30.4406 31.1101C33.2906 28.8901 33.0506 25.3401 30.8706 22.6401C30.7659 22.7282 30.6658 22.8216 30.5706 22.9201C29.1906 24.3501 27.8206 25.7801 26.4406 27.2001C26.3173 27.3153 26.2191 27.4547 26.152 27.6095C26.0849 27.7643 26.0504 27.9313 26.0506 28.1001C26.0016 29.0534 25.6758 29.9717 25.1131 30.7428C24.5503 31.5138 23.775 32.1041 22.882 32.4414C21.9891 32.7787 21.0171 32.8484 20.0851 32.6419C19.1532 32.4355 18.3016 31.9618 17.6346 31.279C16.9676 30.5961 16.5141 29.7336 16.3296 28.797C16.1452 27.8605 16.2377 26.8904 16.5959 26.0056C16.9541 25.1208 17.5625 24.3596 18.3466 23.8151C19.1306 23.2707 20.0564 22.9666 21.0106 22.9401C21.1918 22.9551 21.3725 22.9055 21.5206 22.8001C23.1306 21.2601 24.7306 19.7101 26.4406 18.0701ZM36.4406 10.6001L23.2206 23.3501C23.7054 23.6525 24.1698 23.9865 24.6106 24.3501C25.003 24.7933 25.3671 25.2609 25.7006 25.7501L38.4106 12.5701L36.4406 10.6001ZM46.4406 5.86005C46.4111 5.03216 46.0777 4.24415 45.504 3.6465C44.9303 3.04885 44.1566 2.68344 43.3306 2.62005C43.1209 2.62904 42.9217 2.7144 42.7706 2.86005C41.7706 3.79005 40.9306 4.78005 39.9406 5.65005C38.9148 6.58693 38.1177 7.74669 37.6106 9.04005C37.585 9.11792 37.577 9.20053 37.5874 9.28185C37.5978 9.36317 37.6262 9.44114 37.6706 9.51005C38.2706 10.1501 38.8906 10.7601 39.5206 11.3701C39.6006 11.4501 39.7906 11.5401 39.8606 11.5001C40.6735 11.1856 41.443 10.7689 42.1506 10.2601C43.5806 8.99005 44.8906 7.58005 46.2406 6.21005C46.3087 6.10069 46.3624 5.98307 46.4006 5.86005H46.4406ZM21.1706 31.2101C21.8376 31.2081 22.4889 31.0082 23.0422 30.6358C23.5955 30.2634 24.0259 29.7352 24.2788 29.1181C24.5317 28.501 24.5959 27.8227 24.4631 27.1691C24.3303 26.5155 24.0066 25.916 23.5329 25.4465C23.0592 24.977 22.4568 24.6586 21.802 24.5317C21.1473 24.4047 20.4696 24.4749 19.8548 24.7333C19.2399 24.9918 18.7156 25.4268 18.3481 25.9834C17.9807 26.54 17.7867 27.1931 17.7906 27.8601C17.8011 28.7505 18.1615 29.601 18.794 30.2278C19.4264 30.8547 20.2802 31.2075 21.1706 31.2101Z" fill="#7797E9"/>
</svg>
