<svg width="48" height="42" viewBox="0 0 48 42" fill="none" xmlns="http://www.w3.org/2000/svg">
<path d="M46.5954 2.22568C45.7364 1.85684 44.7798 2.02779 44.1095 2.66611L34.5263 11.5107V4.16337C34.5263 1.86779 32.6585 0 30.3629 0H4.16337C1.86779 0 0 1.86779 0 4.16337V23.7549C0 25.9798 1.80968 27.7895 4.03453 27.7895H16.4766L10.7823 40.0665C10.5869 40.4884 10.7697 40.9895 11.1916 41.1848C11.3061 41.2387 11.4265 41.2632 11.5453 41.2632C11.8627 41.2632 12.1667 41.0821 12.3099 40.7756L17.7954 28.9491L23.2808 40.7756C23.4232 41.0821 23.7272 41.2632 24.0446 41.2632C24.1634 41.2632 24.2838 41.2387 24.3983 41.1848C24.8202 40.9895 25.0038 40.4884 24.8076 40.0665L19.1141 27.7895H30.1701C32.5718 27.7895 34.5263 25.8349 34.5263 23.4324V16.6939L44.0589 25.8046C44.5061 26.2501 45.0804 26.4851 45.6733 26.4851C45.9705 26.4851 46.2712 26.4269 46.5634 26.3065C47.4366 25.9469 48 25.1023 48 24.1541V4.36463C48 3.41726 47.4619 2.59705 46.5954 2.22568ZM32.8421 23.4324C32.8421 24.9061 31.6438 26.1053 30.1701 26.1053H17.8265C17.8248 26.1053 17.8232 26.1053 17.8215 26.1053H17.7701C17.7676 26.1053 17.7642 26.1053 17.7617 26.1053H4.03453C2.73853 26.1053 1.68421 25.0509 1.68421 23.7549V4.16337C1.68421 2.79663 2.79663 1.68421 4.16337 1.68421H30.3629C31.7297 1.68421 32.8421 2.79663 32.8421 4.16337V23.4324ZM46.3158 24.1541C46.3158 24.5558 46.0152 24.7107 45.9225 24.7486C45.808 24.7966 45.5116 24.8766 45.2463 24.6097L34.7124 14.5432C34.5895 14.4194 34.5238 14.2535 34.5263 14.0775C34.5288 13.9015 34.5996 13.7389 34.7183 13.6261L45.2615 3.89474C45.4038 3.75916 45.5528 3.71958 45.6783 3.71958C45.7878 3.71958 45.8796 3.75074 45.9318 3.77263C46.0211 3.81137 46.3158 3.96884 46.3158 4.36463V24.1541Z" fill="#7797E9"/>
<path d="M15.2734 13.2405C15.7332 12.4397 16.0001 11.5142 16.0001 10.5264C16.0001 7.50831 13.5445 5.05273 10.5264 5.05273C7.50831 5.05273 5.05273 7.50831 5.05273 10.5264C5.05273 13.5445 7.50831 16.0001 10.5264 16.0001C11.9471 16.0001 13.2388 15.4519 14.2123 14.5609L15.4047 15.7534C15.5689 15.9176 15.7845 16.0001 16.0001 16.0001C16.2157 16.0001 16.4313 15.9176 16.5955 15.7534C16.9247 15.4241 16.9247 14.8919 16.5955 14.5626L15.2734 13.2405ZM10.5264 14.3159C8.43716 14.3159 6.73694 12.6157 6.73694 10.5264C6.73694 8.43716 8.43716 6.73694 10.5264 6.73694C12.6157 6.73694 14.3159 8.43716 14.3159 10.5264C14.3159 11.0443 14.2106 11.5378 14.0212 11.9883L12.3849 10.3521C12.0557 10.0228 11.5235 10.0228 11.1942 10.3521C10.8649 10.6814 10.8649 11.2136 11.1942 11.5428L13.014 13.3626C12.3462 13.9487 11.4822 14.3159 10.5264 14.3159Z" fill="#7797E9"/>
</svg>
