<svg width="322" height="210" viewBox="0 0 322 210" fill="none" xmlns="http://www.w3.org/2000/svg">
<g clip-path="url(#clip0_149_2719)">
<path d="M0 209.549C0 209.549 276.357 34.7346 287.915 28.7251C299.474 22.7157 321.689 0 321.689 0V106.097C321.689 106.097 288.186 121.902 284.364 125.447C280.541 128.993 260.283 137.075 260.283 142.454C260.283 147.832 281.173 164.328 281.173 166.822C281.173 169.316 271.39 173.403 271.39 177.128C271.39 180.854 269.614 192.813 263.835 192.813C258.055 192.813 247.189 193.865 244.751 191.581C242.312 189.297 230.964 180.854 223.861 182.567C216.757 184.28 186.535 190.83 182.983 194.135C179.432 197.44 173.953 208.167 172.779 209.399C171.605 210.631 0 209.549 0 209.549Z" fill="#464647"/>
<path d="M112.909 120.7C115.257 125.597 133.559 131.397 161.974 117.695C192.888 102.671 223.952 68.4477 231.206 68.4477C243.006 68.4477 251.434 62.0777 255.738 59.2533C260.916 55.8579 268.17 47.6551 268.802 45.071C268.917 44.3846 268.917 43.6841 268.802 42.9977C268.802 42.9977 274.341 39.0916 273.347 34.4342C271.391 25.6004 239.454 23.9779 227.835 26.8624C216.216 29.7469 212.965 45.4015 205.079 50.3893C198.035 54.8363 178.77 56.9997 153.756 70.521C128.743 84.0422 108.364 111.085 112.909 120.7Z" fill="#AAB62C"/>
<path d="M114.113 110.123C114.113 110.123 103.668 109.311 98.7311 111.234C93.7945 113.157 93.7645 117.905 91.4166 118.746C89.0687 119.587 80.5201 121.33 77.5401 124.335C73.9882 127.88 75.7039 131.005 73.5366 133.139C71.3694 135.272 63.5732 136.143 59.7805 140.02C55.9878 143.896 57.4025 148.403 55.2654 150.536C53.1282 152.669 46.9576 155.043 44.4894 160.001C42.3823 164.208 43.9475 168.685 42.3521 170.307C39.9713 171.976 37.7987 173.923 35.8804 176.106C34.3753 178.36 31.6964 186.953 33.5326 188.786C35.3687 190.619 72.9046 178.24 96.9854 157.838C121.066 137.435 124.949 128.662 124.949 125.957C124.949 123.253 118.748 112.106 114.113 110.123Z" fill="#AAB62C"/>
<path style="mix-blend-mode:multiply" d="M268.861 45.0708C268.975 44.3844 268.975 43.6838 268.861 42.9975C269.771 42.3132 270.599 41.5268 271.329 40.6538C265.76 44.5599 256.279 51.0802 249.024 54.9563C238.399 60.7254 223.529 60.9658 219.917 60.9658C216.305 60.9658 167.391 104.985 153.364 110.003C139.337 115.021 115.828 111.325 115.828 111.325C115.828 111.325 119.44 115.261 118.085 118.596C116.731 121.932 97.6468 126.288 97.6468 126.288C97.6468 126.288 100.837 132.298 97.6468 135.303C94.4561 138.307 80.8203 140.831 80.8203 140.831C80.8203 140.831 82.8673 147.772 78.9241 151.708C74.9809 155.644 59.9604 156.516 59.9604 156.516C59.9604 156.516 63.5725 165.71 59.9604 169.316C56.3482 172.922 46.7161 171.78 46.7161 171.78C47.0462 172.853 47.1119 173.99 46.9075 175.093C46.7031 176.197 46.2347 177.235 45.5421 178.12C43.7661 179.863 37.1439 181.125 33.6823 181.786C32.8997 184.79 32.5084 187.795 33.6823 188.787C35.4884 190.589 73.0544 178.24 97.1351 157.838C121.216 137.436 125.099 128.662 125.099 125.958C133.617 126.889 146.169 125.327 162.123 117.695C193.037 102.671 224.101 68.4475 231.355 68.4475C243.155 68.4475 251.583 62.0775 255.887 59.253C260.944 55.8577 268.229 47.6548 268.861 45.0708Z" fill="url(#paint0_linear_149_2719)"/>
<path d="M208.207 74.0667C203.835 77.217 200.418 81.5112 198.334 86.4762C196.588 91.9448 196.739 98.495 200.652 102.581C203.391 105.286 212.03 107.599 218.713 109.763C223.649 111.325 226.027 112.767 225.245 115.171C224.462 117.575 219.224 126.98 223.077 128.212C227.863 129.684 226.99 116.193 228.766 116.193C230.542 116.193 233.432 130.676 238.278 128.212C243.124 125.748 231.686 114.15 232.83 113.008C233.974 111.866 246.887 122.022 249.145 116.013C251.402 110.003 234.094 111.626 234.094 109.583C234.094 107.539 249.145 102.251 245.051 98.2247C240.957 94.1983 233.793 106.818 231.054 106.818C228.315 106.818 211.789 97.4134 211.789 93.5373C211.789 89.6612 217.81 79.7456 217.81 76.9812C217.81 74.2169 212.542 71.9934 208.207 74.0667Z" fill="#AEBA34"/>
<path d="M145.329 109.973C143.432 110.183 128.562 114.089 127.81 127.61C127.599 131.426 131.151 138.007 134.673 144.317C137.201 148.854 138.044 151.889 135.937 153.511C133.83 155.134 124.168 159.731 126.696 162.976C129.706 166.912 136.75 155.404 138.225 156.396C139.7 157.387 133.77 170.969 139.128 171.75C144.486 172.531 141.746 156.456 143.312 156.155C144.877 155.855 149.663 171.66 155.081 167.844C160.499 164.028 145.359 155.825 146.532 154.082C147.706 152.339 162.998 156.576 162.004 151.077C161.011 145.579 147.827 151.738 145.569 150.176C143.312 148.614 142.379 134.822 143.252 129.804C143.944 125.988 152.282 122.412 153.787 120.159C154.297 118.901 154.457 117.529 154.249 116.188C154.042 114.847 153.474 113.588 152.606 112.543C151.739 111.498 150.604 110.708 149.323 110.255C148.041 109.803 146.661 109.705 145.329 109.973Z" fill="#AEBA34"/>
<path d="M245.894 40.8039C245.412 42.0359 243.124 40.8039 240.746 40.3232C237.957 40.3267 235.259 41.3168 233.131 43.1176C233.818 41.824 234.799 40.7095 235.996 39.864C237.194 39.0184 238.573 38.4656 240.024 38.25C242.522 37.9495 246.586 38.8509 245.894 40.8039Z" fill="#161616"/>
<path d="M239.454 58.3511C238.351 58.411 237.269 58.033 236.444 57.2995C236.377 57.2325 236.324 57.1528 236.287 57.0652C236.251 56.9775 236.232 56.8836 236.232 56.7887C236.232 56.6938 236.251 56.5999 236.287 56.5122C236.324 56.4246 236.377 56.345 236.444 56.278C236.511 56.2109 236.591 56.1576 236.679 56.1213C236.767 56.085 236.861 56.0663 236.956 56.0663C237.051 56.0663 237.145 56.085 237.233 56.1213C237.321 56.1576 237.401 56.2109 237.468 56.278C238.732 57.5399 242.464 56.9089 248.846 54.2948C255.757 50.8883 262.346 46.8656 268.532 42.276C268.692 42.1724 268.884 42.1306 269.072 42.1582C269.26 42.1859 269.432 42.2811 269.555 42.4262C269.666 42.5834 269.712 42.7769 269.684 42.9669C269.656 43.1569 269.556 43.3289 269.405 43.4477C263.115 48.0575 256.415 52.0807 249.388 55.4666C246.278 57.0186 242.913 57.9958 239.454 58.3511Z" fill="#161616"/>
<path d="M238.943 56.0383C238.943 56.4607 238.775 56.8657 238.475 57.1643C238.176 57.463 237.77 57.6308 237.347 57.6308C236.924 57.6308 236.518 57.463 236.219 57.1643C235.92 56.8657 235.752 56.4607 235.752 56.0383C235.752 55.6159 235.92 55.2109 236.219 54.9123C236.518 54.6136 236.924 54.4458 237.347 54.4458C237.77 54.4458 238.176 54.6136 238.475 54.9123C238.775 55.2109 238.943 55.6159 238.943 56.0383Z" fill="#161616"/>
<path d="M272.142 34.975C272.142 36.0868 270.969 37.469 270.517 37.469C270.066 37.469 270.517 36.0868 270.517 34.975C270.517 33.8633 270.096 33.4727 270.517 33.4727C270.926 33.4784 271.318 33.6351 271.619 33.9125C271.919 34.1899 272.105 34.5684 272.142 34.975Z" fill="#161616"/>
</g>
<defs>
<linearGradient id="paint0_linear_149_2719" x1="32.8997" y1="114.81" x2="365.395" y2="114.81" gradientUnits="userSpaceOnUse">
<stop stop-color="#B794A7"/>
<stop offset="0.17" stop-color="#BC9AAB"/>
<stop offset="0.4" stop-color="#C8ACB8"/>
<stop offset="0.67" stop-color="#DDC9CD"/>
<stop offset="0.96" stop-color="#FAF1E9"/>
<stop offset="1" stop-color="#FFF7EE"/>
</linearGradient>
<clipPath id="clip0_149_2719">
<rect width="321.659" height="210" fill="white"/>
</clipPath>
</defs>
</svg>
