<svg width="81" height="220" viewBox="0 0 81 220" fill="none" xmlns="http://www.w3.org/2000/svg">
<g clip-path="url(#clip0_149_2753)">
<path d="M33.3005 123.692C34.945 143.551 30.4406 160.156 23.2193 160.746C15.998 161.336 8.79451 145.731 7.13217 125.873C5.46984 106.014 9.99213 89.4085 17.2134 88.8008C24.4348 88.193 31.6382 103.869 33.3005 123.692Z" fill="#DADADA"/>
<path d="M71.4311 125.452C72.3391 105.531 67.2074 89.1149 59.969 88.7849C52.7306 88.4549 46.1265 104.336 45.2184 124.257C44.3103 144.177 49.4422 160.593 56.6806 160.923C63.919 161.253 70.523 145.372 71.4311 125.452Z" fill="#DADADA"/>
<path d="M76.2889 1.62695C59.0399 17.3208 67.9951 51.211 55.9834 58.4323C58.0926 61.2922 60.9882 63.455 63.9912 62.8116C69.3535 54.4463 70.2115 41.4694 70.4796 31.263C70.7478 21.0566 71.1589 10.1352 76.2889 1.62695Z" fill="#D96421"/>
<path d="M58.9141 0C46.8309 19.948 65.0451 49.9058 55.5716 60.2373C58.3958 62.3822 61.7919 63.6334 64.5089 62.1677C67.2079 52.6227 64.4016 39.9139 61.7561 29.9935C59.1107 20.0731 56.3223 9.61651 58.9141 0Z" fill="#F28344"/>
<path d="M42.6668 3.07471C36.3929 25.543 62.0071 49.5485 55.6617 62.0607C58.9506 63.3656 62.5791 63.6516 64.7597 61.5066C64.7597 51.6041 58.6824 40.0572 53.4809 31.3344C48.2794 22.6116 42.8277 13.013 42.6668 3.07471Z" fill="#D96421"/>
<path d="M28.2773 16.7485C29.3141 38.055 58.4496 51.4609 56.5549 64.1339C59.7902 64.3127 63.0254 63.5262 64.3124 61.0417C61.4882 52.4261 52.8549 44.2217 45.8123 38.1086C38.7697 31.9955 31.2981 25.3819 28.2773 16.7485Z" fill="#F28344"/>
<path d="M15.7295 29.5464C23.5585 49.548 55.6434 52.9799 57.8956 65.6887C61.0415 64.8129 63.8657 63.0255 64.2947 60.237C58.843 52.9263 47.9753 47.8678 39.2704 44.2929C30.5655 40.718 21.3421 36.7677 15.7295 29.5464Z" fill="#D96421"/>
<path d="M11.3682 47.6895C24.4702 63.0258 53.999 56.1977 59.9155 66.7795C62.4358 64.992 64.3841 62.5968 63.9194 59.9871C56.7696 55.1788 45.6338 54.0349 36.8216 53.5165C28.0095 52.9982 18.5716 52.3547 11.3682 47.6895Z" fill="#F28344"/>
<path d="M20.4307 61.7746C33.6757 71.1409 55.3397 59.9871 62.0427 67.137C63.6693 65.3495 64.706 62.9901 63.8301 61.0596C57.3595 58.7002 48.4044 60.0229 41.4512 61.3635C34.498 62.7041 26.9728 63.991 20.4307 61.7746Z" fill="#D96421"/>
<path d="M57.0194 173.169C55.8575 178.424 54.6778 183.715 53.5338 188.97H24.8094C23.576 183.608 22.3427 178.102 21.1272 172.704C15.9257 149.467 11.4928 126.588 12.601 107.355C12.7083 105.567 12.8692 103.655 13.0837 101.849C13.5346 98.0318 15.0685 94.423 17.5041 91.4489C19.9397 88.4749 23.1754 86.2598 26.8292 85.0653C34.9676 82.3983 43.7541 82.461 51.8536 85.244C55.447 86.4732 58.6153 88.702 60.9867 91.6685C63.3581 94.6351 64.834 98.2165 65.2416 101.992C65.474 103.994 65.6528 106.014 65.76 108.088C66.7253 127.696 62.0779 150.307 57.0194 173.169Z" fill="#EDEDED"/>
<path d="M49.5304 220H28.7781C22.2181 220 17.231 215.192 18.3393 209.901L23.8982 183.089H54.4101L59.9691 209.901C61.0594 215.192 56.0904 220 49.5304 220Z" fill="#EDEDED"/>
<path d="M72.5345 56.144C70.9615 50.6029 25.6317 40.057 26.0606 91.0173C26.4539 95.5217 59.4325 115.434 60.8446 104.977C56.7334 58.8074 74.5007 83.6351 72.5345 56.144Z" fill="#EDEDED"/>
<path d="M59.8978 50.728C58.8242 52.5075 58.3052 54.5665 58.4071 56.6423C58.509 58.718 59.2271 60.7164 60.4698 62.3822C62.9901 65.6533 67.6196 68.8171 71.5163 67.5658C75.5023 59.9513 74.4656 49.0478 73.1965 40.5395C71.9274 32.0312 70.694 22.9152 74.5013 15.1934C63.7766 21.9678 66.8152 42.2555 63.7766 46.6884C62.3109 49.0121 61.4708 48.3507 59.8978 50.728Z" fill="#EDEDED"/>
<path d="M71.6951 59.7007C70.3009 56.9658 68.7638 54.3383 67.298 51.9967C62.7758 44.6682 58.0568 36.7676 58.5216 28.1699C52.0152 37.6971 60.3091 53.1049 61.1134 59.7007H71.6951Z" fill="#EDEDED"/>
<path d="M67.4236 59.7011L64.9748 57.3953C58.6294 51.5682 51.9442 45.2406 50.0674 36.8574C47.4399 44.5971 52.838 53.1769 57.0921 59.7011H67.4236Z" fill="#EDEDED"/>
<path d="M63.3295 63.1149C63.3295 64.6343 62.0604 62.3821 60.5411 62.3821C59.0217 62.3821 57.8242 64.6343 57.8242 63.1149C57.8242 62.3849 58.1142 61.6848 58.6305 61.1685C59.1467 60.6523 59.8468 60.3623 60.5769 60.3623C61.3069 60.3623 62.007 60.6523 62.5233 61.1685C63.0395 61.6848 63.3295 62.3849 63.3295 63.1149Z" fill="#3C3C3B"/>
<path d="M63.3288 71.0869C63.7757 73.786 62.4709 76.6816 60.5762 79.6309C65.9385 83.4204 71.3009 84.3141 76.2879 79.1305L76.6633 79.3628C74.3932 74.4473 66.7429 76.2527 63.3288 71.0869Z" fill="#3C3C3B"/>
<path d="M72.6776 64.1694C70.0029 67.0047 66.8353 69.3305 63.3291 71.0333C66.7431 76.199 74.3935 74.3937 76.6636 79.3092L78.451 80.3995C82.866 72.3202 78.9873 65.9211 72.6776 64.1694Z" fill="#575756"/>
<path d="M70.8186 71.1589C70.8186 71.8024 70.05 72.3208 69.0311 72.3208C68.0123 72.3208 67.333 71.8024 67.333 71.1589C67.333 70.5154 68.0838 69.9971 69.0311 69.9971C69.9785 69.9971 70.8186 70.5154 70.8186 71.1589Z" fill="#3C3C3B"/>
<path d="M47.3856 208.829L51.318 213.154C51.318 208.096 50.9784 203.055 50.4779 198.015C49.9636 191.707 48.7649 185.474 46.903 179.425C46.4547 180.5 45.619 181.368 44.5614 181.856C44.2978 181.961 44.0158 182.013 43.732 182.006C43.4482 182 43.1686 181.937 42.9099 181.82C42.6512 181.703 42.4188 181.535 42.2265 181.326C42.0342 181.118 41.886 180.872 41.7909 180.605C41.2725 183.286 37.7691 184.448 35.1951 183.536C32.715 182.356 30.6201 180.496 29.1535 178.174C28.3313 186.861 27.5031 195.548 26.6689 204.235L29.6004 200.91C29.654 204.401 29.9587 207.884 30.512 211.331C30.6193 212.082 30.8695 212.976 31.6023 213.119C32.3352 213.262 33.1039 212.511 33.5507 211.796L38.1624 204.432C38.7546 206.195 39.4407 207.925 40.2179 209.615C40.6298 210.454 41.2539 211.171 42.0284 211.695C42.8028 212.219 43.7007 212.531 44.633 212.6C46.6349 212.6 48.333 210.473 47.3856 208.829Z" fill="#F28344"/>
<path d="M22.1282 175.367C21.7886 174.491 21.449 173.579 21.1272 172.721C15.9257 149.485 11.4928 126.605 12.601 107.372C15.3472 116.446 17.1972 125.768 18.1243 135.203C18.3924 134.381 18.6784 133.558 18.9644 132.718C20.1669 139.085 20.3179 145.607 19.4112 152.023L20.6983 149.181C20.2444 157.935 20.7237 166.714 22.1282 175.367Z" fill="#D96421"/>
<path d="M57.0205 173.169C58.1287 160.299 57.9499 147.608 59.7732 134.81C60.0591 132.79 62.1147 129.859 62.4364 127.839C63.4732 120.993 64.4921 114.933 65.7433 108.177C66.7264 127.696 62.079 150.307 57.0205 173.169Z" fill="#D96421"/>
<path d="M24.9528 157.439C25.281 157.306 25.6325 157.241 25.9865 157.245C26.3405 157.25 26.6898 157.326 27.0144 157.467C27.3389 157.608 27.6321 157.813 27.8766 158.069C28.1211 158.325 28.312 158.628 28.4383 158.958C28.5408 159.55 28.5408 160.154 28.4383 160.746C28.1881 163.266 29.2069 165.715 29.6359 168.217C29.7423 168.57 29.7655 168.942 29.7034 169.305C29.6414 169.668 29.4958 170.012 29.2784 170.309C29.0093 170.523 28.6996 170.682 28.3678 170.774C28.0361 170.866 27.6892 170.89 27.3479 170.845C26.9845 170.889 26.6165 170.82 26.2934 170.648C26.0789 170.505 25.918 170.273 25.7214 170.112C25.6274 170.012 25.5029 169.945 25.3672 169.922C25.2315 169.9 25.0921 169.922 24.9707 169.987C25.3774 169.371 25.5251 168.62 25.3817 167.896C25.203 165.393 25.0243 162.873 24.8634 160.353C24.8614 159.998 24.7756 159.649 24.6131 159.334C24.4523 159.101 24.1841 158.923 24.0947 158.637C24.0053 158.351 24.3987 157.653 24.9528 157.439Z" fill="#575756"/>
<path d="M48.4042 157.439C48.7325 157.306 49.0839 157.241 49.4379 157.245C49.7919 157.25 50.1414 157.326 50.4659 157.467C50.7905 157.608 51.0835 157.813 51.328 158.069C51.5725 158.325 51.7635 158.628 51.8898 158.958C51.9837 159.55 51.9837 160.154 51.8898 160.746C51.6217 163.266 52.6405 165.715 53.0694 168.217C53.1743 168.569 53.1983 168.94 53.1395 169.302C53.0807 169.664 52.9406 170.008 52.7298 170.309C52.4592 170.521 52.1494 170.677 51.8181 170.769C51.4868 170.861 51.1406 170.887 50.7993 170.845C50.436 170.889 50.0679 170.82 49.7448 170.648C49.5359 170.484 49.3387 170.304 49.1549 170.112C49.0638 170.013 48.9425 169.947 48.8098 169.924C48.6772 169.902 48.5409 169.924 48.4221 169.987C48.8156 169.366 48.9562 168.617 48.8153 167.896L48.297 160.353C48.3031 159.997 48.2168 159.646 48.0467 159.334C47.8445 159.125 47.6703 158.89 47.5284 158.637C47.3854 158.136 47.868 157.653 48.4042 157.439Z" fill="#575756"/>
<path d="M78.4157 168.092H0V175.117H78.4157V168.092Z" fill="#E5D8C1"/>
<path d="M27.1159 166.126C26.8587 165.887 26.5367 165.729 26.1902 165.672C25.8437 165.615 25.4881 165.661 25.1677 165.804C24.841 165.96 24.5758 166.221 24.4139 166.545C24.252 166.868 24.2028 167.237 24.2739 167.592C24.399 168.182 24.8459 168.647 25.0246 169.218C25.3642 170.184 24.8995 171.256 24.8816 172.293C24.8816 174.634 27.1696 176.762 26.544 179.032C27.8191 175.803 28.2913 172.313 27.9203 168.861C27.9747 168.375 27.9316 167.882 27.7935 167.413C27.6554 166.943 27.425 166.506 27.1159 166.126Z" fill="#3C3C3B"/>
<path d="M31.4236 166.126C31.1664 165.887 30.8445 165.729 30.498 165.672C30.1515 165.615 29.7957 165.661 29.4753 165.804C29.1487 165.96 28.8834 166.221 28.7215 166.545C28.5596 166.868 28.5104 167.237 28.5815 167.592C28.7067 168.182 29.1536 168.647 29.3324 169.218C29.672 170.184 29.2072 171.256 29.1893 172.293C29.1893 174.634 31.4773 176.762 30.8516 179.032C32.1164 175.8 32.5884 172.312 32.228 168.861C32.2824 168.375 32.2394 167.882 32.1012 167.413C31.9631 166.943 31.7328 166.506 31.4236 166.126Z" fill="#3C3C3B"/>
<path d="M23.1296 166.126C22.8724 165.887 22.5504 165.729 22.2039 165.672C21.8574 165.615 21.5018 165.661 21.1813 165.804C20.8547 165.96 20.5894 166.221 20.4276 166.545C20.2657 166.868 20.2164 167.237 20.2876 167.592C20.4127 168.182 20.8596 168.647 21.0383 169.218C21.3779 170.184 20.9131 171.256 20.8953 172.293C20.8953 174.634 23.1832 176.762 22.5576 179.032C23.8224 175.8 24.2944 172.312 23.934 168.861C23.9884 168.375 23.9453 167.882 23.8072 167.413C23.6691 166.943 23.4387 166.506 23.1296 166.126Z" fill="#3C3C3B"/>
<path d="M54.2851 166.126C54.0294 165.891 53.7106 165.735 53.3678 165.678C53.0249 165.62 52.6729 165.665 52.3547 165.804C52.026 165.958 51.7588 166.218 51.5966 166.543C51.4343 166.867 51.3866 167.237 51.461 167.592C51.6706 168.152 51.9215 168.696 52.2117 169.219C52.5513 170.184 52.0865 171.256 52.0686 172.293C52.0686 174.635 54.3387 176.762 53.7131 179.032C54.9832 175.801 55.4614 172.314 55.1073 168.861C55.1583 168.373 55.1118 167.881 54.9706 167.411C54.8295 166.942 54.5965 166.505 54.2851 166.126Z" fill="#3C3C3B"/>
<path d="M58.5928 166.126C58.3371 165.891 58.0184 165.735 57.6755 165.678C57.3326 165.62 56.9805 165.665 56.6623 165.804C56.3336 165.958 56.0664 166.218 55.9042 166.543C55.7419 166.867 55.6942 167.237 55.7686 167.592C55.9782 168.152 56.2291 168.696 56.5193 169.219C56.8589 170.184 56.3942 171.256 56.3764 172.293C56.3764 174.635 58.6464 176.762 58.0208 179.032C59.291 175.801 59.769 172.314 59.415 168.861C59.4659 168.373 59.4195 167.881 59.2784 167.411C59.1372 166.942 58.9042 166.505 58.5928 166.126Z" fill="#3C3C3B"/>
<path d="M50.2988 166.126C50.0432 165.891 49.7244 165.735 49.3815 165.678C49.0387 165.62 48.6865 165.665 48.3683 165.804C48.0396 165.958 47.7726 166.218 47.6103 166.543C47.4481 166.867 47.4002 167.237 47.4746 167.592C47.6843 168.152 47.9352 168.696 48.2253 169.219C48.5649 170.184 48.1003 171.256 48.0824 172.293C48.0824 174.635 50.3524 176.762 49.7268 179.032C50.997 175.801 51.4751 172.314 51.1211 168.861C51.172 168.373 51.1255 167.881 50.9844 167.411C50.8432 166.942 50.6102 166.505 50.2988 166.126Z" fill="#3C3C3B"/>
<path d="M39.6992 158.083C40.7314 157.089 41.6055 155.944 42.291 154.686C42.5927 155.504 42.8434 156.34 43.0417 157.189C47.6102 153.053 50.7409 147.568 51.979 141.531C52.0489 146.214 51.0139 150.847 48.958 155.055C46.902 159.263 43.8831 162.928 40.146 165.751C39.8245 164.915 39.7141 164.012 39.8243 163.123C39.6419 163.988 39.2558 164.797 38.6982 165.483C37.9764 164.427 37.3082 163.335 36.6963 162.212C36.6445 163.227 36.2102 164.185 35.4808 164.893C34.5513 162.301 31.5662 161.103 29.9217 158.887C29.1178 157.765 28.5131 156.514 28.1343 155.187C26.6457 150.883 26.0378 146.324 26.3468 141.781C26.9243 146.392 28.8239 150.738 31.8164 154.293L32.585 151.272C33.7411 153.458 35.2104 155.464 36.9464 157.225C37.0553 156.254 37.4755 155.345 38.1441 154.633C38.1423 155.285 38.2801 155.931 38.5483 156.526C38.8165 157.121 39.2089 157.652 39.6992 158.083Z" fill="#F28344"/>
</g>
<defs>
<clipPath id="clip0_149_2753">
<rect width="80.3282" height="220" fill="white"/>
</clipPath>
</defs>
</svg>
