<svg width="305" height="220" viewBox="0 0 305 220" fill="none" xmlns="http://www.w3.org/2000/svg">
<g clip-path="url(#clip0_149_2814)">
<path d="M57.7222 76.1799C57.7222 76.1799 37.4492 62.2578 39.1386 42.7044C40.828 23.1509 66.7012 0.81301 66.7012 0.81301C64.1527 -0.0123452 61.4441 -0.218664 58.8 0.211142C56.1558 0.640948 53.6521 1.69451 51.4962 3.28457C48.4709 5.36775 46.096 8.26341 44.6449 11.6378V1.21971C40.2943 3.22239 36.502 6.26267 33.601 10.0735C30.9372 14.1541 28.8328 18.5734 27.3439 23.2135L25.2478 14.5786C20.331 19.0295 16.7277 24.7427 14.8297 31.0974C14.0534 35.6107 14.687 40.2536 16.6443 44.3938L7.5714 41.2652C7.5714 41.2652 3.75467 48.9615 8.85422 60.2869C12.3582 68.077 26.1237 77.4626 40.5776 79.0582C55.0315 80.6538 57.7222 76.1799 57.7222 76.1799Z" fill="#E5D8C1"/>
<path d="M201.917 133.871C209.519 162.967 242.964 207.017 246.249 207.33C256.104 208.206 266.084 214.807 265.489 217.498C264.77 220.626 246.718 220.345 242.682 219.031C238.646 217.717 171.945 149.295 171.945 149.295C171.945 149.295 199.758 125.737 201.917 133.871Z" fill="#CCB99A"/>
<path d="M111.408 105.494C109.594 112.784 99.3633 131.149 89.915 139.158C79.1215 148.324 61.758 152.642 57.2216 157.116C43.2682 171.069 66.6073 202.949 66.6073 204.044C66.6073 205.139 76.6187 207.642 78.0579 211.552C79.497 215.463 58.3479 212.991 55.845 210.489C53.3422 207.986 33.1318 157.866 35.6347 152.861C39.6143 145.37 42.6813 137.43 44.77 129.209C46.2074 120.2 48.6309 111.377 51.997 102.898C55.1255 96.2651 75.8991 87.6929 91.2916 89.4761C106.684 91.2594 113.723 96.2651 111.408 105.494Z" fill="#CCB99A"/>
<path d="M219.499 46.8656C215.979 44.5763 212.726 41.9004 209.801 38.8878C207.361 34.9022 205.715 30.483 204.951 25.873C202.231 29.1899 200.334 33.1027 199.414 37.2923C198.617 43.7827 199.91 50.3581 203.105 56.0636L219.499 46.8656Z" fill="#AE4501"/>
<path d="M275.626 45.3643C278.446 50.5134 279.195 56.5443 277.722 62.2272C277.34 63.8682 276.63 65.4152 275.635 66.7753C274.641 68.1354 273.382 69.2807 271.934 70.1424C271.934 70.1424 274.875 78.1828 272.216 80.1538C269.556 82.1248 249.909 86.7863 245.592 96.2659C241.274 105.745 238.083 124.83 231.075 135.373C224.067 145.916 194.033 172.915 161.214 172.915C127.739 172.915 87.8184 134.622 57.5965 133.402C39.9515 132.651 11.732 118.228 17.5511 105.714C23.3702 93.1999 36.3224 76.6498 53.3418 74.4285C70.3611 72.2073 144.57 96.3284 160.151 98.6748C175.731 101.021 192.093 100.552 197.944 88.0377C203.794 75.5235 192.938 63.3847 205.859 51.9029C218.78 40.4212 240.648 51.684 243.12 51.9029C245.591 52.1219 275.626 45.3643 275.626 45.3643Z" fill="#E5D8C1"/>
<path d="M185.398 122.139C185.398 122.139 199.007 150.609 207.297 156.928C215.588 163.248 236.174 159.713 240.961 162.028C245.747 164.343 256.979 183.615 256.385 188.933C255.79 194.252 251.41 201.448 248.939 201.103C246.467 200.759 241.274 195.222 241.649 191.999C242.024 188.777 243.557 182.614 241.18 179.704C240.131 178.317 238.805 177.165 237.286 176.319C235.767 175.473 234.088 174.953 232.357 174.792C228.791 174.386 202.605 183.427 196.535 182.77C190.466 182.113 176.45 169.036 172.883 168.629C169.317 168.222 185.398 122.139 185.398 122.139Z" fill="#E5D8C1"/>
<path d="M84.628 112.034C82.8135 119.323 80.4984 141.036 68.9853 145.697C57.4722 150.359 27.2816 156.96 22.8077 161.34C8.8231 175.325 10.7942 207.173 10.7942 208.268C10.7942 209.363 20.8368 211.866 22.2759 215.808C23.7151 219.75 5.06892 219.75 2.56609 217.247C0.0632401 214.744 -1.18826 162.091 1.31458 157.085C5.29441 149.606 8.36145 141.675 10.4499 133.464C11.9211 124.453 14.3437 115.623 17.6769 107.122C20.8054 100.521 41.6104 91.9173 57.0028 93.7005C72.3953 95.4838 86.7868 102.711 84.628 112.034Z" fill="#E5D8C1"/>
<path d="M211.115 48.6485C206.471 47.2941 202.084 45.1797 198.131 42.3914C194.712 38.7727 191.691 34.7975 189.121 30.5342C189.121 30.5342 184.71 37.855 186.931 51.2139C188.569 58.6911 192.972 65.2731 199.257 69.6411C204.05 65.7839 207.955 60.9394 210.708 55.4375C211.14 53.2021 211.277 50.9195 211.115 48.6485Z" fill="#E5D8C1"/>
<path d="M238.207 54.8123C239.552 59.0045 236.799 72.7076 230.416 78.996C224.034 85.2844 212.99 86.7235 208.517 80.5915C204.043 74.4596 210.237 60.6001 217.151 55.5631C224.066 50.5261 236.423 49.3999 238.207 54.8123Z" fill="#CC6825"/>
<path d="M231.669 60.6005C231.263 62.0709 228.541 60.7882 225.631 60.6005C222.396 60.9664 219.394 62.462 217.153 64.8241C217.783 63.233 218.776 61.8107 220.053 60.6703C221.329 59.5298 222.853 58.7026 224.505 58.2541C227.571 57.7222 232.264 58.1915 231.669 60.6005Z" fill="#251100"/>
<path d="M276.501 44.5503C278.117 46.4789 279.196 48.7988 279.63 51.2767C279.411 52.7784 279.317 56.1573 278.597 56.0634C277.878 55.9695 277.565 49.994 276.251 50.9639C274.937 51.9337 278.034 55.1248 277.44 55.5628C276.845 56.0008 272.372 52.6533 272.059 51.1203C271.746 49.5873 274.749 44.2688 276.501 44.5503Z" fill="#251100"/>
<path d="M251.347 75.6481H253.412C259.97 75.2624 266.37 73.4812 272.184 70.4234L271.933 69.9541C266.233 72.9515 259.964 74.7106 253.537 75.1162C243.901 75.4291 241.023 73.4894 240.679 72.3005H240.147C240.366 74.0212 243.526 75.6481 251.347 75.6481Z" fill="#251100"/>
<path d="M240.086 71.863C240.05 72.1443 240.124 72.4287 240.293 72.6562C240.462 72.8838 240.713 73.0369 240.993 73.0832C241.133 73.1037 241.275 73.0965 241.412 73.0621C241.549 73.0276 241.678 72.9665 241.791 72.8822C241.904 72.798 242 72.6922 242.072 72.571C242.145 72.4498 242.193 72.3156 242.213 72.1759C242.234 72.0362 242.227 71.8938 242.192 71.7569C242.158 71.62 242.097 71.4912 242.012 71.3779C241.928 71.2646 241.822 71.169 241.701 71.0966C241.58 71.0241 241.446 70.9763 241.306 70.9557C241.025 70.9195 240.74 70.9939 240.513 71.1631C240.285 71.3323 240.132 71.5832 240.086 71.863Z" fill="#251100"/>
<path d="M237.488 124.486C229.249 121.589 221.44 117.589 214.274 112.597C206.227 106.813 199.901 98.9516 195.972 89.8525L191.342 94.4828C191.342 94.4828 195.065 105.996 209.738 117.697C217.436 123.515 226.026 128.047 235.173 131.118L237.488 124.486Z" fill="#251100"/>
<path d="M294.75 61.5214L297.018 70.3711L236.131 85.97L233.864 77.1203L294.75 61.5214Z" fill="#009BDC"/>
<path d="M295.992 74.9294C291.206 74.9294 287.326 71.0494 287.326 66.2633C287.326 61.4771 291.206 57.5972 295.992 57.5972C300.778 57.5972 304.658 61.4771 304.658 66.2633C304.658 71.0494 300.778 74.9294 295.992 74.9294Z" fill="#009BDC"/>
<path d="M243.527 79.6841C243.95 81.3448 243.871 83.0936 243.3 84.7095C242.729 86.3254 241.692 87.7358 240.32 88.7624C238.948 89.789 237.302 90.3857 235.591 90.4771C233.88 90.5685 232.18 90.1505 230.706 89.2758C229.232 88.4012 228.051 87.1093 227.311 85.5634C226.572 84.0175 226.307 82.287 226.551 80.5907C226.795 78.8943 227.536 77.3084 228.681 76.0333C229.826 74.7582 231.323 73.8512 232.983 73.427C234.087 73.1451 235.235 73.0834 236.362 73.2453C237.489 73.4073 238.573 73.7898 239.552 74.3708C240.531 74.9519 241.386 75.7203 242.068 76.6319C242.75 77.5436 243.246 78.5807 243.527 79.6841Z" fill="#009BDC"/>
<path d="M278.223 60.9436C278.338 63.0188 277.845 65.0825 276.806 66.8826C275.768 68.6827 274.227 70.1413 272.373 71.0801C265.928 74.2086 244.216 74.4276 244.216 74.4276C244.216 74.4276 253.851 62.8833 260.953 58.7849C268.055 54.6865 277.222 56.4072 278.223 60.9436Z" fill="#E5D8C1"/>
<path d="M213.493 48.774C213.493 48.774 202.074 44.5504 198.101 40.7962C194.928 37.5805 191.931 34.1968 189.122 30.6597C191.088 35.7053 193.485 40.5725 196.286 45.2075C198.739 47.8623 201.614 50.0929 204.796 51.8087C205.296 52.497 197.631 52.2154 197.631 52.2154L205.015 54.468L200.228 58.1909L205.672 56.5015V63.2592C207.892 61.2645 209.727 58.8784 211.084 56.22C212.191 53.8469 213.001 51.3459 213.493 48.774Z" fill="#CC6825"/>
</g>
<defs>
<clipPath id="clip0_149_2814">
<rect width="304.659" height="220" fill="white" transform="matrix(-1 0 0 1 304.658 0)"/>
</clipPath>
</defs>
</svg>
