<svg width="152" height="180" viewBox="0 0 152 180" fill="none" xmlns="http://www.w3.org/2000/svg">
<g clip-path="url(#clip0_149_2734)">
<path d="M56.6811 169.17C57.3424 172.324 49.3326 176.504 38.9959 178.802C28.6591 181.1 19.596 180.147 18.9347 176.993C18.2733 173.84 26.2831 169.537 36.6199 167.361C46.9566 165.186 55.8972 166.017 56.6811 169.17Z" fill="#ECA982"/>
<path d="M128.425 171.224C128.425 174.304 121.322 176.382 111.132 175.746C101.775 175.16 94.1328 173.302 94.1328 170.172C94.1328 167.043 101.751 164.574 111.132 164.574C120.514 164.574 128.425 168.119 128.425 171.224Z" fill="#CCB99A"/>
<path d="M117.378 96.6373C122.032 101.893 124.065 107.736 121.885 109.643C119.705 111.55 114.169 108.836 109.49 103.58C104.812 98.3241 102.803 92.4569 104.983 90.5501C107.163 88.6432 112.699 91.3568 117.378 96.6373Z" fill="#CCB99A"/>
<path d="M4.75209 50.3843C3.63341 49.3383 2.68326 48.1261 1.93521 46.7907C1.18839 45.4431 0.643692 43.9934 0.318553 42.4881C-0.28701 39.4198 0.0195398 36.2417 1.2004 33.3451C2.36527 30.4509 4.02265 27.7795 6.09935 25.4488C8.20887 23.0984 10.7434 21.166 13.5702 19.7528C16.4855 18.3151 19.7331 17.682 22.9762 17.9193C26.2059 18.251 29.3071 19.3582 32.0147 21.1462C33.3718 21.9926 34.6505 22.958 35.8359 24.0309C37.0703 25.1655 38.1199 26.4851 38.9468 27.9424C39.3443 28.7333 39.688 29.55 39.9755 30.387C40.2521 31.1839 40.4651 32.0013 40.6124 32.8317C40.9006 34.4445 41.0074 36.0845 40.9309 37.721C40.7177 40.9049 40.1088 44.05 39.1182 47.084C38.1678 50.0389 37.0473 52.9365 35.7624 55.7626C34.4887 58.5495 33.313 61.2875 32.1617 64.0255C31.05 66.7417 30.1413 69.5362 29.4428 72.3862C28.7275 75.1231 28.3815 77.9431 28.414 80.7714C28.4422 83.4609 29.0259 86.1157 30.1287 88.5698C31.2994 90.9715 32.9695 93.0966 35.0276 94.8037C37.1567 96.5678 39.5127 98.0395 42.0331 99.1796L42.2535 99.3263C43.4782 100.06 44.703 100.818 46.0992 101.527L50.0673 103.629C52.7373 105.022 55.4317 106.318 58.1506 107.565C63.5721 110.061 69.1241 112.264 74.7826 114.165C80.3756 116.054 86.1087 117.501 91.9289 118.492L93.0067 118.688L94.0844 118.835L96.24 119.104L98.3955 119.299L100.453 119.446H100.771H101.237H102.192C102.854 119.446 103.539 119.275 104.201 119.152C105.548 118.908 106.895 118.615 108.242 118.248C110.909 117.482 113.5 116.476 115.983 115.241C116.62 114.923 117.232 114.63 117.844 114.288L118.751 113.774L119.216 113.505L120 113.09C120.967 112.628 121.976 112.259 123.013 111.99C123.978 111.732 124.96 111.544 125.952 111.427C127.98 111.209 130.029 111.308 132.027 111.721C134.203 112.154 136.26 113.05 138.056 114.35C139.853 115.65 141.347 117.321 142.437 119.25C143.438 121.039 144.164 122.967 144.593 124.971C145.064 127.082 145.131 129.264 144.788 131.4C144.416 133.553 143.643 135.618 142.51 137.487C141.47 139.178 140.219 140.731 138.787 142.108C137.463 143.354 136.047 144.498 134.55 145.53C131.763 147.42 128.812 149.056 125.732 150.42C122.743 151.789 119.73 152.864 116.718 154.013L113.019 142.89C115.787 142.034 118.53 141.081 121.127 140.005C123.679 138.991 126.138 137.756 128.475 136.314C130.449 135.126 132.171 133.565 133.545 131.718C134.047 130.99 134.396 130.17 134.573 129.304C134.75 128.439 134.75 127.547 134.574 126.682C134.484 126.167 134.353 125.66 134.182 125.166C134.048 124.709 133.867 124.267 133.643 123.846C133.458 123.462 133.228 123.101 132.958 122.771C132.718 122.458 132.438 122.178 132.125 121.939C131.445 121.407 130.66 121.024 129.822 120.815C128.838 120.57 127.82 120.487 126.809 120.57C126.282 120.606 125.758 120.679 125.242 120.79C124.799 120.885 124.365 121.016 123.944 121.182H123.723L123.16 121.475L122.057 122.037C121.323 122.428 120.563 122.771 119.804 123.113C116.773 124.471 113.625 125.552 110.398 126.34C108.783 126.744 107.148 127.062 105.499 127.293L103.049 127.562H101.751H100.184L97.7341 127.293L95.2847 126.975C94.4763 126.975 93.6925 126.731 92.8352 126.584L91.6595 126.389L90.4836 126.144C84.31 124.859 78.2489 123.085 72.3576 120.839C66.5053 118.652 60.7808 116.138 55.2112 113.31C52.4433 111.916 49.6999 110.474 47.0055 108.934C45.6665 108.168 44.3193 107.353 42.9639 106.489C41.6412 105.682 40.3429 104.9 38.9712 104.044L39.2897 104.24C36.3132 102.763 33.5525 100.888 31.0839 98.6663C28.5437 96.3662 26.5371 93.5404 25.2045 90.3863C23.8718 87.2321 23.245 83.8256 23.3681 80.4047C23.4509 77.1595 23.9532 73.9385 24.8623 70.8216C26.7722 64.9014 29.2324 59.1723 32.2107 53.709C33.5535 51.0706 34.7315 48.3519 35.738 45.5683C36.7425 42.8584 37.4008 40.0329 37.6975 37.1587C38.0288 34.4117 37.5878 31.6269 36.4238 29.1158C35.7974 27.8944 34.9693 26.7869 33.9744 25.84C32.9541 24.8231 31.8386 23.9063 30.643 23.102C28.3324 21.4232 25.638 20.3476 22.8048 19.9728C19.9601 19.6517 17.0815 20.1079 14.4765 21.2929C11.797 22.4965 9.37645 24.2067 7.34853 26.3289C5.24812 28.4694 3.52556 30.949 2.25366 33.6628C0.958956 36.3431 0.481968 39.344 0.881958 42.2925C1.10866 43.7791 1.56301 45.222 2.22914 46.5707C2.86777 47.9643 3.71884 49.2507 4.75209 50.3843Z" fill="#CCB99A"/>
<path d="M83.0852 -0.0488281C83.0852 -0.0488281 71.9155 8.38525 78.5291 20.0218C79.2353 21.5123 80.2586 22.8312 81.5277 23.8867C82.7968 24.9422 84.2812 25.709 85.8775 26.1334C89.0863 26.6713 94.4751 28.2603 94.5976 16.477C94.7201 13.6901 94.8916 5.20718 83.0852 -0.0488281Z" fill="#AE4501"/>
<path d="M148.218 14.8147C138.567 21.3664 133.252 21.6842 128.28 20.2663C113.093 15.9148 107.998 14.3991 90.8763 18.3594L89.2106 18.775C88.8187 17.8461 88.4022 16.8438 87.8878 15.7681C86.0997 12.1011 80.9314 1.10016 62.3644 1.88245C62.3644 1.88245 54.1831 18.1883 67.2633 29.0671C55.8867 36.9596 45.5718 46.2765 36.5714 56.7894C11.5378 85.0008 6.71231 122.184 15.0405 142.89C30.6682 181.785 65.4507 175.942 85.4629 174.475C111.991 172.568 117.845 156.605 120.956 145.604C124.973 131.425 115.861 114.165 109.762 105.829C100.307 92.8726 109.958 87.0543 114.416 83.4851C139.572 63.3411 141.36 56.056 144.985 46.4241C148.341 37.1588 148.218 14.8147 148.218 14.8147Z" fill="#CC6825"/>
<path d="M16.7793 97.0041C18.5919 102.431 22.1192 110.499 29.0267 110.279C33.7728 109.709 38.1376 107.4 41.2741 103.8C45.3157 99.6688 43.3807 91.4303 46.8344 86.8832C50.2882 82.3361 59.89 83.0451 63.9807 79.1581C68.2045 75.417 70.928 70.276 71.6475 64.6857C72.3824 53.9292 63.6133 43.8328 53.35 41.6082C52.9114 41.5169 52.5003 41.3244 52.1497 41.0459C46.7134 46.0081 41.5537 51.2638 36.6936 56.7895C27.2685 67.4309 20.1766 79.9214 15.873 93.4593C16.0445 94.6817 16.4119 95.8551 16.7793 97.0041Z" fill="#E5D8C1"/>
<path d="M86.075 28.6516C86.5094 28.6805 86.9314 28.8078 87.3091 29.0238C87.6869 29.2399 88.0104 29.5389 88.2551 29.8984C94.8441 31.7807 100.502 26.6225 104.422 21.8799C105.899 20.0508 107.249 18.1232 108.463 16.1105C102.493 16.0601 96.5443 16.8167 90.7779 18.3596L89.1123 18.7752C88.7204 17.8462 88.304 16.8439 87.7897 15.7683C86.0505 12.1746 81.0291 1.5159 63.2949 1.85815C63.6367 7.8025 66.1255 13.4218 70.3004 17.6751C71.9553 18.8645 73.5418 20.1459 75.0524 21.5132C77.8094 23.1273 80.4602 24.9155 82.9886 26.867C83.3087 26.7715 83.6451 26.7424 83.9769 26.7814C84.3087 26.8204 84.6289 26.9268 84.918 27.094C85.2071 27.2611 85.4589 27.4855 85.6579 27.7534C85.8568 28.0213 85.9988 28.3269 86.075 28.6516Z" fill="#E5D8C1"/>
<path d="M135.923 31.7315C126.419 42.7569 114.71 51.631 103.492 60.8962C92.2732 70.1615 81.0301 78.5711 70.7178 88.3497C61.2132 96.838 53.6883 107.302 48.6726 119.006C42.6469 134.309 40.6874 154.82 49.9709 169.048C50.8436 170.253 51.8276 171.375 52.9102 172.397C54.0124 173.326 55.1637 174.206 56.3394 175.086L56.4865 175.208C66.0894 175.875 75.7339 175.638 85.2922 174.499C111.82 172.593 117.674 156.629 120.785 145.628C124.802 131.449 115.69 114.19 109.591 105.853C100.136 92.8968 109.787 87.0785 114.245 83.5093C139.401 63.3653 141.189 56.0803 144.814 46.4483C147.876 38.161 148.072 19.4104 148.097 15.5479C148.219 15.5234 139.23 27.8689 135.923 31.7315Z" fill="#E5D8C1"/>
<path d="M86.8825 120.326C86.8825 127.439 83.6737 133.209 79.6811 133.209C75.6884 133.209 72.4551 129.273 72.4551 122.183C72.4551 115.094 76.8152 106.513 80.7833 106.513C84.7515 106.513 86.8825 113.212 86.8825 120.326Z" fill="#CCB99A"/>
<path d="M151.45 9.46083C151.67 10.7723 151.445 12.1198 150.811 13.2891C150.176 14.4584 149.168 15.3826 147.947 15.9147C147.384 15.768 146.526 11.5388 145.767 9.63197C145.008 7.72514 147.286 6.60059 148.486 6.60059C149.248 6.6234 149.974 6.92924 150.522 7.45824C151.071 7.98725 151.401 8.70135 151.45 9.46083Z" fill="#251100"/>
<path d="M117.307 23.3706C116.376 24.2996 119.756 28.8711 118.017 27.0376C116.278 25.2041 115.568 22.9795 116.401 22.1483C117.234 21.3171 119.561 21.9527 121.3 23.7618C123.039 25.5708 118.238 22.4417 117.307 23.3706Z" fill="#251100"/>
<path d="M63.4411 4.20508C63.4411 4.20508 60.1098 14.5704 66.3069 22.8578C67.8256 24.8624 70.3976 29.8251 74.5127 28.725C76.8153 28.0894 79.877 26.1581 84.0656 28.1627C85.0699 28.6516 88.0092 30.2162 88.0092 30.2162C88.0092 30.2162 89.4299 22.0022 80.5138 11.539C77.501 8.01874 73.9493 4.84069 63.4411 4.20508Z" fill="#CCB99A"/>
<path d="M56.6811 169.17C57.3424 172.324 49.3326 176.504 38.9959 178.802C28.6591 181.1 19.596 180.147 18.9347 176.993C18.2733 173.84 26.2831 169.537 36.6199 167.361C46.9566 165.186 55.8972 166.017 56.6811 169.17Z" fill="#CCB99A"/>
<path d="M117.378 96.6373C122.032 101.893 124.065 107.736 121.885 109.643C119.705 111.55 114.169 108.836 109.49 103.58C104.812 98.3241 102.803 92.4569 104.983 90.5501C107.163 88.6432 112.699 91.3568 117.378 96.6373Z" fill="#CCB99A"/>
<path d="M86.8825 120.326C86.8825 127.439 83.6737 133.209 79.6811 133.209C75.6884 133.209 72.4551 129.273 72.4551 122.183C72.4551 115.094 76.8152 106.513 80.7833 106.513C84.7515 106.513 86.8825 113.212 86.8825 120.326Z" fill="#CCB99A"/>
</g>
<defs>
<clipPath id="clip0_149_2734">
<rect width="151.475" height="180" fill="white"/>
</clipPath>
</defs>
</svg>
