<svg width="248" height="220" viewBox="0 0 248 220" fill="none" xmlns="http://www.w3.org/2000/svg">
<g clip-path="url(#clip0_149_2690)">
<path d="M66.8293 172.908C66.8293 172.908 38.0921 172.588 21.4884 163.464C-1.37355 150.818 -3.80028 115.251 4.08647 91.3361C10.8876 70.7511 31.6742 52.1189 50.2575 46.9327C60.0282 44.1795 66.6377 46.5485 67.8191 50.7743C68.809 54.456 64.6261 57.3372 57.6334 59.4501C43.9673 63.5159 24.2983 81.0595 19.3172 97.6748C14.3361 114.29 15.1024 137.724 28.4492 144.447C41.796 151.17 72.002 143.615 72.002 143.615L66.8293 172.908Z" fill="#CC6825"/>
<path d="M198.285 144.191C205.56 144.457 212.845 144.254 220.094 143.582C227.15 141.565 237.24 149.665 233.312 149.665C229.385 149.665 228.172 162.855 230.918 165.672C233.664 168.489 248.863 157.636 247.617 152.098C245.318 141.662 241.231 128.504 234.845 127.639C224.883 126.295 207.577 115.922 207.577 117.363C207.577 118.804 198.285 144.191 198.285 144.191Z" fill="#AE4501"/>
<path d="M148.155 39.2171C152.317 34.9314 157.044 31.2369 162.205 28.2363C168.591 25.0349 177.754 20.9051 185.833 22.8259C193.911 24.7468 203.714 39.025 204.991 43.8271C205.824 48.2141 206.145 52.6834 205.949 57.1449C205.949 60.3463 216.518 69.6624 219.615 88.5507C221.039 100.054 219.281 111.729 214.533 122.298C209.786 132.867 202.233 141.925 192.698 148.481C173.54 161.03 133.882 201.112 103.868 200.343C73.8538 199.575 59.4851 179.726 65.041 153.315C70.5968 126.903 146.942 94.1531 151.731 86.8219C156.521 79.4907 137.778 49.6216 148.155 39.2171Z" fill="#CC6825"/>
<path d="M193.433 103.246C201.958 103.534 206.844 123.766 201.799 134.619C196.754 145.472 180.437 163.816 175.265 175.661C170.092 187.506 167.761 198.231 170.347 198.231C172.934 198.231 179.926 199.672 181.044 203.129C182.162 206.587 182.194 209.212 180.15 209.212C178.107 209.212 162.972 210.3 160.162 207.483C157.352 204.666 156.969 193.301 156.969 185.489C156.969 177.678 164.76 156.325 165.782 146.464C166.835 137.661 153.361 101.965 193.433 103.246Z" fill="#CC6825"/>
<path d="M174.881 23.1141C174.881 23.1141 186.216 0 186.982 0C187.749 0 190.75 8.67582 191.133 10.7887C192.442 13.5818 193.593 16.4462 194.582 19.3685C195.348 23.3062 194.869 28.2363 193.432 28.2363C191.995 28.2363 174.881 23.8824 174.881 23.1141Z" fill="#FFCE9F"/>
<path d="M177.148 52.599C177.148 52.599 172.997 54.6479 173.444 55.4802C174.583 56.631 176.083 57.3543 177.691 57.5292C178.329 57.177 175.519 55.032 176.158 54.6799C176.797 54.3277 178.872 57.8813 179.734 57.3371C180.596 56.7929 178.808 53.2393 179.447 52.8871C180.085 52.535 180.341 56.0885 180.979 55.7043C181.718 54.252 181.911 52.5814 181.522 50.9983C181.075 50.1979 177.148 52.599 177.148 52.599Z" fill="#161616"/>
<path d="M167.314 49.494C167.314 50.6465 165.047 50.4545 162.972 51.1267C160.738 52.2318 158.963 54.0906 157.959 56.377C158.006 55.0593 158.359 53.7708 158.991 52.6146C159.623 51.4584 160.516 50.4664 161.599 49.7181C163.483 48.5015 167.123 47.6052 167.314 49.494Z" fill="#161616"/>
<path d="M179.575 42.2903C180.597 42.8346 181.331 40.5616 182.768 38.8969C184.629 37.2387 187.016 36.297 189.505 36.2397C188.276 35.7841 186.958 35.6221 185.655 35.7666C184.353 35.9111 183.102 36.3581 182.001 37.072C180.086 38.3846 177.883 41.3939 179.575 42.2903Z" fill="#161616"/>
<path d="M174.562 67.9659C173.843 67.924 173.146 67.6993 172.537 67.3129C171.928 66.9265 171.427 66.391 171.082 65.7569C171.023 65.6423 171.011 65.5089 171.05 65.3858C171.089 65.2627 171.175 65.1601 171.289 65.1007C171.404 65.0413 171.537 65.0298 171.66 65.0688C171.782 65.1079 171.885 65.1942 171.944 65.3088C172.295 66.0107 172.905 66.5474 173.644 66.8046C174.384 67.0617 175.195 67.019 175.903 66.6854C180.054 64.7005 179.288 57.4654 179.096 57.4013V56.505L179.895 56.9212C179.895 56.9212 185.929 59.8344 189.921 58.0096C192.028 57.0172 190.559 53.4637 190.559 53.4316C190.504 53.317 190.497 53.1851 190.539 53.0651C190.581 52.945 190.668 52.8466 190.783 52.7913C190.841 52.7651 190.904 52.7509 190.969 52.7496C191.033 52.7483 191.097 52.7599 191.156 52.7838C191.216 52.8077 191.27 52.8434 191.316 52.8886C191.361 52.9339 191.397 52.9879 191.421 53.0474C191.421 53.2395 193.273 57.5294 190.304 58.874C186.966 59.9184 183.356 59.6436 180.214 58.1057C180.214 60.1866 180.214 65.6609 176.286 67.5497C175.746 67.805 175.159 67.9467 174.562 67.9659Z" fill="#161616"/>
<path d="M173.251 65.2128C173.251 65.4471 173.182 65.6761 173.052 65.8709C172.923 66.0657 172.738 66.2175 172.522 66.3071C172.306 66.3968 172.069 66.4203 171.84 66.3745C171.61 66.3288 171.4 66.216 171.235 66.0504C171.069 65.8847 170.957 65.6736 170.911 65.4439C170.866 65.2141 170.889 64.9759 170.979 64.7595C171.068 64.543 171.219 64.358 171.414 64.2279C171.608 64.0977 171.836 64.0283 172.07 64.0283C172.226 64.0239 172.382 64.0514 172.527 64.1094C172.673 64.1673 172.805 64.2545 172.915 64.3654C173.026 64.4762 173.113 64.6086 173.17 64.7543C173.228 64.9 173.256 65.056 173.251 65.2128Z" fill="#251100"/>
<path d="M191.613 53.5917C191.613 53.826 191.543 54.055 191.414 54.2498C191.284 54.4446 191.099 54.5964 190.883 54.6861C190.668 54.7757 190.43 54.7992 190.201 54.7535C189.972 54.7078 189.761 54.595 189.596 54.4293C189.431 54.2636 189.318 54.0526 189.273 53.8228C189.227 53.593 189.251 53.3549 189.34 53.1384C189.429 52.922 189.581 52.737 189.775 52.6068C189.969 52.4767 190.198 52.4072 190.431 52.4072C190.742 52.4153 191.038 52.5427 191.258 52.7631C191.478 52.9836 191.605 53.2801 191.613 53.5917Z" fill="#251100"/>
<path d="M186.982 0C187.025 2.6113 186.536 5.20391 185.545 7.61934C183.917 11.461 180.053 20.1368 180.053 20.1368L186.439 14.4063C186.439 14.4063 180.053 23.4983 180.756 22.922C182.587 21.3819 184.591 20.0605 186.727 18.9843C185.538 20.6499 184.225 22.223 182.799 23.6904L187.11 25.259L182.416 26.5076L174.338 23.3062C174.338 23.3062 184.683 0 186.982 0Z" fill="#CC6825"/>
<path d="M168.176 114.418C168.176 114.418 156.745 152.386 152.913 162.791C149.082 173.196 149.72 194.805 149.72 198.743C149.72 202.68 155.308 201.336 156.458 207.515C157.607 213.693 150.774 213.277 146.272 213.277C142.313 213.277 138.768 208.859 138.768 203.449C138.768 198.038 136.661 181.039 136.661 173.964C136.661 166.889 143.59 153.347 141.259 145.151C138.928 136.956 130.115 131.866 130.115 119.892C130.115 107.919 170.667 92.3603 168.176 114.418Z" fill="#E8CEAB"/>
<path d="M168.176 114.418C168.176 114.418 156.745 152.386 152.913 162.791C149.082 173.196 149.72 194.805 149.72 198.743C149.72 202.68 155.308 201.336 156.458 207.515C157.607 213.693 150.774 213.277 146.272 213.277C142.313 213.277 138.768 208.859 138.768 203.449C138.768 198.038 136.661 181.039 136.661 173.964C136.661 166.889 143.59 153.347 141.259 145.151C138.928 136.956 130.115 131.866 130.115 119.892C130.115 107.919 170.667 92.3603 168.176 114.418Z" fill="#CCB99A"/>
<path d="M134.202 212.733C134.074 210.733 133.286 208.833 131.962 207.332C130.638 205.831 128.854 204.814 126.89 204.441C118.633 202.97 110.295 202.007 101.92 201.56L69.9903 205.146C69.9903 205.146 68.9685 213.117 74.9394 214.75C80.9103 216.383 134.202 212.733 134.202 212.733Z" fill="#CCB99A"/>
<path d="M113.225 24.0105C108.706 21.7647 104.324 19.2525 100.102 16.4872C96.5895 13.798 92.8536 12.2293 92.0554 13.0937C91.2006 18.3171 91.5835 23.6689 93.1731 28.7165C95.9311 32.8766 99.7744 36.1985 104.285 38.3207C105.722 38.5128 113.289 25.0669 113.225 24.0105Z" fill="#CCB99A"/>
<path d="M69.9269 171.243C75.5466 160.934 90.1068 145.791 106.072 154.659C122.037 163.527 120.025 188.626 108.562 200.119C97.0994 211.612 90.2983 213.437 75.6743 213.437C61.0503 213.437 60.1243 189.17 69.9269 171.243Z" fill="#E5D8C1"/>
<path d="M131.998 217.694C131.872 215.699 131.088 213.803 129.77 212.302C128.453 210.801 126.676 209.782 124.718 209.403C116.45 207.932 108.101 206.97 99.7167 206.521L67.7866 210.107C67.7866 210.107 66.7328 218.079 72.7037 219.711C78.6747 221.344 131.998 217.694 131.998 217.694Z" fill="#E5D8C1"/>
<path d="M162.909 128.696C163.867 126.487 164.729 124.31 165.528 122.293L165.815 121.557C168.798 114.453 170.432 106.853 170.636 99.1474C169.774 72.9919 148.285 52.8871 148.285 51.4465C148.285 50.0058 154.065 39.1532 154.065 34.7032C154.245 32.4682 153.732 30.2321 152.596 28.3004C152.596 28.3004 152.596 20.2649 151.447 19.0484C151.447 19.0484 140.782 18.7602 136.471 16.4552C132.161 14.1502 117.728 11.8132 109.65 22.2178C101.572 32.6223 97.8357 44.6276 101.572 57.209C105.307 69.7905 109.937 83.5245 103.871 89.5751C97.8039 95.6258 61.2119 100.844 53.7083 135.835C50.1975 151 49.5262 166.686 51.7286 182.096C48.7272 184.112 38.9567 190.771 30.6868 172.651C22.4169 154.531 33.1773 119.252 40.2658 98.8272C47.3543 78.4023 42.5967 55.9285 38.2862 47.4128C33.337 37.5525 23.1192 35.8237 19.7985 39.1852C16.4777 42.5466 16.3182 48.7894 21.6824 58.3935C27.0467 67.9977 28.0685 78.7544 23.726 93.6089C19.3835 108.463 3.54599 149.505 12.7738 178.03C22.0016 206.554 53.9 214.238 61.9783 206.138C64.4854 209.068 67.6321 211.379 71.1742 212.893C89.3424 220.544 111.087 209.371 130.117 184.913C130.692 192.948 131.905 203.801 131.905 207.899C131.905 213.277 135.45 217.727 139.409 217.727C143.943 217.727 150.744 218.111 149.595 211.932C148.445 205.754 142.857 207.034 142.857 203.161C142.857 199.287 144.23 177.549 148.062 167.209C150.52 159.558 158.535 139.549 162.909 128.696Z" fill="#E5D8C1"/>
<path d="M151.348 18.3765C150.646 18.0243 147.453 20.4894 147.453 21.3537C147.453 22.2181 149.72 24.5552 150.199 24.139C150.678 23.7228 149.113 22.1541 149.401 21.834C149.688 21.5138 151.508 24.8113 152.115 24.203C152.721 23.5948 153.552 19.4649 151.348 18.3765Z" fill="#161616"/>
<path d="M131.617 24.7788C132.064 25.8353 129.765 26.4115 128.009 27.6921C126.194 29.4246 125.06 31.754 124.816 34.255C124.452 32.9901 124.387 31.6575 124.625 30.3629C124.863 29.0682 125.399 27.847 126.189 26.7957C127.69 24.7788 130.851 22.922 131.617 24.7788Z" fill="#161616"/>
<path d="M145.28 36.272C144.163 36.2988 143.06 36.0222 142.087 35.4716C142.045 35.4299 142.011 35.3801 141.988 35.3251C141.965 35.2702 141.953 35.2111 141.953 35.1515C141.953 35.0919 141.965 35.0328 141.988 34.9779C142.011 34.9229 142.045 34.8731 142.087 34.8314C142.175 34.7526 142.289 34.7091 142.407 34.7091C142.524 34.7091 142.638 34.7526 142.726 34.8314C143.642 35.3085 144.671 35.5249 145.701 35.4572C146.731 35.3895 147.723 35.0402 148.569 34.4472C150.483 32.9352 151.751 30.7486 152.113 28.3325C152.117 28.2706 152.134 28.2101 152.162 28.155C152.19 28.0998 152.23 28.0511 152.278 28.012C152.326 27.9729 152.381 27.9442 152.441 27.9277C152.501 27.9113 152.563 27.9074 152.624 27.9163C152.687 27.9242 152.748 27.9446 152.803 27.9764C152.859 28.0081 152.907 28.0505 152.946 28.1012C152.984 28.1518 153.012 28.2097 153.029 28.2714C153.045 28.3331 153.048 28.3974 153.039 28.4606C152.863 29.799 152.422 31.0887 151.742 32.2541C151.062 33.4195 150.157 34.4372 149.08 35.2476C147.952 35.9815 146.623 36.34 145.28 36.272Z" fill="#251100"/>
<path d="M142.697 35.7274C143.35 35.7274 143.878 35.1971 143.878 34.5429C143.878 33.8887 143.35 33.3584 142.697 33.3584C142.045 33.3584 141.516 33.8887 141.516 34.5429C141.516 35.1971 142.045 35.7274 142.697 35.7274Z" fill="#161616"/>
<path d="M124.145 131.065C121.527 131.065 124.72 137.916 116.737 143.871C108.754 149.826 98.888 144.159 89.5964 147.873C80.3047 151.586 80.8156 154.564 80.8156 154.564C80.8156 154.564 85.8926 148.673 102.113 156.42C118.334 164.168 117.599 176.109 117.599 182.8C117.599 189.491 106.807 206.778 106.615 207.099C115.568 200.95 123.462 193.381 129.988 184.689C129.988 184.689 131.106 155.076 129.988 145.312C129.573 141.342 126.763 131.065 124.145 131.065Z" fill="#CCB99A"/>
<path d="M109.136 27.1799C104.122 26.6391 99.1425 25.8053 94.2247 24.6829C89.978 23.4023 85.9548 23.2422 85.5078 24.2987C86.5079 29.4986 88.6935 34.3962 91.8939 38.609C95.9313 41.5116 100.674 43.2699 105.624 43.6992C107.125 43.379 109.551 28.1724 109.136 27.1799Z" fill="#CCB99A"/>
<path d="M85.5078 24.2991C85.5078 24.7793 91.8938 25.3555 96.2683 27.8526C99.0088 29.4264 102.002 30.5097 105.113 31.054L96.6514 31.6302L105.113 32.5907C105.113 32.5907 100.962 34.9277 101.249 34.9277C101.537 34.9277 105.241 33.455 105.592 33.7752C105.943 34.0953 105.592 35.8881 105.592 35.8881L107.699 34.3834L108.657 39.2496L109.807 26.8281C105.516 26.4654 101.251 25.8454 97.0346 24.9713C93.5542 23.8828 86.4976 21.5779 85.5078 24.2991Z" fill="#E0CDAD"/>
</g>
<defs>
<clipPath id="clip0_149_2690">
<rect width="247.682" height="220" fill="white"/>
</clipPath>
</defs>
</svg>
