<svg width="809" height="510" viewBox="0 0 809 510" fill="none" xmlns="http://www.w3.org/2000/svg">
<g clip-path="url(#clip0_55:12306)">
<path d="M404.5 510C181.101 510 0 496.282 0 479.361C0 462.44 181.101 448.722 404.5 448.722C627.899 448.722 809 462.44 809 479.361C809 496.282 627.899 510 404.5 510Z" fill="#EFEFEF"/>
<path d="M104.904 280.931L89.2077 249.495L81.0694 251.82L72.3509 245.426C72.3509 245.426 63.6324 248.914 57.8311 270.452L80.3398 278.174L79.7599 282.243L100.827 286.178L104.904 280.931Z" fill="#303030"/>
<path d="M62.6374 257.167C77.2458 263.939 90.8998 272.61 103.247 282.957L97.4453 285.132L79.6767 282.243L80.2566 278.174L57.7478 270.452L62.6374 257.167Z" fill="#222323"/>
<path d="M179.228 464.432H119.955C119.955 464.432 94.4787 438.094 92.1085 409.88C89.7382 381.666 114.203 340.614 103.711 293.17L108.352 285.033C108.352 285.033 164.012 330.401 200.378 378.029C236.743 425.656 179.228 464.432 179.228 464.432Z" fill="#222323"/>
<path d="M112.396 286.743C112.396 288.241 111.952 289.706 111.121 290.952C110.29 292.197 109.108 293.168 107.726 293.741C106.344 294.313 104.824 294.462 103.357 294.169C101.89 293.875 100.544 293.152 99.4871 292.092C98.4308 291.031 97.7123 289.68 97.4225 288.21C97.1328 286.74 97.285 285.217 97.8596 283.834C98.4342 282.45 99.4054 281.269 100.651 280.439C101.896 279.608 103.359 279.167 104.854 279.17C106.856 279.175 108.774 279.975 110.188 281.394C111.602 282.814 112.396 284.737 112.396 286.743Z" fill="#3D4359"/>
<path d="M112.396 286.743C112.396 288.241 111.952 289.706 111.121 290.952C110.29 292.197 109.108 293.168 107.726 293.741C106.344 294.313 104.824 294.462 103.357 294.169C101.89 293.875 100.544 293.152 99.4871 292.092C98.4308 291.031 97.7123 289.68 97.4225 288.21C97.1328 286.74 97.285 285.217 97.8596 283.834C98.4342 282.45 99.4054 281.269 100.651 280.439C101.896 279.608 103.359 279.167 104.854 279.17C106.856 279.175 108.774 279.975 110.188 281.394C111.602 282.814 112.396 284.737 112.396 286.743Z" fill="#222323"/>
<path d="M106.562 381.4C102.269 376.069 107.424 358.782 109.181 341.229C111.137 321.6 110.125 301.772 112.661 300.609C117.452 298.434 184.134 362.618 184.581 370.921C185.029 379.224 119.225 397.093 106.562 381.4Z" fill="#303030"/>
<path d="M102.235 394.901C112.562 382.031 162.387 414.115 167.608 424.593C172.829 435.072 136.662 463.02 125.772 456.909C114.882 450.798 91.8593 407.837 102.235 394.901Z" fill="#303030"/>
<path d="M195.935 163.955C216.292 181.453 232.393 203.377 243.009 228.056H177.636C177.636 228.056 188.973 192.784 186.355 166.612L195.935 163.955Z" fill="#222323"/>
<path d="M185.41 159.289C185.41 159.289 174.155 156.981 163.696 132.519L171.536 127.72C170.177 119.793 169.738 111.735 170.227 103.707L188.974 100.203L202.913 108.938L198.123 122.921L206.411 127.288C206.411 127.288 193.316 143.313 192.057 157.545L185.41 159.289Z" fill="#303030"/>
<path d="M188.973 100.203L170.227 103.707C169.765 111.735 170.204 119.79 171.536 127.72L163.696 132.519C163.696 132.519 172.249 155.071 185.41 159.289L189.487 158.226C189.487 158.226 175.166 131.938 175.166 107.194L188.973 100.203Z" fill="#222323"/>
<path d="M198.123 122.921C198.123 122.921 188.973 139.527 190.929 157.794C190.929 157.794 197.559 136.206 206.411 127.239L198.123 122.921Z" fill="#222323"/>
<path d="M190.283 171.827C185.706 171.827 181.995 168.109 181.995 163.523C181.995 158.938 185.706 155.22 190.283 155.22C194.86 155.22 198.57 158.938 198.57 163.523C198.57 168.109 194.86 171.827 190.283 171.827Z" fill="#3D4359"/>
<path d="M198.554 163.523C198.554 165.166 198.067 166.771 197.157 168.137C196.246 169.502 194.952 170.566 193.438 171.195C191.923 171.823 190.257 171.987 188.65 171.667C187.042 171.347 185.565 170.556 184.406 169.395C183.247 168.233 182.458 166.754 182.138 165.143C181.818 163.533 181.982 161.863 182.61 160.346C183.237 158.829 184.299 157.532 185.662 156.62C187.025 155.707 188.627 155.22 190.266 155.22C192.464 155.22 194.572 156.095 196.127 157.652C197.681 159.209 198.554 161.321 198.554 163.523Z" fill="#222323"/>
<path d="M190.763 181.143C196.067 179.598 211.532 213.592 209.808 218.541C208.084 223.489 187.548 222.36 185.824 219.554C184.1 216.747 186.719 207.746 187.796 199.377C189.271 187.918 187.548 182.123 190.763 181.143Z" fill="#303030"/>
<path d="M198.156 174.55C200.377 171.229 213.72 186.175 216.737 190.31C219.754 194.445 226.185 204.143 220.616 208.577C217.301 211.184 211.698 198.297 206.51 189.396C201.322 180.495 196.532 177.041 198.156 174.55Z" fill="#303030"/>
<path d="M694.698 478.647H592.413C592.413 478.647 565.677 446.048 577.313 384.339C588.948 322.629 678.421 291.177 678.421 291.177L687.72 293.502C687.72 293.502 681.918 341.245 693.537 370.356C705.156 399.467 726.075 401.792 729.572 412.287C733.069 422.783 721.5 467.006 694.698 478.647Z" fill="#222323"/>
<path d="M693.554 287.989C693.554 289.661 693.06 291.295 692.133 292.685C691.206 294.075 689.888 295.158 688.346 295.798C686.805 296.438 685.108 296.605 683.472 296.279C681.835 295.953 680.332 295.148 679.152 293.966C677.972 292.784 677.169 291.277 676.843 289.638C676.518 287.998 676.684 286.299 677.323 284.754C677.962 283.21 679.043 281.89 680.43 280.961C681.818 280.032 683.449 279.536 685.118 279.536C687.355 279.536 689.501 280.427 691.083 282.012C692.666 283.597 693.554 285.747 693.554 287.989Z" fill="#3D4359"/>
<path d="M685.035 279.536C685.035 279.536 681.239 248.682 701.61 222.477L716.71 230.049L719.03 242.271L726.589 245.759L742.285 253.331C742.285 253.331 712.45 267.845 692.129 283.389L685.035 279.536Z" fill="#303030"/>
<path d="M716.776 230.049C716.776 230.049 696.471 245.758 685.118 279.536L692.195 283.389C708.004 271.918 724.787 261.86 742.352 253.331L706.897 256.818L719.097 242.271L716.776 230.049Z" fill="#222323"/>
<path d="M693.554 287.989C693.554 289.661 693.06 291.295 692.133 292.685C691.206 294.075 689.888 295.158 688.346 295.798C686.805 296.438 685.108 296.605 683.472 296.279C681.835 295.953 680.332 295.148 679.152 293.966C677.972 292.784 677.169 291.277 676.843 289.638C676.518 287.998 676.684 286.299 677.323 284.754C677.962 283.21 679.043 281.89 680.43 280.961C681.818 280.032 683.449 279.536 685.118 279.536C687.355 279.536 689.501 280.427 691.083 282.012C692.666 283.597 693.554 285.747 693.554 287.989Z" fill="#222323"/>
<path d="M674.94 301.075C682.581 304.512 680.742 372.682 652.862 385.502C624.983 398.322 590.241 375.638 592.993 361.04C595.744 346.443 663.188 295.794 674.94 301.075Z" fill="#303030"/>
<path d="M586.611 386.664C597.568 378.161 624.966 412.287 649.945 416.356C674.924 420.425 712.135 400.63 717.903 408.202C723.671 415.775 704.046 471.307 643.53 467.006C583.014 462.705 573.815 396.561 586.611 386.664Z" fill="#303030"/>
<path d="M654.602 401.792C651.685 391.131 681.322 372.681 685.399 373.262C689.477 373.844 698.179 394.851 695.858 398.886C693.538 402.922 656.343 408.202 654.602 401.792Z" fill="#303030"/>
<path d="M581.473 484.559H639.519V301.473H571.727L581.473 484.559Z" fill="#1D2E54"/>
<path d="M158.442 220.932H557.406C575.39 220.932 589.694 234.848 589.379 252.019L603.634 484.509H150.917C144.585 484.509 139.314 466.242 138.966 446.995L125.375 239.1C125.64 234.848 140.475 220.932 158.442 220.932Z" fill="#204385"/>
<path d="M626.822 460.829L159.188 460.829V360.21L626.822 360.21V460.829Z" fill="#1D2E54"/>
<path d="M158.442 220.932H184.647C166.68 220.932 151.862 234.848 151.497 239.199L165.752 471.689L149.176 484.576C143.789 484.576 139.331 467.006 138.999 448.722L125.308 239.166C125.64 234.848 140.475 220.932 158.442 220.932Z" fill="#1D2E54"/>
<path d="M196.764 444.139H638.939V484.559H196.764V444.139Z" fill="#204385"/>
<path d="M653.542 301.473H639.171C636.178 301.476 633.298 302.621 631.118 304.676C628.938 306.73 627.621 309.54 627.436 312.533L617.772 484.542H645.602C648.332 484.547 650.96 483.506 652.948 481.631C654.935 479.757 656.132 477.192 656.293 474.462L665.144 313.961C665.241 312.369 665.014 310.773 664.476 309.271C663.938 307.769 663.101 306.392 662.016 305.224C660.931 304.056 659.62 303.122 658.163 302.477C656.707 301.832 655.134 301.49 653.542 301.473Z" fill="#204385"/>
<path d="M615.734 438.758H228.472L223.118 360.227H620.607L615.734 438.758Z" fill="#204385"/>
<path d="M148.928 484.542H197.642V301.473H129.767L138.983 475.21C139.143 477.741 140.261 480.116 142.109 481.851C143.957 483.585 146.396 484.547 148.928 484.542Z" fill="#1D2E54"/>
<path d="M190.731 301.473H205.101C208.094 301.476 210.974 302.621 213.154 304.676C215.334 306.73 216.651 309.54 216.837 312.533L226.5 484.542H198.687C195.957 484.543 193.329 483.501 191.339 481.628C189.35 479.755 188.148 477.192 187.979 474.462L179.012 313.961C178.912 312.358 179.142 310.752 179.686 309.241C180.23 307.73 181.076 306.347 182.174 305.177C183.272 304.007 184.598 303.075 186.07 302.438C187.541 301.801 189.128 301.472 190.731 301.473Z" fill="#204385"/>
<path d="M392.715 244.115C382.589 251.667 374.83 261.964 370.355 273.79C370.355 273.79 386.168 262.249 392.715 244.115Z" fill="#D0AC97"/>
<path d="M395.102 271.266C395.102 271.266 386.682 252.817 370.703 244.115C370.703 244.115 380.234 263.395 395.102 271.266Z" fill="#D0AC97"/>
<path d="M379.886 254.909C378.609 257.25 378.808 260.173 380.333 261.402C381.858 262.631 384.129 261.75 385.405 259.392C386.682 257.034 386.483 254.145 384.958 252.899C383.433 251.654 381.162 252.567 379.886 254.909Z" fill="#E5D1BC"/>
<path d="M369.875 165.749L367.289 167.409L360.808 161.547C360.808 161.547 346.686 149.923 343.404 134.429C339.857 117.822 341.365 103.69 353.796 102.162C353.796 102.162 351.924 96.1676 358.603 90.4052V93.0455C358.603 93.0455 372.062 80.6073 389.168 88.0636C403.124 94.1582 410.517 101.066 411.478 93.4773C411.478 93.4773 424.092 109.453 410.368 123.601C393.179 141.154 369.875 165.749 369.875 165.749Z" fill="#222323"/>
<path d="M534.415 219.62C535.7 221.361 537.18 222.949 538.825 224.353C540.866 226.122 543.238 227.465 545.803 228.305C546.466 228.206 545.803 226.379 543.797 224.984C541.792 223.589 540.482 222.626 540.698 222.061C540.913 221.497 544.792 222.061 548.504 223.456C553.958 225.399 557.505 227.956 558.45 227.193C559.892 225.947 550.875 221.962 551.14 221.762C552.933 222.236 554.651 222.957 556.245 223.904C559.279 225.416 560.77 226.512 561.533 225.748C562.046 225.25 560.19 223.772 557.422 221.862C555.821 220.868 554.161 219.976 552.449 219.188C554.171 219.589 555.84 220.191 557.422 220.982C559.411 221.895 561.019 222.842 561.466 222.31C561.914 221.779 561.085 220.533 556.295 218.275C554.053 217.064 551.654 216.17 549.168 215.618C544.577 214.868 539.912 214.684 535.277 215.07L534.415 219.62Z" fill="#F8C2A4"/>
<path d="M190.78 220.068C189.501 221.803 188.027 223.386 186.388 224.785C184.341 226.558 181.963 227.907 179.393 228.753C178.747 228.637 179.393 226.811 181.415 225.432C183.437 224.054 184.73 223.057 184.498 222.493C184.266 221.928 180.404 222.493 176.708 223.888C171.255 225.831 167.708 228.388 166.763 227.624C165.304 226.379 174.338 222.393 174.072 222.194C172.275 222.676 170.551 223.402 168.951 224.353C165.934 225.864 164.442 226.943 163.68 226.196C163.166 225.681 165.022 224.203 167.774 222.294C169.376 221.302 171.036 220.41 172.746 219.62C171.022 220.02 169.352 220.628 167.774 221.43C165.785 222.327 164.177 223.273 163.713 222.742C163.249 222.211 164.094 220.965 168.901 218.707C171.141 217.491 173.54 216.596 176.028 216.05C180.618 215.299 185.283 215.115 189.918 215.501L190.78 220.068Z" fill="#F8C2A4"/>
<path d="M356.647 191.406C336.144 189.861 294.109 197.65 274.252 200.357C223.4 203.844 189.355 214.024 189.355 214.024L190.498 221.048C221.991 221.281 328.072 222.709 336.757 252.102L356.647 191.406Z" fill="#90C476"/>
<path d="M402.627 191.406C423.131 189.861 448.491 197.65 468.348 200.357C519.2 203.844 535.626 214.024 535.626 214.024L534.482 221.048C503.835 220.318 432.612 223.058 423.893 245.958L402.627 191.406Z" fill="#90C476"/>
<path d="M529.609 473.018C533.088 476.735 537.392 479.58 542.173 481.321C550.461 484.41 555.135 483.729 555.019 485.788C554.903 487.847 525.299 488.046 525.034 485.638C524.769 483.231 525.747 478.581 524.802 473.067C523.858 467.554 529.609 473.018 529.609 473.018Z" fill="#222323"/>
<path d="M455.088 470.244C455.088 470.244 454.905 476.439 463.557 480.208C472.209 483.978 473.005 485.356 472.458 486.602C471.911 487.847 448.391 488.262 448.341 485.356C448.292 482.45 450.364 476.904 449.867 470.294C449.369 463.685 455.088 470.244 455.088 470.244Z" fill="#222323"/>
<path d="M441.745 310.241L353.366 311.022L436.805 331.68L441.745 310.241Z" fill="#2A2E3D"/>
<path d="M447.612 312.583C419.434 303.549 402.61 312.666 402.378 351.841L514.841 352.189C514.841 352.189 513.962 332.262 504.896 325.619C500.354 322.265 467.767 315.838 447.612 312.583Z" fill="#3C8F7C"/>
<path d="M355.603 311.653C355.603 311.653 356.73 340.066 365.747 352.106H471.729C471.729 352.106 476.038 333.092 467.784 325.536C457.955 316.635 387.908 312.417 355.603 311.653Z" fill="#3C8F7C"/>
<path d="M447.612 312.583C447.612 312.583 432.877 309.428 402.08 317.066C386.491 321.077 371.578 327.372 357.825 335.749C335.564 294.083 330.127 202.416 339.708 196.985C349.288 191.555 366.808 190.691 384.046 191.754C400.754 192.801 421.921 197.102 425.12 201.536C428.998 206.899 426.396 233.005 423.893 246.024C414.611 294.615 427.623 299.746 447.612 312.583Z" fill="#90C476"/>
<path d="M514.493 350.412C514.493 350.412 526.792 425.938 535.593 473.914H521.521C521.521 473.914 487.045 406.559 484.177 385.668C481.31 364.777 484.177 341.843 484.177 341.843L514.493 350.412Z" fill="#3C8F7C"/>
<path d="M471.729 352.189C471.729 352.189 463.275 425.938 459.894 473.914H445.805C445.805 473.914 433.424 402.789 433.987 381.915C434.551 361.04 442.988 341.843 442.988 341.843L471.729 352.189Z" fill="#3C8F7C"/>
<path d="M365.615 150.57C365.615 150.57 371.366 179.715 367.587 191.887L399.08 193.548C399.08 193.548 394.108 186.756 394.108 170.996C394.091 149.059 365.615 150.57 365.615 150.57Z" fill="#F8C2A4"/>
<path d="M385.024 189.28C374.494 189.223 363.972 189.883 353.531 191.256C353.531 191.256 363.476 206.335 385.936 206.983C391.399 207.275 396.825 205.938 401.531 203.142C406.236 200.346 410.009 196.216 412.373 191.273C403.317 189.944 394.177 189.278 385.024 189.28Z" fill="#F8C2A4"/>
<path d="M367.621 153.294C368.15 157.389 369.02 161.433 370.223 165.383C374.135 174.915 385.737 180.479 385.737 180.479C388.936 182.687 399.693 182.139 401.964 180.479C404.235 178.818 410.252 165.533 411.478 157.562C412.39 151.5 410.633 144.692 410.583 141.221C410.484 134.578 410.931 126.275 409.821 121.293C408.445 115.149 401.533 109.868 390.245 110.566C364.355 111.977 365.051 122.157 367.621 153.294Z" fill="#F8C2A4"/>
<path d="M369.892 150.687C369.86 151.576 369.651 152.449 369.277 153.255C368.902 154.061 368.369 154.784 367.711 155.38C367.052 155.976 366.281 156.434 365.443 156.726C364.604 157.018 363.716 157.139 362.831 157.08C361.027 156.969 359.337 156.157 358.12 154.818C356.904 153.478 356.257 151.716 356.316 149.906C356.348 149.018 356.557 148.144 356.931 147.338C357.306 146.532 357.839 145.809 358.497 145.213C359.156 144.617 359.927 144.159 360.765 143.867C361.604 143.575 362.492 143.454 363.377 143.513C365.183 143.62 366.875 144.431 368.093 145.771C369.31 147.111 369.955 148.876 369.892 150.687Z" fill="#F8C2A4"/>
<path d="M390.245 110.416C390.245 110.416 376.985 110.798 371.068 121.493C366.195 130.261 370.306 150.371 370.306 150.371H365.797L364.968 144.177C364.968 144.177 354.41 105.451 390.245 110.416Z" fill="#222323"/>
<path d="M407.301 116.029C403.323 112.708 405.196 117.441 395.699 117.69C383.632 118.105 379.737 109.586 371.549 120.496C371.549 120.496 376.007 103.325 391.107 104.87C406.207 106.414 407.301 116.029 407.301 116.029Z" fill="#222323"/>
<path d="M397.506 223.921C395.268 221.496 392.003 222.708 392.732 219.105C393.378 215.784 396.047 215.319 399.528 214.97C403.009 214.621 401.268 210.918 405.727 210.586C409.373 210.32 413.053 217.029 409.224 219.736C405.396 222.443 408.528 225.764 405.246 227.225C401.484 229.185 399.76 226.345 397.506 223.921Z" fill="#B75349"/>
<path d="M411.545 222.825C413.451 220.201 417.91 222.244 416.633 224.187C415.357 226.13 414.976 228.67 412.456 228.488C409.937 228.305 410.103 224.834 411.545 222.825Z" fill="#B75349"/>
<path d="M495.083 127.82C495.083 127.82 500.371 121.593 502.492 124.216C504.614 126.84 499.177 130.062 495.763 129.481L495.083 127.82Z" fill="#99F1FF"/>
<path d="M491.851 127.82C491.851 127.82 486.564 121.593 484.459 124.216C482.354 126.84 487.774 130.062 491.188 129.481L491.851 127.82Z" fill="#99F1FF"/>
<path d="M493.409 133.034C491.963 133.034 490.791 130.952 490.791 128.384C490.791 125.816 491.963 123.734 493.409 123.734C494.856 123.734 496.028 125.816 496.028 128.384C496.028 130.952 494.856 133.034 493.409 133.034Z" fill="#222323"/>
<path d="M416.765 10.0138C416.765 10.0138 424.887 9.24991 424.589 12.6044C424.291 15.9589 418.141 14.4809 416.086 11.6744L416.765 10.0138Z" fill="#99F1FF"/>
<path d="M414.462 7.75521C414.462 7.75521 414.992 -0.398566 411.661 -1.12308e-05C408.329 0.398543 410.003 6.49311 412.821 8.46928L414.462 7.75521Z" fill="#99F1FF"/>
<path d="M417.048 11.0766C415.258 12.92 412.97 13.6008 411.926 12.5878C410.882 11.5748 411.512 9.26652 413.302 7.4232C415.092 5.57989 417.379 4.89907 418.423 5.91206C419.468 6.92506 418.838 9.23332 417.048 11.0766Z" fill="#222323"/>
<path d="M629.325 262.747C629.325 262.747 637.448 261.983 637.149 265.337C636.851 268.692 630.701 267.214 628.646 264.407L629.325 262.747Z" fill="#99F1FF"/>
<path d="M627.021 260.505C627.021 260.505 627.552 252.335 624.22 252.733C620.889 253.132 622.563 259.243 625.38 261.219L627.021 260.505Z" fill="#99F1FF"/>
<path d="M629.607 263.81C627.817 265.653 625.53 266.334 624.486 265.321C623.441 264.308 624.071 261.999 625.861 260.156C627.652 258.313 629.939 257.632 630.983 258.645C632.027 259.658 631.398 261.966 629.607 263.81Z" fill="#222323"/>
<path d="M616.314 52.4929C616.314 52.4929 617.408 44.4056 620.591 45.4518C623.773 46.498 620.955 52.0944 617.773 53.5391L616.314 52.4929Z" fill="#99F1FF"/>
<path d="M613.595 54.2531C613.595 54.2531 605.789 51.8784 605.424 55.2329C605.059 58.5874 611.358 58.3549 613.927 56.0134L613.595 54.2531Z" fill="#99F1FF"/>
<path d="M617.408 52.4595C618.8 54.635 618.933 57.0097 617.723 57.7902C616.513 58.5707 614.408 57.4581 612.999 55.2993C611.59 53.1404 611.474 50.7491 612.684 49.9686C613.894 49.1881 616.016 50.3007 617.408 52.4595Z" fill="#222323"/>
<path d="M153.9 30.124C153.9 30.124 154.994 22.0201 158.177 23.0829C161.359 24.1457 158.541 29.7256 155.359 31.1537L153.9 30.124Z" fill="#99F1FF"/>
<path d="M151.182 31.8677C151.182 31.8677 143.375 29.5095 143.01 32.8474C142.646 36.1853 148.945 35.9695 151.514 33.628L151.182 31.8677Z" fill="#99F1FF"/>
<path d="M154.994 30.0907C156.387 32.2496 156.519 34.6408 155.309 35.4213C154.099 36.2018 151.994 35.0893 150.585 32.9138C149.176 30.7384 149.06 28.3636 150.27 27.5831C151.48 26.8026 153.602 27.9153 154.994 30.0907Z" fill="#222323"/>
<path d="M270.97 357.703V373.23C270.97 378.66 250.169 392.028 261.025 399.003C271.882 405.977 290.331 383.31 290.331 374.01V357.703H270.97Z" fill="#F9EFF9"/>
<path d="M260.827 386.996C257.661 391.43 256.119 395.864 260.992 399.002C264.407 401.195 268.584 400.431 272.711 398.073L260.827 386.996Z" fill="#90C476"/>
<path d="M285.988 384.837C288.607 380.802 290.297 376.8 290.297 374.01V368.015C277.286 373.778 285.905 384.721 285.988 384.837Z" fill="#90C476"/>
<path d="M253.732 145.588C253.732 145.588 262.434 129.779 257.047 121.575C249.754 110.549 229.715 119.632 230.527 103.076C231.339 86.5193 291.557 90.2557 290.778 65.4955C290.198 46.7137 243.953 57.1923 244.367 39.0415C244.583 28.9448 271.435 28.4964 267.821 7.48926C275.579 31.6516 257.876 29.4097 257.876 38.3606C257.876 51.3302 312.79 43.7244 312.79 67.289C312.79 90.1228 248.147 89.6745 247.102 103.989C246.439 113.156 263.678 110.482 266.993 123.469C270.308 136.455 253.732 145.588 253.732 145.588Z" fill="#90C476"/>
<path d="M658.398 245.958C658.398 245.958 652.431 233.453 656.956 227.409C663.039 219.272 677.99 227.126 678.139 214.389C678.288 201.652 631.894 201.851 633.585 182.837C634.878 168.456 669.885 178.536 670.398 164.57C670.68 156.831 650.094 155.287 653.823 139.328C646.812 157.595 660.453 156.582 660.056 163.441C659.492 173.405 617.706 165.101 616.678 183.186C615.667 200.689 665.26 203.23 665.426 214.256C665.525 221.314 652.464 218.491 649.298 228.305C646.132 238.12 658.398 245.958 658.398 245.958Z" fill="#90C476"/>
<path d="M96.335 214.622C96.335 214.622 109.727 211.516 109.379 202.914C109.131 196.354 83.2737 190.858 82.5775 181.209C81.8813 171.561 123.817 177.423 124.861 166.745C125.905 156.067 86.8706 160.202 92.2078 136.455C92.2078 136.455 85.6769 146.419 93.2352 153.659C100.793 160.9 110.424 160.551 110.424 165.284C110.424 170.017 68.8367 168.389 66.4333 179.416C64.0299 190.443 104.921 196.803 104.755 204.326C104.606 210.802 96.335 214.622 96.335 214.622Z" fill="#90C476"/>
<path d="M712.715 211.417C712.715 211.417 722.014 205.006 722.014 199.178C722.014 193.349 697.018 196.271 697.018 186.374C697.018 176.477 732.472 180.545 724.632 163.125C724.632 163.125 732.473 172.142 726.953 175.929C721.434 179.715 704.576 182.339 705.157 186.988C705.737 191.638 730.732 191.97 731.677 198.048C732.622 204.126 712.715 211.417 712.715 211.417Z" fill="#90C476"/>
<path d="M552.151 293.286C558.964 293.535 561.947 287.042 566.124 293.286C569.92 298.982 566.704 303.748 562.245 309.228C557.787 314.708 565.561 317.698 559.594 324.672C554.621 330.385 539.538 326.001 541.179 316.369C542.819 306.737 533.438 306.588 536.106 299.663C538.709 291.41 545.356 293.054 552.151 293.286Z" fill="#1D2E54"/>
<path d="M533.289 315.389C534.333 322.032 524.869 325.536 523.891 320.853C522.913 316.17 519.747 311.919 523.725 308.465C527.703 305.01 532.543 310.324 533.289 315.389Z" fill="#1D2E54"/>
<path d="M263.843 307.435C264.009 302.453 259.269 300.261 263.843 297.188C268.02 294.398 271.485 296.773 275.446 300.028C279.408 303.283 281.629 297.57 286.717 301.988C290.894 305.591 287.679 316.684 280.701 315.472C273.723 314.26 273.557 321.151 268.501 319.208C262.468 317.299 263.661 312.417 263.843 307.435Z" fill="#B75349"/>
<path d="M382.737 399.667C384.726 401.809 387.594 400.746 386.964 403.918C386.384 406.791 383.964 407.239 380.964 407.571C377.964 407.904 379.422 411.159 375.494 411.441C372.262 411.673 369.013 405.761 372.394 403.37C375.775 400.979 373.008 398.039 375.908 396.727C379.223 394.951 380.748 397.458 382.737 399.667Z" fill="#90C476"/>
<path d="M370.339 400.564C368.681 402.888 364.72 401.078 365.83 399.385C366.941 397.691 367.272 395.416 369.526 395.565C371.781 395.715 371.631 398.787 370.339 400.564Z" fill="#90C476"/>
<path d="M277.119 381.582C278.13 382.678 279.606 382.13 279.274 383.758C278.943 385.385 277.75 385.418 276.208 385.618C274.667 385.817 275.429 387.444 273.423 387.594C271.766 387.71 270.108 384.688 271.766 383.475C273.423 382.263 272.064 380.752 273.556 380.154C275.048 379.556 276.108 380.486 277.119 381.582Z" fill="#222323"/>
<path d="M270.788 382.081C269.926 383.26 267.921 382.346 268.484 381.466C269.048 380.586 269.23 379.44 270.374 379.523C271.518 379.606 271.451 381.167 270.788 382.081Z" fill="#222323"/>
</g>
<defs>
<clipPath id="clip0_55:12306">
<rect width="809" height="510" fill="white" transform="matrix(-1 0 0 1 809 0)"/>
</clipPath>
</defs>
</svg>
