<svg width="731" height="600" viewBox="0 0 731 600" fill="none" xmlns="http://www.w3.org/2000/svg">
<g clip-path="url(#clip0_159_4215)">
<path d="M365.087 600C566.718 600 730.173 593.266 730.173 584.959C730.173 576.652 566.718 569.918 365.087 569.918C163.455 569.918 0 576.652 0 584.959C0 593.266 163.455 600 365.087 600Z" fill="#EFF3F4"/>
<path d="M625.433 316.682C639.927 309.299 657.156 308.205 673.29 310.94C682.042 312.307 691.066 315.042 696.809 321.605C702.826 328.168 703.919 339.654 697.083 345.124C692.981 348.405 687.511 348.952 682.315 348.952C669.735 348.679 655.788 346.491 645.67 354.148C639.927 358.524 636.098 365.634 629.261 367.822C622.425 370.01 615.041 365.908 611.486 359.891C607.93 353.875 607.93 346.218 609.571 339.381C609.024 339.107 610.665 324.34 625.433 316.682Z" fill="#EBEBEB"/>
<path d="M592.069 252.416C601.094 264.996 618.322 260.894 626.253 253.237C634.184 245.579 637.739 234.367 640.747 223.428C647.858 199.089 654.968 173.382 649.772 148.496C648.131 141.113 645.396 133.729 640.2 127.986C635.004 122.516 626.8 119.235 619.69 121.149C610.939 123.337 605.469 132.088 601.641 140.019C590.155 163.811 584.138 190.338 583.865 216.865C583.591 229.171 584.959 242.298 592.069 252.416Z" fill="#EBEBEB"/>
<path d="M567.456 270.466C577.028 258.98 578.942 242.298 574.567 228.077C570.191 213.857 560.619 201.55 549.407 191.432C536.28 179.672 520.966 170.648 504.284 164.905C497.721 162.717 490.884 160.803 484.047 161.35C477.21 161.897 470.373 165.452 467.092 171.742C462.443 180.766 466.818 191.705 471.741 200.73C480.492 216.591 490.337 231.632 501.276 245.853C510.027 257.339 520.419 268.551 533.819 273.747C547.219 278.943 561.44 278.396 568.55 268.825" fill="#EBEBEB"/>
<path d="M591.522 443.847C591.796 443.847 592.069 441.933 592.343 438.104C592.616 434.002 593.163 428.533 593.983 422.243C594.804 415.68 595.624 407.749 597.539 399.271C599.453 390.793 602.188 381.495 606.016 371.924C609.845 362.626 614.494 354.148 619.963 347.311C625.433 340.474 631.723 335.552 637.466 332.817C643.482 329.809 648.678 328.715 652.233 328.168C655.788 327.895 657.976 327.621 657.976 327.348C657.976 327.074 655.788 327.074 652.233 327.348C648.405 327.621 642.935 328.442 636.919 331.45C630.629 334.185 624.066 339.107 618.323 346.217C612.58 353.054 607.657 361.805 603.828 371.377C600 380.948 597.265 390.246 595.624 398.998C593.983 407.749 593.163 415.68 592.616 422.516C592.069 429.08 591.796 434.549 591.796 438.378C591.249 441.659 591.249 443.847 591.522 443.847Z" fill="#E0E0E0"/>
<path d="M592.615 431.814C592.615 431.814 592.615 430.994 592.889 429.079C592.889 427.165 592.889 424.43 592.889 421.422C592.889 414.859 592.889 405.287 593.162 393.255C593.709 369.462 595.897 344.029 599.726 307.931C603.554 274.02 608.477 234.64 613.673 208.934C614.767 203.191 615.861 197.995 616.954 193.346C618.048 188.697 618.869 184.868 619.689 181.586C620.51 178.578 621.057 176.117 621.603 174.203C621.877 172.562 622.15 171.468 622.15 171.468C622.15 171.468 621.877 172.288 621.33 173.929C620.783 175.843 619.963 178.305 619.142 181.313C618.048 184.594 617.228 188.423 615.86 193.072C614.767 197.721 613.399 202.917 612.032 208.66C606.836 231.905 601.366 264.449 597.264 300.547C593.436 336.646 591.521 369.462 591.248 393.255C590.974 405.287 591.248 414.859 591.795 421.422C592.068 424.43 592.068 427.165 592.342 429.079C592.342 430.72 592.342 431.814 592.615 431.814Z" fill="#E0E0E0"/>
<path d="M592.617 368.369C592.89 368.369 592.89 365.634 592.617 360.438C592.343 355.242 591.523 347.858 590.155 338.834C588.515 329.809 586.6 318.87 583.045 307.384C581.678 301.915 578.123 289.335 569.918 269.918C558.979 243.939 544.212 222.608 531.085 209.481C528.077 205.926 524.795 203.465 522.061 201.003C520.693 199.909 519.326 198.542 518.232 197.722C516.865 196.901 515.771 196.081 514.677 195.26C510.301 192.252 508.114 190.885 507.84 190.885C507.567 191.432 517.412 197.175 529.991 210.575C542.571 223.975 556.792 245.032 567.731 270.739C573.747 284.686 578.123 297.266 581.131 307.658C584.686 319.144 586.874 329.809 588.515 338.834C590.155 347.858 591.249 355.242 591.796 360.165C592.07 365.634 592.343 368.369 592.617 368.369Z" fill="#E0E0E0"/>
<path d="M527.256 470.648L533.546 557.612H645.396L651.686 470.648H527.256Z" fill="#EBEBEB"/>
<path d="M665.086 436.19H516.317V470.374H665.086V436.19Z" fill="#EBEBEB"/>
<path d="M516.317 554.33V563.628H523.427H662.625V554.33H516.317Z" fill="#E0E0E0"/>
<path d="M530.263 579.49L523.427 562.808H657.155L649.224 579.49H530.263Z" fill="#E0E0E0"/>
<path d="M649.499 499.089C649.499 499.089 649.225 499.362 648.952 499.909C648.405 500.456 647.858 501.277 647.311 502.097C645.67 504.011 643.482 507.02 640.748 510.301L640.474 510.575L640.201 510.301C636.099 504.558 630.629 497.175 624.066 488.15H624.886C620.237 494.987 614.768 502.371 609.025 510.575L608.478 511.395L607.931 510.848C602.188 504.011 595.898 496.354 589.335 488.697H590.428C590.155 488.97 589.882 489.517 589.335 490.064C583.592 497.448 577.849 504.285 572.653 511.122L572.106 511.942L571.559 511.122C565.816 503.191 560.62 495.534 555.697 488.697H556.518C548.861 497.448 542.297 505.105 537.101 510.848L536.828 511.122L536.554 510.575C534.093 506.199 531.905 502.918 530.538 500.456C529.991 499.362 529.444 498.542 528.897 497.722C528.624 497.175 528.35 496.901 528.35 496.628C528.35 496.628 528.624 496.901 528.897 497.448C529.444 498.269 529.991 499.089 530.538 500.183C532.179 502.644 534.367 505.926 536.828 510.301H536.281C541.203 504.558 547.767 496.901 555.424 487.877L555.971 487.33L556.518 487.877C561.44 494.713 566.636 502.097 572.379 510.028H571.285C576.481 503.465 582.224 496.354 587.967 488.97C588.241 488.424 588.788 488.15 589.061 487.603L589.608 487.056L590.155 487.603C596.718 495.534 603.008 502.918 608.751 509.754H607.657C613.4 501.824 618.87 494.166 623.519 487.603L624.066 487.056L624.613 487.603C630.903 496.628 636.372 504.285 640.201 510.028H639.654C642.388 506.473 644.85 504.011 646.491 501.824C647.311 501.003 647.858 500.183 648.405 499.636C649.225 499.089 649.499 499.089 649.499 499.089Z" fill="#F5F5F5"/>
<path d="M590.701 470.921C625.288 470.921 653.326 470.554 653.326 470.101C653.326 469.648 625.288 469.28 590.701 469.28C556.114 469.28 528.076 469.648 528.076 470.101C528.076 470.554 556.114 470.921 590.701 470.921Z" fill="#F5F5F5"/>
<path d="M485.688 367.548L426.891 301.641L426.344 381.768L444.12 433.181L268.004 463.81L260.62 324.886L248.04 218.232C246.399 205.105 254.056 192.799 266.089 187.876L314.494 168.733L382.862 181.313L410.21 191.705C421.695 196.08 432.087 203.191 440.018 212.489L522.607 307.11" fill="#6BB7BF"/>
<path d="M427.96 378.497C428.413 378.493 428.553 350.697 428.273 316.412C427.992 282.127 427.398 254.336 426.944 254.34C426.491 254.344 426.351 282.14 426.632 316.425C426.912 350.71 427.507 378.5 427.96 378.497Z" fill="#498B8E"/>
<path d="M421.422 398.724L315.041 355.789C306.563 352.233 300.547 344.303 300 335.005L292.343 232.999C292.343 232.999 293.163 189.517 266.089 187.603L250.775 193.619C230.811 204.284 225.889 233.273 228.623 255.697C232.452 287.42 234.093 332.543 238.468 360.164C242.024 382.862 254.877 402.552 277.028 408.569L408.022 437.01L421.422 398.724Z" fill="#6BB7BF"/>
<path d="M293.437 248.861C293.437 248.861 293.71 249.681 293.71 251.322C293.984 252.963 293.984 255.151 294.531 258.159C295.078 264.175 295.898 272.653 296.718 283.045C297.539 293.437 298.633 306.017 300 319.69C300.274 323.246 300.547 326.801 300.821 330.356C301.094 333.911 301.368 337.74 302.188 341.295C303.008 344.85 304.649 348.405 307.384 350.866C310.119 353.328 313.674 355.242 317.229 356.883C346.491 369.462 373.564 380.128 393.255 387.512C403.1 391.067 411.03 394.075 416.5 395.989C419.234 397.083 421.149 397.63 422.79 398.451C424.157 398.998 424.977 399.271 424.977 399.271C424.977 399.271 424.157 398.998 422.79 398.724C421.149 398.177 418.961 397.63 416.226 396.536C410.757 394.622 402.553 391.887 392.708 388.332C373.018 381.222 345.944 370.83 316.409 358.25C312.853 356.609 309.025 354.695 306.29 351.96C303.282 349.225 301.368 345.397 300.547 341.568C299.727 337.74 299.453 334.184 299.18 330.356C298.906 326.801 298.633 323.246 298.359 319.69C297.265 306.017 296.445 293.437 295.625 283.045C294.804 272.653 294.257 264.175 293.71 258.159C293.437 255.424 293.437 252.963 293.163 251.322C293.437 249.681 293.437 248.861 293.437 248.861Z" fill="#498B8E"/>
<path d="M232.452 304.376C232.452 304.376 232.452 304.923 232.726 305.743C232.726 306.837 232.999 308.205 232.999 309.572C233.273 313.127 233.82 318.05 234.366 324.066C234.913 330.082 235.734 337.466 236.828 345.397C237.922 353.328 239.289 362.352 241.75 371.377C242.844 376.026 244.485 380.128 246.946 383.683C249.407 387.238 252.142 390.52 254.877 393.528C260.62 399.271 266.636 403.373 271.832 406.381C282.771 412.124 290.702 412.124 290.428 412.398C290.428 412.398 289.881 412.398 289.061 412.398C288.241 412.398 286.873 412.124 285.232 411.851C281.951 411.304 277.028 409.937 271.285 407.202C265.816 404.467 259.526 400.365 253.783 394.349C250.775 391.34 248.04 388.059 245.579 384.504C243.118 380.675 241.203 376.299 240.109 371.65C237.648 362.626 236.281 353.601 235.46 345.67C234.366 337.466 233.82 330.356 233.273 324.066C232.726 318.05 232.452 312.854 232.452 309.572C232.452 307.931 232.452 306.564 232.452 305.743C232.452 304.649 232.452 304.376 232.452 304.376Z" fill="#498B8E"/>
<path d="M278.123 375.752C277.849 375.752 278.396 373.564 280.037 370.009C281.678 366.727 284.686 362.352 289.061 358.523C293.437 354.694 298.086 352.507 301.641 351.413C305.196 350.319 307.658 350.319 307.658 350.319C307.658 350.592 305.47 350.866 302.188 352.233C298.907 353.601 294.257 355.788 290.155 359.343C286.053 362.899 283.045 367.001 281.131 370.009C278.943 373.564 278.396 375.752 278.123 375.752Z" fill="#498B8E"/>
<g opacity="0.3">
<g opacity="0.3">
<path opacity="0.3" d="M390.793 386.691C379.307 380.127 368.368 375.205 356.335 370.009C344.303 364.539 332.817 357.703 324.886 347.037C310.118 327.347 311.759 298.632 296.718 279.216C297.812 292.343 298.633 305.469 299.726 318.596C300.547 330.629 298.906 342.662 306.563 350.866C313.127 357.703 325.706 363.172 334.731 365.907C353.054 371.923 372.744 380.674 390.793 386.691Z" fill="black"/>
</g>
</g>
<path d="M575.661 536.828C575.661 536.828 664.813 561.441 668.368 562.808C673.838 564.722 672.744 584.412 664.54 584.139C660.711 583.865 596.171 586.6 587.967 586.053C579.763 585.506 555.15 575.935 555.15 575.935L575.661 536.828Z" fill="#03AA99"/>
<path d="M612.853 570.739C613.4 570.739 613.947 566.09 616.682 561.167C619.416 556.245 623.245 553.236 622.971 552.963C622.698 552.689 618.322 555.151 615.314 560.347C612.579 565.543 612.579 570.739 612.853 570.739Z" fill="#263238"/>
<path d="M603.555 566.363C604.102 566.363 604.923 562.261 607.384 557.612C609.845 552.962 612.58 549.681 612.306 549.407C612.033 549.134 608.478 552.142 606.017 557.065C603.555 561.987 603.282 566.363 603.555 566.363Z" fill="#263238"/>
<path d="M594.804 564.175C595.351 564.175 594.804 559.8 596.992 554.877C598.906 549.955 602.188 546.946 601.914 546.673C601.641 546.4 597.812 549.134 595.625 554.33C593.437 559.526 594.531 564.175 594.804 564.175Z" fill="#263238"/>
<path d="M596.444 552.689C596.717 552.689 597.264 550.228 597.264 546.126C597.264 543.938 596.991 541.477 596.444 538.742C596.171 537.375 595.624 536.008 595.077 534.64C594.803 533.82 594.53 532.999 593.709 532.452C592.889 531.632 591.248 531.905 590.701 532.726C589.881 533.546 589.607 534.367 589.607 535.187C589.607 536.008 589.607 536.828 589.607 537.648C589.607 539.289 589.881 540.657 590.154 542.024C590.701 544.759 591.795 546.946 592.889 548.861C595.077 552.416 596.717 554.33 596.991 554.33C597.264 554.057 595.624 552.142 593.983 548.587C593.162 546.673 592.068 544.485 591.521 542.024C591.248 540.657 590.975 539.289 590.975 537.922C590.975 536.554 590.975 534.914 591.795 534.093C592.342 533.82 592.615 533.82 592.889 534.093C593.162 534.367 593.709 534.914 593.983 535.734C594.53 537.101 595.077 538.469 595.35 539.563C596.171 542.024 596.444 544.485 596.444 546.4C596.717 549.955 596.171 552.689 596.444 552.689Z" fill="#263238"/>
<path d="M596.444 551.595C596.444 551.322 594.257 550.775 590.702 550.775C588.787 550.775 586.599 551.048 584.412 551.595C583.318 551.869 581.95 552.142 580.856 552.963C579.763 553.51 578.395 555.15 578.942 557.065C579.216 558.706 580.856 559.799 582.224 560.346C583.591 560.62 584.959 560.62 586.326 560.346C588.787 559.799 590.702 558.706 592.069 557.612C594.804 555.424 596.444 553.783 596.171 553.51C595.897 553.236 594.257 554.877 591.522 556.791C590.155 557.612 588.24 558.706 586.052 559.253C584.959 559.526 583.865 559.526 582.771 559.253C581.677 558.979 580.856 558.159 580.583 557.065C580.31 555.971 580.856 555.15 581.95 554.604C582.771 554.057 584.138 553.783 585.232 553.236C587.42 552.689 589.608 552.416 591.248 552.142C594.257 551.595 596.444 551.869 596.444 551.595Z" fill="#263238"/>
<path d="M626.527 571.559C627.074 571.559 626.527 567.73 628.168 563.628C629.809 559.526 632.817 557.065 632.544 556.792C632.27 556.518 628.715 558.432 626.801 563.081C625.16 567.73 626.254 571.833 626.527 571.559Z" fill="#263238"/>
<path d="M564.449 575.661C564.449 575.661 565.543 576.208 568.004 577.302C570.192 578.122 573.747 579.49 577.849 580.31C586.327 582.498 598.633 583.592 611.76 583.592C625.16 583.318 637.193 582.771 645.944 582.498C650.046 582.224 653.601 582.224 656.336 581.951C658.797 581.677 660.164 581.677 660.164 581.677C660.164 581.677 658.797 581.404 656.336 581.404C653.601 581.404 650.046 581.404 645.944 581.404C636.919 581.677 625.16 581.677 611.76 581.951C598.36 582.224 586.6 581.131 578.123 579.216C569.371 577.575 564.449 575.388 564.449 575.661Z" fill="#263238"/>
<path d="M561.714 577.849C561.714 578.122 564.176 576.755 568.278 574.841C572.38 573.2 578.396 571.012 585.233 572.106C592.07 573.2 596.719 577.575 599.727 580.857C602.735 584.139 604.65 586.327 604.923 586.053C604.923 586.053 603.556 583.592 600.548 580.037C599.18 578.396 597.266 576.208 594.531 574.567C592.07 572.653 588.788 571.286 585.233 570.739C578.123 569.645 571.833 572.106 567.731 574.02C563.902 575.935 561.714 577.575 561.714 577.849Z" fill="#263238"/>
<path d="M481.312 512.215C481.312 512.215 397.082 567.457 394.074 569.645C389.425 573.2 394.621 589.335 402.552 586.6C406.381 585.233 476.937 565.543 484.594 562.534C492.251 559.526 512.762 542.844 512.762 542.844L481.312 512.215Z" fill="#03AA99"/>
<path d="M456.153 555.698C456.426 555.698 455.059 550.775 450.41 546.673C446.034 542.571 440.838 541.477 440.838 541.75C440.565 542.297 445.214 543.665 449.316 547.767C453.691 551.595 455.879 555.971 456.153 555.698Z" fill="#263238"/>
<path d="M463.81 548.861C464.083 548.587 462.442 544.485 458.614 540.657C454.785 536.828 450.683 534.914 450.409 535.461C450.136 535.734 453.965 538.195 457.52 541.75C461.348 545.306 463.263 549.134 463.81 548.861Z" fill="#263238"/>
<path d="M471.467 543.938C471.74 543.938 471.467 539.015 467.912 534.64C464.356 530.264 459.707 528.623 459.707 529.17C459.434 529.444 463.536 531.358 466.818 535.734C469.826 539.836 470.92 544.211 471.467 543.938Z" fill="#263238"/>
<path d="M466.271 533.546C466.545 533.546 465.451 531.085 464.357 527.256C463.81 525.342 463.537 522.881 463.263 520.146C463.263 518.779 463.263 517.411 463.263 516.044C463.263 515.223 463.537 514.677 463.81 514.13C464.084 513.856 464.357 513.583 464.904 513.856C465.998 514.13 466.271 515.77 466.818 517.138C467.365 518.505 467.639 519.873 467.639 521.24C467.912 523.975 467.639 526.162 467.365 528.35C466.818 532.452 465.998 534.914 466.271 534.914C466.545 534.914 467.639 532.726 468.459 528.624C469.006 526.709 469.28 523.975 469.006 521.24C469.006 519.873 468.733 518.505 468.186 516.864C467.912 516.044 467.639 515.497 467.365 514.677C467.092 513.856 466.545 513.036 465.451 512.762C464.631 512.215 462.99 512.489 462.443 513.583C461.896 514.403 461.896 515.223 461.622 516.044C461.622 517.685 461.622 519.052 461.622 520.419C461.896 523.154 462.443 525.615 462.99 527.53C464.631 531.632 466.271 533.546 466.271 533.546Z" fill="#263238"/>
<path d="M466.271 532.726C466.271 533 468.459 531.906 471.741 531.085C473.381 530.812 475.569 530.265 477.757 530.265C478.851 530.265 480.218 530.265 481.312 530.538C482.406 530.812 483.226 531.359 483.226 532.453C483.226 533.547 482.68 534.64 481.859 535.187C481.039 535.734 479.945 536.008 478.851 536.281C476.663 536.555 474.475 536.008 472.834 535.734C469.553 534.64 467.365 533.82 467.365 534.094C467.365 534.367 469.279 535.461 472.561 536.828C474.202 537.375 476.39 537.922 478.851 537.649C479.945 537.649 481.312 537.375 482.68 536.555C484.047 535.734 484.867 534.367 484.867 532.453C484.867 530.538 482.953 529.444 481.586 529.171C480.218 528.897 478.851 528.897 477.757 528.897C475.296 529.171 473.108 529.444 471.467 529.991C467.912 531.085 465.998 532.453 466.271 532.726Z" fill="#263238"/>
<path d="M413.217 583.319C413.217 583.319 414.584 582.498 415.405 580.037C416.225 577.576 415.678 574.021 413.764 571.012C412.944 569.371 411.85 568.004 411.029 566.91C410.209 565.816 409.115 564.449 408.294 563.902C407.201 563.082 406.38 562.808 405.56 562.808C404.739 562.808 404.466 563.082 404.466 563.082C404.466 563.355 406.107 563.082 407.474 564.722C408.294 565.543 409.115 566.637 409.935 567.731C410.756 569.098 411.85 570.465 412.67 571.833C414.311 574.841 414.858 577.849 414.584 580.037C414.037 582.225 412.944 583.319 413.217 583.319Z" fill="#263238"/>
<path d="M443.573 560.893C443.847 560.893 443.847 556.518 440.565 552.689C437.283 548.861 433.181 548.04 433.181 548.314C432.908 548.861 436.463 550.228 439.471 553.51C442.206 557.065 443.026 560.893 443.573 560.893Z" fill="#263238"/>
<path d="M504.01 545.853C504.01 545.853 502.643 546.673 500.182 548.314C497.72 549.955 494.439 552.142 489.79 554.604C485.141 557.065 479.671 559.526 473.381 561.987C467.091 564.449 459.708 566.636 452.324 568.824C437.283 573.2 423.336 577.302 413.491 580.037C408.842 581.404 404.74 582.771 401.731 583.592C398.997 584.412 397.356 584.959 397.629 585.233C397.629 585.233 399.27 584.959 402.005 584.412C405.013 583.592 409.115 582.498 413.764 581.404C423.883 578.669 437.556 574.841 452.597 570.465C460.255 568.277 467.365 566.09 473.655 563.628C479.945 561.167 485.688 558.432 490.063 555.971C494.712 553.51 497.994 551.049 500.182 549.134C502.916 546.946 504.01 545.853 504.01 545.853Z" fill="#263238"/>
<path d="M507.018 546.947C507.018 546.673 504.283 545.853 499.908 545.032C495.532 544.212 488.695 543.938 482.132 547.22C478.85 548.861 476.389 551.322 474.475 553.783C472.56 556.245 471.467 558.706 470.646 560.894C469.005 564.996 468.185 567.73 468.185 568.004C468.458 568.004 469.552 565.543 471.466 561.441C473.381 557.612 476.662 551.869 482.679 548.861C488.695 545.853 495.259 545.853 499.634 546.4C504.283 546.673 507.018 547.22 507.018 546.947Z" fill="#263238"/>
<path d="M656.335 377.393C656.335 377.393 681.495 386.417 681.768 414.859C682.042 469.28 572.105 528.897 572.105 528.897L425.797 432.087L416.499 428.259C416.499 428.532 613.947 354.148 656.335 377.393Z" fill="#1E4174"/>
<path d="M499.909 481.039C499.909 481.039 501.276 480.219 503.737 478.578C506.199 476.937 509.48 474.202 513.856 470.921C522.333 464.357 533.546 455.333 545.852 444.667C558.158 434.002 568.824 424.157 576.481 417.046C580.31 413.491 583.318 410.483 585.506 408.295C587.694 406.108 588.787 405.014 588.514 405.014C588.514 405.014 587.147 406.108 584.959 408.022C582.498 410.21 579.489 412.944 575.661 416.5C567.73 423.61 556.791 433.455 544.758 443.847C532.452 454.239 521.24 463.537 513.035 470.374C509.207 473.655 505.925 476.39 503.464 478.304C501.003 479.945 499.909 481.039 499.909 481.039Z" fill="#143051"/>
<path d="M615.04 397.903C615.04 397.63 608.477 396.81 600.82 399.271C593.162 401.459 587.966 405.561 588.24 405.834C588.513 406.108 593.709 402.826 601.093 400.638C608.75 398.45 615.04 398.177 615.04 397.903Z" fill="#143051"/>
<path d="M602.462 389.152C602.462 388.879 597.539 390.793 593.711 395.716C589.882 400.365 588.788 405.561 589.061 405.561C589.608 405.834 590.976 401.185 594.804 396.536C598.633 392.161 602.735 389.699 602.462 389.152Z" fill="#143051"/>
<path d="M664.539 561.167C664.539 560.893 662.899 560.62 660.711 562.261C658.796 563.901 657.156 566.91 656.609 570.738C656.062 574.567 656.882 577.848 657.976 580.036C659.07 582.224 660.164 583.318 660.164 583.318C660.437 583.044 659.617 581.951 658.796 579.763C657.976 577.575 657.429 574.567 657.976 571.012C658.523 567.73 659.89 564.722 661.531 563.081C662.899 561.44 664.539 561.44 664.539 561.167Z" fill="#263238"/>
<path d="M622.698 288.788L570.738 420.875L346.216 424.43L342.114 412.397L420.874 409.663L458.614 292.343L622.698 288.788Z" fill="#455A64"/>
<path d="M517.958 345.943C520.966 344.029 526.162 344.849 528.623 347.037C531.084 349.225 532.178 353.327 530.811 356.609C529.443 359.89 526.162 362.078 522.607 362.352C519.051 362.625 514.949 360.164 514.129 356.609C513.035 353.053 514.402 347.857 517.958 345.943Z" fill="#EBEBEB"/>
<path d="M585.78 535.734C585.78 535.734 379.034 400.091 370.556 397.357C362.079 394.622 341.568 381.222 321.058 386.691C300.547 392.434 282.225 410.757 273.2 437.557C268.004 452.872 265.543 479.125 264.449 498.542C263.081 522.06 270.192 545.305 285.506 563.081C292.343 571.285 301.094 578.122 311.213 581.404C313.4 581.951 315.588 582.771 317.776 583.045C356.883 591.522 397.083 574.02 418.961 540.656L423.884 533.273C423.884 533.273 558.979 583.045 561.167 582.224L585.78 535.734Z" fill="#2B478B"/>
<path d="M330.083 498.268C330.083 498.268 330.356 498.541 331.176 498.815C331.997 499.088 333.091 499.635 334.458 500.182C337.466 501.276 341.842 502.917 347.585 505.105C359.071 509.48 375.753 515.77 396.263 523.427C417.047 531.085 441.66 540.383 469.554 550.501C497.448 560.62 528.077 571.832 561.167 582.771L561.714 583.045L561.988 582.498C567.184 572.653 572.653 562.261 578.123 551.595C580.857 546.126 583.866 540.93 586.327 535.734L586.6 535.187L586.053 534.913C523.975 495.533 468.46 460.255 428.259 434.822C408.296 422.242 392.161 412.124 380.949 405.014C375.479 401.458 371.104 398.724 368.095 397.083C366.728 396.262 365.634 395.442 364.814 394.895C363.993 394.348 363.72 394.348 363.72 394.348C363.72 394.348 363.993 394.622 364.814 395.169C365.634 395.716 366.728 396.536 368.095 397.356C371.104 399.271 375.206 402.005 380.949 405.561C392.161 412.671 408.022 423.063 427.986 435.916C467.913 461.349 523.428 496.901 585.506 536.281L585.233 535.187C582.498 540.109 579.763 545.579 577.029 551.048C571.559 561.714 566.09 572.106 560.894 581.951L561.714 581.677C528.897 570.465 497.995 559.526 470.101 549.407C442.206 539.289 417.594 530.264 396.81 522.607C376.026 514.95 359.618 508.933 347.858 504.558C342.115 502.37 337.74 501.003 334.732 499.635C333.364 499.088 331.997 498.815 331.176 498.541C330.629 498.541 330.083 498.268 330.083 498.268Z" fill="#1E4174"/>
<path d="M351.686 16.9555C355.241 7.38395 362.898 3.28185 372.743 0.820595C382.589 -1.64066 393.527 1.36754 401.185 8.20437C406.107 12.8534 409.936 19.1433 415.952 21.878C426.071 26.5271 439.197 19.6902 448.769 25.4332C454.512 28.7149 457.247 36.3721 455.059 42.662C452.871 48.9519 446.034 53.054 439.471 52.2335C446.034 55.2417 447.402 65.3603 442.753 71.1032C438.104 76.8461 429.626 78.487 422.789 76.2992C415.679 74.3849 409.936 69.4623 404.74 63.9929C399.817 58.5234 395.442 52.507 389.972 47.5845C384.503 42.662 377.939 38.5599 370.556 38.2864C360.711 38.0129 351.413 44.5763 346.217 53.054C341.021 61.5316 339.106 71.6501 337.739 81.4952C336.372 91.3402 335.278 101.459 331.449 110.483C330.902 111.577 330.355 112.671 329.261 112.945C327.62 113.218 326.527 111.577 325.706 109.936C318.322 92.4341 314.22 73.5644 313.947 54.4213C313.947 43.4824 315.041 33.0904 321.877 24.3393C328.988 15.8616 344.576 10.3922 351.686 16.9555Z" fill="#2C3A64"/>
<path d="M328.441 60.9845L313.127 171.468C310.666 190.337 324.066 207.293 343.209 208.933C360.711 210.574 376.573 197.995 379.034 180.492C380.128 172.288 381.222 165.178 381.222 164.357C381.222 164.357 409.663 165.451 415.679 138.104C418.414 124.704 422.243 96.8095 424.977 71.6499C428.259 44.5761 409.936 19.4166 383.136 14.2206L380.401 13.6736C351.14 9.29807 331.723 31.7229 328.441 60.9845Z" fill="#FF9A8D"/>
<path d="M381.221 163.81C381.221 163.81 363.446 161.623 347.311 146.308C347.311 146.308 351.96 167.912 379.854 170.921L381.221 163.81Z" fill="#BA5964"/>
<path d="M326.526 81.7684C325.979 81.4949 308.751 72.4703 305.469 91.34C302.187 110.21 322.151 109.663 322.151 109.116C322.151 108.569 326.526 81.7684 326.526 81.7684Z" fill="#FF9A8D"/>
<path d="M317.502 101.185C317.502 101.185 317.229 101.459 316.408 101.459C315.861 101.732 314.768 101.732 313.947 101.185C312.033 100.091 310.939 96.5361 311.486 93.2545C311.759 91.6136 312.306 89.9728 313.127 88.6054C313.947 87.2381 315.041 86.4176 316.135 86.4176C317.229 86.4176 317.776 86.9646 318.049 87.785C318.323 88.3319 318.049 88.6054 318.049 88.8789C318.049 88.8789 318.596 88.6054 318.596 87.785C318.596 87.5115 318.323 86.9646 318.049 86.4176C317.776 85.8707 316.955 85.5972 316.408 85.5972C315.041 85.3237 313.4 86.6911 312.58 88.0585C311.486 89.4258 310.939 91.3401 310.665 93.2545C310.119 97.0831 311.486 100.912 314.221 102.279C315.588 102.826 316.682 102.553 317.229 102.279C317.502 101.459 317.502 101.185 317.502 101.185Z" fill="#BA5964"/>
<path d="M431.813 67.0012C418.96 67.8216 405.833 62.0787 397.902 51.9601C392.433 44.8498 388.878 35.8252 380.947 31.4497C375.751 28.4415 369.187 28.4415 363.445 30.3558C357.702 32.2701 352.506 35.8252 348.13 39.6539C350.591 54.6949 344.028 69.7359 337.465 83.4096C336.644 85.0504 335.824 86.6912 334.456 87.2382C331.995 88.6055 328.713 86.4178 327.346 83.9565C324.885 80.1279 324.611 75.2054 324.611 70.5563C324.885 60.1643 326.526 49.4989 330.901 39.9273C335.277 30.3558 341.84 21.8781 350.865 16.1352C361.804 9.02486 375.751 7.11054 388.604 9.84528C401.457 12.58 412.943 19.9638 421.694 29.8088C425.796 34.4579 429.352 39.6539 430.719 45.3968" fill="#2C3A64"/>
<path d="M91.8867 516.591C91.8867 516.591 92.1602 516.317 92.4337 515.497C92.7072 514.677 93.2541 513.583 94.0745 512.215C95.4419 509.207 97.0827 504.832 98.7236 499.089C101.732 487.329 102.826 469.28 98.4501 447.949C96.2623 437.284 92.9806 425.798 88.8785 413.765C84.7764 401.459 80.1274 388.605 76.2988 374.658C72.4701 360.711 69.4619 345.67 70.0089 329.809C70.5558 313.947 75.2049 298.086 80.4009 282.224C85.5969 266.363 90.7928 251.049 92.4337 235.461C94.348 219.873 90.7928 204.832 83.956 192.252C77.1192 179.672 68.3681 168.733 62.0782 157.794C55.5148 146.582 51.4127 135.096 48.9515 124.43C44.029 102.826 45.6698 84.7768 48.131 73.0175C50.5923 60.9847 53.6005 54.9683 53.6005 54.9683C53.6005 54.9683 53.6005 55.5152 53.327 56.0622C53.0536 56.8826 52.7801 57.9765 52.2331 59.6173C51.4127 62.6255 50.0454 67.2745 48.9515 73.291C46.4902 84.7768 44.8494 102.553 50.0454 123.883C52.5066 134.549 56.6087 145.761 63.1721 156.7C69.7354 167.639 78.2131 178.578 85.3234 191.158C92.4337 203.738 95.9888 219.599 94.0745 235.187C92.4337 251.049 86.9642 266.636 82.0417 282.224C76.8457 298.086 72.1967 313.674 71.6497 329.262C71.1028 344.85 73.8375 359.891 77.6661 373.838C81.4948 387.785 86.1438 400.638 89.9724 412.945C94.0745 425.251 97.3562 436.737 99.2705 447.402C103.646 469.007 102.279 487.056 99.2705 498.815C97.6297 504.832 95.7154 509.207 94.348 511.942C93.5276 513.309 92.9806 514.403 92.7072 515.224C92.1602 516.044 91.8867 516.591 91.8867 516.591Z" fill="#263238"/>
<path d="M70.8292 168.459C70.8292 168.459 57.7025 126.618 81.2212 102.005C82.0416 101.185 83.409 101.458 83.6824 102.826C84.7763 109.663 86.4172 130.72 70.8292 168.459Z" fill="#6BB7BF"/>
<path d="M78.4859 115.953C78.7594 115.953 78.2124 118.961 77.6655 123.61C76.845 128.806 75.7511 135.096 74.6573 142.206C73.5634 149.043 72.4695 155.333 71.6491 160.529C70.8286 165.178 70.5552 168.186 70.2817 168.186C70.0082 168.186 70.0082 165.178 70.5552 160.529C71.1021 155.88 71.9225 149.043 73.0164 141.933C74.1103 134.822 75.4777 128.259 76.5716 123.61C77.6655 118.687 78.4859 115.953 78.4859 115.953Z" fill="#263238"/>
<path d="M86.1438 267.183C86.1438 267.183 94.0745 223.975 126.344 213.309C127.438 213.036 128.532 213.856 128.259 215.224C126.071 221.787 117.593 241.203 86.1438 267.183Z" fill="#6BB7BF"/>
<path d="M117.593 224.522C117.866 224.795 115.952 226.983 113.217 230.811C109.935 235.187 106.107 240.109 102.005 245.852C97.9026 251.322 94.074 256.518 90.7923 260.893C88.0576 264.722 86.1433 267.183 85.8698 266.91C85.5963 266.91 87.2372 264.175 89.6984 260.073C92.4332 255.971 96.2618 250.501 100.637 244.759C105.013 239.016 109.115 233.82 112.397 229.991C115.405 226.436 117.319 224.248 117.593 224.522Z" fill="#263238"/>
<path d="M77.3931 375.205C77.3931 375.205 72.4706 331.723 100.365 312.033C101.459 311.213 102.553 312.033 102.553 313.127C102.553 320.237 100.091 341.295 77.3931 375.205Z" fill="#6BB7BF"/>
<path d="M95.1684 325.16C95.4418 325.16 94.3479 328.168 92.7071 332.543C90.7928 337.466 88.605 343.482 86.1438 350.046C83.6825 356.609 81.4947 362.625 79.8539 367.548C78.213 371.924 77.3926 374.932 77.1191 374.658C76.8457 374.658 77.3926 371.65 78.76 367.001C80.1273 362.352 82.3151 356.062 84.7764 349.225C87.2376 342.388 89.6989 336.099 91.6132 331.723C93.5275 327.894 94.8949 325.16 95.1684 325.16Z" fill="#263238"/>
<path d="M101.731 484.048C101.731 484.048 98.4492 440.292 126.89 421.696C127.984 421.149 129.078 421.696 129.078 423.063C128.805 429.9 125.523 450.958 101.731 484.048Z" fill="#F99746"/>
<path d="M121.148 434.823C121.421 434.823 120.327 437.831 118.413 442.207C116.499 447.129 114.037 453.146 111.303 459.436C108.568 465.999 106.38 471.742 104.192 476.664C102.552 481.04 101.458 483.775 101.184 483.775C100.911 483.775 101.731 480.767 103.099 476.117C104.466 471.468 106.927 465.452 109.662 458.615C112.397 451.778 115.131 445.762 117.319 441.386C119.507 437.284 120.874 434.55 121.148 434.823Z" fill="#263238"/>
<path d="M51.9598 131.541C51.9598 131.541 13.1266 111.304 12.3062 77.393C12.3062 76.2991 13.6735 75.4787 14.4939 76.0257C20.2369 80.1278 36.3718 93.8014 51.9598 131.541Z" fill="#6BB7BF"/>
<path d="M20.5101 89.1523C20.7836 89.1523 22.4244 91.3401 25.4326 95.1688C28.7143 99.5443 32.2694 104.74 36.3715 110.21C40.4736 115.953 44.3023 120.875 47.3105 125.251C50.0452 129.079 51.9595 131.541 51.686 131.541C51.4126 131.814 49.4982 129.626 46.2166 125.798C43.2084 122.243 39.1063 116.773 34.7307 111.03C30.3551 105.014 26.8 99.5443 24.0652 95.4422C21.604 91.6136 20.2366 89.1523 20.5101 89.1523Z" fill="#263238"/>
<path d="M93.8005 221.514C93.8005 221.514 53.8734 203.738 50.8652 169.827C50.8652 168.733 51.9591 167.913 53.053 168.46C59.0694 172.015 75.7513 184.868 93.8005 221.514Z" fill="#6BB7BF"/>
<path d="M59.6168 181.039C59.8902 180.766 61.8046 183.227 64.8128 186.782C68.0944 190.884 72.1965 195.807 76.5721 201.276C80.9477 206.746 85.0498 211.668 88.3314 215.77C91.3396 219.326 93.254 221.787 93.254 221.787C92.9805 222.06 90.7927 219.872 87.511 216.591C84.2293 213.036 79.8538 208.113 75.2047 202.37C70.5557 196.627 66.4536 191.431 63.7189 187.603C60.9841 183.501 59.3433 181.039 59.6168 181.039Z" fill="#263238"/>
<path d="M70.556 321.604C70.556 321.604 42.9353 287.42 56.062 255.971C56.6089 254.877 57.9763 254.603 58.5232 255.697C62.3519 261.987 71.3765 280.857 70.556 321.604Z" fill="#6BB7BF"/>
<path d="M58.7974 270.191C59.0708 270.191 59.6178 272.926 60.7117 277.575C61.8056 282.771 63.1729 289.061 64.8138 295.898C66.1812 302.735 67.5485 309.025 68.9159 314.221C70.0098 318.87 70.5567 321.878 70.2832 321.878C70.0098 321.878 68.9159 319.143 67.5485 314.494C66.1812 309.845 64.5403 303.555 63.1729 296.171C61.5321 289.061 60.4382 282.498 59.6178 277.849C58.7974 273.2 58.5239 270.191 58.7974 270.191Z" fill="#263238"/>
<path d="M97.9032 439.745C97.9032 439.745 58.2496 421.148 56.0618 387.238C56.0618 386.144 57.1557 385.323 58.2496 385.87C63.9925 389.699 80.6743 402.826 97.9032 439.745Z" fill="#F99746"/>
<path d="M64.539 398.45C64.8125 398.45 66.7268 400.638 69.735 404.193C73.0167 408.295 77.1188 413.491 81.2209 418.961C85.5965 424.43 89.4251 429.353 92.9802 433.455C95.9884 437.283 97.9027 439.471 97.6293 439.745C97.3558 440.018 95.168 437.83 92.1598 434.275C88.8781 430.72 84.5026 425.798 80.127 420.055C75.4779 414.312 71.6493 409.116 68.9146 405.014C65.9064 401.185 64.2656 398.724 64.539 398.45Z" fill="#263238"/>
<path d="M176.938 267.183C176.938 267.183 176.938 267.457 176.938 268.277C176.938 269.097 176.938 269.918 176.938 271.012C176.938 273.746 176.664 277.302 176.391 281.677C175.844 290.975 175.297 304.102 174.203 319.69C171.468 335.551 163.264 353.054 152.325 370.282C144.395 382.862 135.917 394.348 128.807 405.014C121.696 415.679 115.406 425.524 111.304 434.275C106.929 443.026 104.468 450.41 103.1 455.606C102.28 458.341 102.006 460.255 101.459 461.623C101.186 462.99 100.912 463.81 100.912 463.81C100.912 463.81 100.912 462.99 101.186 461.623C101.459 460.255 101.733 458.067 102.553 455.333C103.921 450.137 106.108 442.479 110.484 433.728C114.586 424.977 120.602 414.859 127.986 404.193C135.096 393.528 143.574 382.042 151.231 369.462C161.897 352.507 170.101 335.278 173.109 319.416C174.203 303.829 175.024 290.702 175.844 281.404C176.117 277.028 176.391 273.473 176.664 270.738C176.664 269.644 176.938 268.824 176.938 268.004C176.938 267.73 176.938 267.183 176.938 267.183Z" fill="#263238"/>
<path d="M153.419 367.001C153.419 367.001 170.374 326.527 149.043 300C148.223 299.18 146.856 299.454 146.582 300.547C144.668 307.384 141.113 328.168 153.419 367.001Z" fill="#E8505B"/>
<path d="M150.411 314.221C150.685 314.221 151.232 317.229 151.779 321.878C152.326 326.527 153.146 333.091 153.693 340.475C154.24 347.858 154.514 354.422 154.514 359.071C154.514 363.993 154.24 366.728 153.967 366.728C153.693 366.728 153.693 363.72 153.146 359.071C152.873 353.601 152.326 347.311 151.779 340.475C151.232 333.638 150.958 327.074 150.411 321.878C150.138 317.229 150.138 314.221 150.411 314.221Z" fill="#263238"/>
<g opacity="0.3">
<g opacity="0.3">
<path opacity="0.3" d="M153.419 367.001C153.419 367.001 170.374 326.527 149.043 300C148.223 299.18 146.856 299.454 146.582 300.547C144.668 307.384 141.113 328.168 153.419 367.001Z" fill="#6BB7BF"/>
</g>
</g>
<path d="M101.185 464.631C101.185 464.631 114.586 422.789 91.3403 398.177C90.5199 397.356 89.1526 397.63 88.8791 398.997C87.7852 405.834 85.8709 426.891 101.185 464.631Z" fill="#E8505B"/>
<path d="M93.801 412.124C94.0745 412.124 94.8949 414.859 95.7153 419.781C96.8092 424.43 97.9031 430.994 98.997 438.104C100.091 445.214 100.911 452.051 101.185 456.7C101.458 461.623 101.458 464.357 101.458 464.357C101.185 464.357 100.911 461.349 100.091 456.7C99.2705 451.504 98.4501 445.214 97.3562 438.104C96.2623 431.267 95.4419 424.977 94.6214 419.508C94.0745 415.132 93.801 412.124 93.801 412.124Z" fill="#263238"/>
<g opacity="0.3">
<g opacity="0.3">
<path opacity="0.3" d="M101.185 464.631C101.185 464.631 114.586 422.789 91.3403 398.177C90.5199 397.356 89.1526 397.63 88.8791 398.997C87.7852 405.834 85.8709 426.891 101.185 464.631Z" fill="#2C3A64"/>
</g>
</g>
<path d="M174.75 317.502C174.75 317.502 210.575 292.343 207.02 258.706C207.02 257.612 205.379 257.065 204.559 257.885C199.363 262.534 185.415 278.122 174.75 317.502Z" fill="#E8505B"/>
<g opacity="0.3">
<g opacity="0.3">
<path opacity="0.3" d="M174.75 317.502C174.75 317.502 210.575 292.343 207.02 258.706C207.02 257.612 205.379 257.065 204.559 257.885C199.363 262.534 185.415 278.122 174.75 317.502Z" fill="#2C3A64"/>
</g>
</g>
<path d="M200.456 271.286C200.73 271.286 199.636 274.02 197.448 278.396C195.534 282.772 192.526 288.514 188.97 295.078C185.415 301.641 182.134 307.111 179.672 311.213C177.211 315.315 175.297 317.503 175.023 317.503C174.75 317.503 176.391 314.768 178.578 310.666C181.04 306.017 184.321 300.274 187.603 294.257C190.885 288.241 193.893 282.498 196.628 277.849C198.815 273.747 200.456 271.286 200.456 271.286Z" fill="#263238"/>
<path d="M115.679 423.336C115.679 423.336 158.888 416.5 170.647 384.777C170.921 383.683 170.1 382.589 169.006 382.862C162.169 384.503 142.479 392.434 115.679 423.336Z" fill="#E8505B"/>
<g opacity="0.3">
<g opacity="0.3">
<path opacity="0.3" d="M115.679 423.336C115.679 423.336 158.888 416.5 170.647 384.777C170.921 383.683 170.1 382.589 169.006 382.862C162.169 384.503 142.479 392.434 115.679 423.336Z" fill="#6BB7BF"/>
</g>
</g>
<path d="M159.161 392.981C159.434 393.254 156.973 395.169 153.418 398.177C149.589 401.185 144.393 405.287 138.377 409.389C132.36 413.765 126.891 417.32 122.789 419.781C118.687 422.243 115.952 423.61 115.952 423.336C115.952 423.063 118.14 421.422 122.242 418.687C126.617 415.679 131.813 411.851 137.556 408.022C143.299 403.92 148.495 400.365 152.871 397.083C156.699 394.622 159.161 392.981 159.161 392.981Z" fill="#263238"/>
<path d="M74.384 502.917L61.8042 587.968H140.564L130.446 502.917H74.384Z" fill="#F99746"/>
<path d="M101.731 530.264C119.251 530.264 133.454 529.897 133.454 529.444C133.454 528.991 119.251 528.624 101.731 528.624C84.2111 528.624 70.0083 528.991 70.0083 529.444C70.0083 529.897 84.2111 530.264 101.731 530.264Z" fill="#263238"/>
<path d="M102.279 536.828C120.404 536.828 135.096 536.461 135.096 536.007C135.096 535.554 120.404 535.187 102.279 535.187C84.1552 535.187 69.4626 535.554 69.4626 536.007C69.4626 536.461 84.1552 536.828 102.279 536.828Z" fill="#263238"/>
</g>
<defs>
<clipPath id="clip0_159_4215">
<rect width="730.447" height="600" fill="white"/>
</clipPath>
</defs>
</svg>
