<svg width="16" height="16" viewBox="0 0 16 16" fill="none" xmlns="http://www.w3.org/2000/svg">
    <g clip-path="url(#clip0)">
        <path d="M15.8 14.7L12.5 11.4C13.5 10.2 14.1 8.7 14.1 7C14.1 3.1 11 0 7.1 0C3.2 0 0 3.1 0 7C0 10.9 3.1 14 7 14C8.7 14 10.2 13.4 11.4 12.4L14.7 15.7C14.8 15.8 15 15.9 15.2 15.9C15.4 15.9 15.6 15.8 15.7 15.7C16.1 15.5 16.1 15 15.8 14.7ZM1.5 7C1.5 4 4 1.5 7 1.5C10 1.5 12.5 4 12.5 7C12.5 8.4 12 9.7 11.1 10.7C11 10.8 10.8 11 10.7 11.1C9.7 12 8.4 12.5 7 12.5C4 12.5 1.5 10 1.5 7Z" fill="#8B93A5" />
    </g>
    <defs>
        <clipPath id="clip0">
            <rect width="16" height="16" fill="white" />
        </clipPath>
    </defs>
</svg>
