<svg width="49" height="36" viewBox="0 0 49 36" fill="none" xmlns="http://www.w3.org/2000/svg">
    <path d="M18.7408 -3.71586e-07C13.8463 1.54562 9.46707 4.95886 5.66743 10.2397C1.86778 15.5206 0.000161597 20.2218 0.000161236 24.3435C0.000160876 28.4651 1.03057 31.4275 3.15579 33.2952C5.28102 35.0984 7.92145 36 11.1415 36C14.3615 36 17.1951 34.712 19.5136 32.0716C21.832 29.4311 22.9912 26.5331 22.9912 23.3775C22.9912 20.2218 21.9608 17.7746 19.9 16.0358C17.8392 14.297 16.1003 13.3953 14.6191 13.3953C14.7479 12.4937 15.3919 11.0125 16.7443 9.0161C18.0324 7.01968 19.578 5.28086 21.3812 3.92844C21.2524 2.12522 20.3508 0.837208 18.7408 -3.71586e-07Z" fill="#7797E9" />
    <path d="M44.437 -3.65956e-07C41.1526 1.03041 38.0613 2.96243 35.1633 5.79606C32.2653 8.62969 29.9468 11.8497 28.2724 15.3918C26.598 18.9338 25.7608 22.347 25.7608 25.5671C25.7608 28.7871 26.7912 31.3631 28.852 33.2308C30.8485 35.0984 33.4889 36 36.7733 36C39.9934 36 42.827 34.712 45.1454 32.0716C47.4638 29.4311 48.623 26.5331 48.623 23.3775C48.623 20.2218 47.5926 17.7746 45.5318 16.0358C43.471 14.297 41.7322 13.3953 40.251 13.3953C40.3154 12.4937 41.0238 11.0125 42.3762 9.0161C43.6642 7.01968 45.2742 5.28086 47.0774 3.92844C46.8842 2.18962 46.047 0.901611 44.437 -3.65956e-07Z" fill="#7797E9" />
</svg>
