<svg width="24" height="21" viewBox="0 0 24 21" fill="none" xmlns="http://www.w3.org/2000/svg">
<g clip-path="url(#clip0_105_4138)">
<path d="M22.9993 2.34977H21.9993V0.649775C22.0105 0.55726 21.9997 0.463402 21.9677 0.37588C21.9357 0.288358 21.8834 0.209666 21.8151 0.14625C21.7468 0.0828354 21.6644 0.0365018 21.5748 0.0110424C21.4851 -0.0144171 21.3907 -0.0182748 21.2993 -0.000218634H20.8993H20.6793C18.9458 0.104782 17.2306 0.413574 15.5693 0.91978C14.8093 1.16978 14.0493 1.45978 13.3093 1.72978L12.0793 2.19978C12.0073 2.21982 11.9313 2.21982 11.8593 2.19978L11.0693 1.87977L10.7293 1.73977C8.18152 0.699851 5.47731 0.0947919 2.7293 -0.0502217C2.63065 -0.0653964 2.52993 -0.0599003 2.43353 -0.0340779C2.33713 -0.00825549 2.24715 0.0373231 2.1693 0.0997722C2.10339 0.174338 2.05342 0.261599 2.02247 0.356181C1.99151 0.450763 1.98022 0.550671 1.9893 0.649775V2.29977H1.7393C1.4093 2.29977 1.0793 2.29977 0.739296 2.29977C0.596217 2.29121 0.453634 2.32329 0.328005 2.3923C0.202375 2.46131 0.0988223 2.56444 0.0292969 2.68978V19.5198V19.5998C0.0994138 19.7417 0.212628 19.8578 0.352734 19.9314C0.492839 20.0051 0.652651 20.0325 0.809296 20.0098H23.2093C23.8293 20.0098 24.0193 19.8198 24.0193 19.2098V3.29977C23.9993 2.47977 23.8593 2.34977 22.9993 2.34977ZM22.7693 3.53977V18.8698H15.1893L15.8293 18.6698C17.5386 18.1644 19.3 17.8558 21.0793 17.7498C21.8993 17.6898 22.0793 17.5598 22.0793 16.7498V3.53977H22.7693ZM12.5393 3.46978C12.5393 3.34978 12.5393 3.32977 12.6893 3.26977C14.3406 2.52443 16.0719 1.97083 17.8493 1.61978C18.5593 1.48978 19.2693 1.39977 20.0093 1.28977L20.7893 1.18978V16.5598C17.947 16.7408 15.1583 17.4177 12.5493 18.5598V15.9398C12.576 11.7798 12.586 7.62312 12.5793 3.46978H12.5393ZM11.3693 3.39978V18.5798C8.75794 17.4446 5.97047 16.7681 3.1293 16.5798V1.21978H3.3693L4.3693 1.31977C6.79075 1.62661 9.15124 2.30103 11.3693 3.31977C11.4093 3.32977 11.4093 3.32978 11.4093 3.39978H11.3693ZM1.9993 17.0498C1.99236 17.1313 2.00247 17.2135 2.029 17.2909C2.05553 17.3684 2.09789 17.4395 2.15338 17.4997C2.20887 17.5599 2.27629 17.6079 2.35134 17.6406C2.42639 17.6733 2.50742 17.6901 2.5893 17.6898L3.50929 17.7898C4.11929 17.8498 4.75929 17.9198 5.3693 18.0098C6.56153 18.1918 7.73588 18.4762 8.8793 18.8598H1.1893V3.54977H1.9993V17.0498Z" fill="#333333"/>
</g>
<defs>
<clipPath id="clip0_105_4138">
<rect width="24" height="20.05" fill="white"/>
</clipPath>
</defs>
</svg>
