<svg width="240" height="120" viewBox="0 0 240 120" fill="none" xmlns="http://www.w3.org/2000/svg">
<path d="M161.379 39.0405H78.6202C76.0809 39.0405 74.0225 41.0964 74.0225 43.6324V63.8368C74.0225 66.3729 76.0809 68.4287 78.6202 68.4287H161.379C163.918 68.4287 165.976 66.3729 165.976 63.8368V43.6324C165.976 41.0964 163.918 39.0405 161.379 39.0405Z" fill="#7C98E3"/>
<path d="M90.6165 49.7993H91.7383L94.4325 56.3428H94.4647L97.159 49.7993H98.2808V57.5642H97.3613V51.5626H97.3291L94.8463 57.5642H94.0233L91.5406 51.5626H91.5084V57.5642H90.5889L90.6165 49.7993Z" fill="white"/>
<path d="M99.5215 55.9802C99.5215 55.0297 100.266 54.4327 101.554 54.3547L103.158 54.2628V53.8036C103.158 53.1195 102.699 52.7062 101.931 52.7062C101.163 52.7062 100.758 53.0506 100.648 53.5511V53.6016H99.7284V53.5419C99.8112 52.6235 100.611 51.8796 101.935 51.8796C103.259 51.8796 104.087 52.596 104.087 53.7164V57.5874H103.167V56.669C102.993 56.9795 102.739 57.2376 102.431 57.4161C102.123 57.5947 101.772 57.6871 101.416 57.6838C100.271 57.67 99.5215 56.9996 99.5215 55.9802ZM101.6 56.8573C101.796 56.8703 101.993 56.8436 102.179 56.7787C102.365 56.7137 102.536 56.612 102.682 56.4794C102.827 56.3469 102.944 56.1864 103.026 56.0075C103.108 55.8286 103.153 55.635 103.158 55.4384V54.9792L101.664 55.071C100.915 55.1169 100.482 55.4475 100.482 55.9894C100.482 56.5221 100.924 56.8573 101.6 56.8573Z" fill="white"/>
<path d="M109.383 52.7426H107.576V57.5641H106.657V52.7426H104.854V51.9666H109.402L109.383 52.7426Z" fill="white"/>
<path d="M109.877 54.7859C109.877 53.0548 110.865 51.8655 112.396 51.8655C113.928 51.8655 114.861 52.9997 114.861 54.6803V55.0247H110.824C110.824 56.1727 111.482 56.8615 112.479 56.8615C112.769 56.8888 113.059 56.8222 113.307 56.6717C113.556 56.5211 113.749 56.2946 113.859 56.0257V55.9798H114.778V56.0303C114.645 56.5287 114.343 56.9658 113.924 57.2678C113.505 57.5698 112.995 57.7182 112.479 57.688C110.847 57.6696 109.877 56.5446 109.877 54.7859ZM110.838 54.2854H113.905C113.813 53.2017 113.21 52.6874 112.392 52.6874C111.574 52.6874 110.93 53.2431 110.838 54.2854Z" fill="white"/>
<path d="M115.903 57.5641V51.9666H117.053L119.034 56.3243H119.076L121.076 51.9666H122.175V57.5641H121.255V53.5921H121.218L119.411 57.4034H118.694L116.896 53.5921H116.86V57.5641H115.903Z" fill="white"/>
<path d="M123.269 55.9802C123.269 55.0297 124.013 54.4327 125.301 54.3547L126.905 54.2628V53.8036C126.905 53.1195 126.446 52.7062 125.678 52.7062C124.91 52.7062 124.501 53.0506 124.395 53.5511V53.6016H123.475V53.5419C123.554 52.6235 124.358 51.8796 125.678 51.8796C126.997 51.8796 127.834 52.596 127.834 53.7164V57.5874H126.915V56.669C126.741 56.9798 126.487 57.2382 126.178 57.4168C125.87 57.5954 125.519 57.6876 125.163 57.6838C124.018 57.67 123.269 56.9996 123.269 55.9802ZM125.342 56.8573C125.539 56.8703 125.736 56.8436 125.922 56.7787C126.109 56.7139 126.28 56.6121 126.426 56.4797C126.572 56.3472 126.689 56.1867 126.772 56.0078C126.854 55.8289 126.9 55.6352 126.905 55.4384V54.9792L125.406 55.071C124.657 55.1169 124.225 55.4476 124.225 55.9894C124.225 56.5221 124.671 56.8573 125.342 56.8573Z" fill="white"/>
<path d="M133.125 52.7426H131.323V57.5641H130.404V52.7426H128.597V51.9666H133.144L133.125 52.7426Z" fill="white"/>
<path d="M133.996 51.9666H134.916V56.1268H134.957L137.748 51.9666H138.667V57.5641H137.748V53.4038H137.706L134.916 57.5641H133.996V51.9666Z" fill="white"/>
<path d="M140.947 54.9788V57.5641H140.027V51.9666H140.947V54.336H141.163L143.37 51.9666H144.492L141.995 54.6161L144.57 57.5641H143.384L141.149 54.9788H140.947Z" fill="white"/>
<path d="M144.983 55.9802C144.983 55.0297 145.724 54.4327 147.011 54.3547L148.62 54.2628V53.8036C148.62 53.1195 148.16 52.7062 147.388 52.7062C146.616 52.7062 146.216 53.0506 146.105 53.5511V53.6016H145.186V53.5419C145.268 52.6235 146.073 51.8796 147.393 51.8796C148.712 51.8796 149.544 52.596 149.544 53.7164V57.5874H148.625V56.669C148.451 56.9795 148.196 57.2376 147.888 57.4161C147.58 57.5947 147.229 57.6871 146.873 57.6838C145.728 57.67 144.983 56.9996 144.983 55.9802ZM147.057 56.8573C147.254 56.8703 147.451 56.8436 147.637 56.7787C147.823 56.7139 147.995 56.6121 148.141 56.4797C148.287 56.3472 148.404 56.1867 148.487 56.0078C148.569 55.8289 148.614 55.6352 148.62 55.4384V54.9792L147.121 55.071C146.372 55.1169 145.94 55.4475 145.94 55.9894C145.94 56.5221 146.381 56.8573 147.057 56.8573Z" fill="white"/>
<path d="M60.2298 68.8879H5.05747C3.71614 68.8879 2.42977 68.3557 1.48132 67.4084C0.532856 66.4612 0 65.1764 0 63.8368V43.6324C0 42.2928 0.532856 41.008 1.48132 40.0607C2.42977 39.1135 3.71614 38.5813 5.05747 38.5813H60.2298C61.5712 38.5813 62.8576 39.1135 63.806 40.0607C64.7545 41.008 65.2873 42.2928 65.2873 43.6324V63.8368C65.2873 65.1764 64.7545 66.4612 63.806 67.4084C62.8576 68.3557 61.5712 68.8879 60.2298 68.8879ZM5.05747 39.4997C3.96002 39.4997 2.90753 39.9351 2.13151 40.7101C1.3555 41.4852 0.91954 42.5363 0.91954 43.6324V63.8368C0.91954 64.9328 1.3555 65.984 2.13151 66.759C2.90753 67.5341 3.96002 67.9695 5.05747 67.9695H60.2298C61.3273 67.9695 62.3798 67.5341 63.1558 66.759C63.9318 65.984 64.3678 64.9328 64.3678 63.8368V43.6324C64.3678 42.5363 63.9318 41.4852 63.1558 40.7101C62.3798 39.9351 61.3273 39.4997 60.2298 39.4997H5.05747Z" fill="#DDE6FD"/>
<path d="M18.1708 56.8843C16.065 56.8247 14.7363 55.5848 14.7363 53.67C14.7363 51.7552 16.065 50.5154 18.1708 50.4557V49.7485H19.1271V50.4557C21.2375 50.5016 22.5616 51.7414 22.5616 53.67C22.5616 55.5665 21.2375 56.8063 19.1271 56.8843V57.6328H18.1708V56.8843ZM18.1708 56.0211V51.3419C16.6582 51.3924 15.7294 52.2879 15.7294 53.6792C15.7294 55.066 16.6765 55.9614 18.1708 56.0211ZM19.1271 56.0211C20.6444 55.9614 21.5685 55.066 21.5685 53.6884C21.5685 52.3108 20.649 51.3924 19.1271 51.3511V56.0211Z" fill="#DDE6FD"/>
<path d="M23.6777 51.9941H24.5973V56.1544H24.6433L27.4341 51.9941H28.3536V57.5917H27.4341V53.4314H27.3881L24.5973 57.5917H23.6777V51.9941Z" fill="#DDE6FD"/>
<path d="M29.3516 56.182V56.1361H30.3033V56.1912C30.4366 56.6504 30.8872 56.9213 31.5539 56.9213C32.3309 56.9213 32.8182 56.5678 32.8182 56.003C32.8182 55.406 32.409 55.1259 31.5539 55.1259H30.7125V54.3499H31.5539C32.2987 54.3499 32.6711 54.0698 32.6711 53.5141C32.6711 52.9907 32.2757 52.6784 31.6136 52.6784C30.9516 52.6784 30.501 52.9631 30.4182 53.3994V53.4269H29.4987V53.3902C29.6274 52.4718 30.4412 51.907 31.6044 51.907C32.7676 51.907 33.5768 52.4902 33.5768 53.4407C33.5808 53.7246 33.4871 54.0012 33.3113 54.2243C33.1356 54.4475 32.8885 54.6037 32.6113 54.6667V54.708C32.9202 54.74 33.2062 54.8855 33.4135 55.1164C33.6209 55.3472 33.7348 55.6469 33.7332 55.957C33.7332 56.9948 32.855 57.6928 31.5447 57.6928C30.3401 57.6974 29.4619 57.0958 29.3516 56.182Z" fill="#DDE6FD"/>
<path d="M34.8193 51.9941H35.7389V56.1544H35.7802L38.571 51.9941H39.4906V57.5917H38.571V53.4314H38.5297L35.7389 57.5917H34.8193V51.9941Z" fill="#DDE6FD"/>
<path d="M41.7691 55.0064V57.5917H40.8496V51.9941H41.7691V54.3636H41.9852L44.1921 51.9941H45.3278L42.8312 54.6437L45.4059 57.5917H44.2197L41.9852 55.0064H41.7691Z" fill="#DDE6FD"/>
<path d="M45.8027 56.0076C45.8027 55.0524 46.5476 54.4555 47.8349 54.382L49.4395 54.2902V53.831C49.4395 53.1468 48.9798 52.7335 48.2119 52.7335C47.4441 52.7335 47.0395 53.0779 46.9292 53.5784V53.6289H46.0096V53.5692C46.0924 52.6509 46.8924 51.907 48.2165 51.907C49.5407 51.907 50.3683 52.6187 50.3683 53.7437V57.6147H49.4487V56.6963C49.2747 57.0069 49.0203 57.2649 48.7121 57.4435C48.4039 57.622 48.0533 57.7145 47.697 57.7111C46.5614 57.6974 45.8027 57.027 45.8027 56.0076ZM47.8809 56.8846C48.0774 56.8977 48.2746 56.8709 48.4605 56.806C48.6464 56.7411 48.8173 56.6393 48.9629 56.5068C49.1084 56.3743 49.2257 56.2137 49.3076 56.0348C49.3895 55.8559 49.4344 55.6624 49.4395 55.4657V55.0065L47.9453 55.0984C47.1959 55.1443 46.7637 55.4749 46.7637 56.0167C46.7637 56.5448 47.205 56.8846 47.8809 56.8846Z" fill="#DDE6FD"/>
<path d="M110.804 107.685H55.6317C54.2904 107.685 53.004 107.153 52.0555 106.205C51.1071 105.258 50.5742 103.973 50.5742 102.634V82.4293C50.5742 81.0896 51.1071 79.8049 52.0555 78.8576C53.004 77.9103 54.2904 77.3782 55.6317 77.3782H110.804C112.145 77.3782 113.432 77.9103 114.38 78.8576C115.329 79.8049 115.862 81.0896 115.862 82.4293V102.634C115.862 103.973 115.329 105.258 114.38 106.205C113.432 107.153 112.145 107.685 110.804 107.685ZM55.6317 78.2966C54.5342 78.2966 53.4817 78.732 52.7057 79.507C51.9297 80.282 51.4938 81.3332 51.4938 82.4293V102.634C51.4938 103.73 51.9297 104.781 52.7057 105.556C53.4817 106.331 54.5342 106.766 55.6317 106.766H110.804C111.901 106.766 112.954 106.331 113.73 105.556C114.506 104.781 114.942 103.73 114.942 102.634V82.4293C114.942 81.3332 114.506 80.282 113.73 79.507C112.954 78.732 111.901 78.2966 110.804 78.2966H55.6317Z" fill="#DDE6FD"/>
<path d="M70.1006 92.4992L67.4799 88.6558H68.6293L70.7121 91.7828H70.7443L72.8454 88.6558H73.9489L71.2776 92.5313L73.9075 96.3839H72.7673L70.6983 93.2844H70.6661L68.5696 96.3839H67.4707L70.1006 92.4992Z" fill="#DDE6FD"/>
<path d="M74.9199 90.8049H75.8395V94.9652H75.8855L78.6762 90.8049H79.5958V96.4025H78.6762V92.2422H78.6349L75.8441 96.4025H74.9245L74.9199 90.8049Z" fill="#DDE6FD"/>
<path d="M80.9346 96.4025V90.8049H82.084L84.0656 95.1627H84.107L86.107 90.8049H87.2058V96.4025H86.2863V92.4305H86.2495L84.4472 96.2417H83.7116L81.9093 92.4305H81.8725V96.4025H80.9346Z" fill="#DDE6FD"/>
<path d="M88.5186 90.8049H89.4381V94.9652H89.4841L92.2749 90.8049H93.1944V96.4025H92.2749V92.2422H92.2335L89.4427 96.4025H88.5232L88.5186 90.8049Z" fill="#DDE6FD"/>
<path d="M97.6914 94.4096H96.6386L95.2179 96.4025H94.1328L95.696 94.2397C95.3363 94.1629 95.014 93.9649 94.783 93.679C94.552 93.3932 94.4263 93.0367 94.4271 92.6693C94.4271 91.5259 95.2547 90.8325 96.542 90.8325H98.6294V96.4301H97.7098L97.6914 94.4096ZM97.6914 93.6382V91.581H96.5466C96.3977 91.5607 96.2462 91.5733 96.1027 91.6179C95.9592 91.6625 95.8273 91.7381 95.7163 91.8393C95.6054 91.9405 95.518 92.0649 95.4605 92.2035C95.4029 92.3422 95.3766 92.4918 95.3834 92.6417C95.3834 93.2203 95.8432 93.629 96.5466 93.629L97.6914 93.6382Z" fill="#DDE6FD"/>
<path d="M106.206 30.3066H41.8387C40.4974 30.3066 39.211 29.7744 38.2626 28.8271C37.3141 27.8799 36.7812 26.5951 36.7812 25.2555V5.0511C36.7812 3.71146 37.3141 2.4267 38.2626 1.47943C39.211 0.532167 40.4974 0 41.8387 0H106.206C107.548 0 108.834 0.532167 109.783 1.47943C110.731 2.4267 111.264 3.71146 111.264 5.0511V25.2555C111.264 26.5951 110.731 27.8799 109.783 28.8271C108.834 29.7744 107.548 30.3066 106.206 30.3066ZM41.8387 0.918381C40.7413 0.918381 39.6888 1.35379 38.9128 2.12883C38.1368 2.90386 37.7008 3.95503 37.7008 5.0511V25.2555C37.7008 26.3515 38.1368 27.4027 38.9128 28.1777C39.6888 28.9528 40.7413 29.3882 41.8387 29.3882H106.206C107.304 29.3882 108.356 28.9528 109.132 28.1777C109.908 27.4027 110.344 26.3515 110.344 25.2555V5.0511C110.344 3.95503 109.908 2.90386 109.132 2.12883C108.356 1.35379 107.304 0.918381 106.206 0.918381H41.8387Z" fill="#DDE6FD"/>
<path d="M53.9482 10.3364H54.9046V16.5079H54.9367L59.2126 10.3364H60.1551V18.1013H59.1942V11.9436H59.162L54.8908 18.0922H53.9712L53.9482 10.3364Z" fill="#DDE6FD"/>
<path d="M61.3525 15.2911C61.3525 13.5279 62.3824 12.3982 63.9364 12.3982C64.4918 12.3621 65.0404 12.5356 65.4738 12.8842C65.9072 13.2329 66.1937 13.7313 66.2767 14.2809V14.3269H65.3571V14.2809C65.2821 13.9663 65.0987 13.6881 64.8389 13.4951C64.5792 13.302 64.2597 13.2063 63.9364 13.2248C62.9617 13.2248 62.3089 14.033 62.3089 15.3049C62.3089 16.609 62.9801 17.3759 63.9502 17.3759C64.272 17.3922 64.5893 17.2955 64.8471 17.1026C65.1049 16.9096 65.287 16.6327 65.3617 16.3197V16.2784H66.2813V16.306C66.1936 16.8532 65.9068 17.349 65.4758 17.6981C65.0448 18.0472 64.4999 18.2251 63.9456 18.1978C62.3594 18.2024 61.3525 17.0728 61.3525 15.2911Z" fill="#DDE6FD"/>
<path d="M71.25 13.2707H69.4431V18.0922H68.5235V13.2707H66.6982V12.4946H71.25V13.2707Z" fill="#DDE6FD"/>
<path d="M71.7373 15.2957C71.7373 13.5187 72.7856 12.4028 74.3304 12.4028C75.8752 12.4028 76.9281 13.5095 76.9281 15.2957C76.9281 17.082 75.8798 18.2024 74.335 18.2024C72.7902 18.2024 71.7373 17.0774 71.7373 15.2957ZM75.9672 15.2957C75.9672 13.987 75.3189 13.2294 74.3304 13.2294C73.3419 13.2294 72.6982 13.9916 72.6982 15.2957C72.6982 16.6136 73.3511 17.3713 74.3396 17.3713C75.3281 17.3713 75.9856 16.609 75.9856 15.2957H75.9672Z" fill="#DDE6FD"/>
<path d="M77.9775 12.4943H78.8971V13.4449C79.0645 13.1197 79.3201 12.8482 79.6348 12.6615C79.9494 12.4747 80.3104 12.3802 80.6764 12.3887C82.1063 12.3887 83.058 13.5275 83.058 15.2954C83.058 17.0587 82.0971 18.1975 80.6902 18.1975C80.3237 18.2052 79.9621 18.1115 79.6457 17.9267C79.3292 17.742 79.0701 17.4733 78.8971 17.1505V19.9791H77.9775V12.4943ZM82.1155 15.3C82.1155 14.0143 81.4994 13.2199 80.5109 13.2199C79.5224 13.2199 78.8879 14.0464 78.8879 15.3C78.8879 16.549 79.5683 17.3709 80.5109 17.3709C81.4534 17.3709 82.1385 16.5765 82.1385 15.3H82.1155Z" fill="#DDE6FD"/>
<path d="M84.1423 12.4946H85.0618V16.6549H85.1032L87.894 12.4946H88.8136V18.0922H87.894V13.9319H87.848L85.0572 18.0922H84.1377L84.1423 12.4946Z" fill="#DDE6FD"/>
<path d="M93.3113 16.1041H92.263L90.8377 18.0924H89.7803L91.3435 15.9297C90.9833 15.8529 90.6604 15.6552 90.4286 15.3694C90.1969 15.0836 90.0702 14.727 90.0699 14.3592C90.0699 13.2112 90.9021 12.5225 92.1895 12.5225H94.2722V18.12H93.3527L93.3113 16.1041ZM93.3113 15.3281V13.2709H92.1711C92.0222 13.2506 91.8706 13.2632 91.7271 13.3078C91.5837 13.3525 91.4518 13.4281 91.3408 13.5293C91.2298 13.6305 91.1424 13.7548 91.0849 13.8935C91.0274 14.0321 91.0011 14.1817 91.0079 14.3317C91.0079 14.9102 91.4676 15.3189 92.1711 15.3189L93.3113 15.3281Z" fill="#DDE6FD"/>
<path d="M188.965 30.3066H124.598C123.256 30.3066 121.97 29.7744 121.021 28.8271C120.073 27.8799 119.54 26.5951 119.54 25.2555V5.0511C119.54 3.71146 120.073 2.4267 121.021 1.47943C121.97 0.532167 123.256 0 124.598 0H188.965C190.307 0 191.593 0.532167 192.541 1.47943C193.49 2.4267 194.023 3.71146 194.023 5.0511V25.2555C194.023 26.5951 193.49 27.8799 192.541 28.8271C191.593 29.7744 190.307 30.3066 188.965 30.3066ZM124.598 0.918381C123.5 0.918381 122.448 1.35379 121.672 2.12883C120.896 2.90386 120.46 3.95503 120.46 5.0511V25.2555C120.46 26.3515 120.896 27.4027 121.672 28.1777C122.448 28.9528 123.5 29.3882 124.598 29.3882H188.965C190.063 29.3882 191.115 28.9528 191.891 28.1777C192.667 27.4027 193.103 26.3515 193.103 25.2555V5.0511C193.103 3.95503 192.667 2.90386 191.891 2.12883C191.115 1.35379 190.063 0.918381 188.965 0.918381H124.598Z" fill="#DDE6FD"/>
<path d="M138.699 10.3364H139.821L142.516 16.8799H142.548L145.242 10.3364H146.364V18.1013H145.444V12.0951H145.412L142.929 18.0922H142.106L139.624 12.0951H139.591V18.0922H138.672L138.699 10.3364Z" fill="#DDE6FD"/>
<path d="M147.871 19.9335V19.1713C147.97 19.1905 148.07 19.2013 148.17 19.2034C148.425 19.2422 148.686 19.1827 148.9 19.037C149.113 18.8912 149.263 18.6701 149.319 18.4182L149.434 18.0968L147.352 12.4946H148.354L149.903 17.1554L151.457 12.4946H152.441L150.253 18.4641C149.857 19.5386 149.365 19.9978 148.354 19.9978C148.191 19.9896 148.03 19.9681 147.871 19.9335Z" fill="#DDE6FD"/>
<path d="M152.96 16.6824V16.6411H153.907V16.6962C154.04 17.1554 154.486 17.4263 155.158 17.4263C155.93 17.4263 156.422 17.0727 156.422 16.5079C156.422 15.9109 156.013 15.6308 155.158 15.6308H154.316V14.8548H155.158C155.898 14.8548 156.27 14.5747 156.27 14.0237C156.27 13.5048 155.879 13.1925 155.217 13.1925C154.555 13.1925 154.105 13.4772 154.017 13.9135V13.941H153.098V13.8997C153.227 12.9813 154.017 12.4165 155.208 12.4165C156.399 12.4165 157.176 13.0043 157.176 13.9502C157.18 14.234 157.088 14.5108 156.913 14.7347C156.738 14.9585 156.492 15.1159 156.215 15.1808V15.2222C156.524 15.2531 156.81 15.3986 157.017 15.6298C157.224 15.861 157.336 16.1612 157.332 16.4712C157.332 17.5089 156.454 18.2115 155.148 18.2115C153.953 18.2023 153.075 17.5962 152.96 16.6824Z" fill="#DDE6FD"/>
<path d="M158.431 12.4946H159.351V14.2855H160.399C161.682 14.2855 162.505 15.0202 162.505 16.1819C162.505 17.3437 161.682 18.0784 160.399 18.0784H158.413L158.431 12.4946ZM159.351 15.0569V17.3161H160.385C160.538 17.3295 160.692 17.31 160.836 17.2589C160.98 17.2079 161.112 17.1266 161.223 17.0204C161.333 16.9142 161.419 16.7857 161.475 16.6434C161.531 16.5011 161.557 16.3485 161.549 16.1957C161.557 16.0426 161.533 15.8894 161.477 15.7466C161.421 15.6037 161.335 15.4746 161.224 15.3679C161.114 15.2612 160.982 15.1795 160.837 15.1282C160.693 15.0769 160.538 15.0573 160.385 15.0707L159.351 15.0569ZM163.218 12.4946H164.137V18.0922H163.218V12.4946Z" fill="#DDE6FD"/>
<path d="M166.427 15.5115V18.0922H165.508V12.4946H166.427V14.8641H166.643L168.85 12.4946H169.986L167.489 15.1442L170.064 18.0922H168.86L166.625 15.5115H166.427Z" fill="#DDE6FD"/>
<path d="M170.459 16.5124C170.459 15.5619 171.204 14.9649 172.491 14.8869L174.096 14.795V14.3358C174.096 13.6516 173.636 13.2338 172.868 13.2338C172.1 13.2338 171.696 13.5782 171.585 14.0787V14.1292H170.666V14.0695C170.749 13.1511 171.553 12.4072 172.873 12.4072C174.192 12.4072 175.025 13.1236 175.025 14.244V18.1104H174.105V17.192C173.932 17.5037 173.678 17.7629 173.37 17.9424C173.061 18.1218 172.71 18.2147 172.353 18.2114C171.208 18.2022 170.459 17.5272 170.459 16.5124ZM172.537 17.3894C172.734 17.4019 172.931 17.3745 173.117 17.3091C173.303 17.2436 173.474 17.1414 173.619 17.0085C173.765 16.8756 173.882 16.7148 173.964 16.5357C174.046 16.3566 174.091 16.1628 174.096 15.966V15.5068L172.602 15.5986C171.852 15.6399 171.42 15.9751 171.42 16.494C171.42 17.0496 171.861 17.3894 172.537 17.3894Z" fill="#DDE6FD"/>
<path d="M234.942 68.8879H179.769C178.428 68.8879 177.142 68.3557 176.193 67.4084C175.245 66.4612 174.712 65.1764 174.712 63.8368V43.6324C174.712 42.2928 175.245 41.008 176.193 40.0607C177.142 39.1135 178.428 38.5813 179.769 38.5813H234.942C236.283 38.5813 237.569 39.1135 238.518 40.0607C239.466 41.008 239.999 42.2928 239.999 43.6324V63.8368C239.999 65.1764 239.466 66.4612 238.518 67.4084C237.569 68.3557 236.283 68.8879 234.942 68.8879ZM179.769 39.4997C178.672 39.4997 177.619 39.9351 176.843 40.7101C176.067 41.4852 175.631 42.5363 175.631 43.6324V63.8368C175.631 64.9328 176.067 65.984 176.843 66.759C177.619 67.5341 178.672 67.9695 179.769 67.9695H234.942C236.039 67.9695 237.092 67.5341 237.868 66.759C238.644 65.984 239.08 64.9328 239.08 63.8368V43.6324C239.08 42.5363 238.644 41.4852 237.868 40.7101C237.092 39.9351 236.039 39.4997 234.942 39.4997H179.769Z" fill="#DDE6FD"/>
<path d="M197.706 57.5642V50.6764H193.568V57.5642H192.598V49.7993H198.699V57.5642H197.706Z" fill="#DDE6FD"/>
<path d="M199.87 54.7859C199.87 53.0548 200.859 51.8655 202.39 51.8655C203.921 51.8655 204.854 52.9997 204.854 54.6803V55.0247H200.817C200.817 56.1727 201.475 56.8615 202.472 56.8615C202.761 56.8844 203.05 56.816 203.297 56.666C203.545 56.516 203.739 56.292 203.852 56.0257V55.9798H204.771V56.0303C204.638 56.5287 204.336 56.9658 203.917 57.2678C203.498 57.5698 202.988 57.7182 202.472 57.688C200.84 57.6696 199.87 56.5446 199.87 54.7859ZM200.836 54.2854H203.898C203.806 53.2017 203.203 52.6874 202.385 52.6874C201.567 52.6874 200.937 53.2431 200.836 54.2854Z" fill="#DDE6FD"/>
<path d="M209.578 55.0523H206.819V57.5641H205.899V51.9666H206.819V54.2625H209.578V51.9666H210.497V57.5641H209.578V55.0523Z" fill="#DDE6FD"/>
<path d="M211.83 51.9666H212.75V56.1268H212.796L215.586 51.9666H216.506V57.5641H215.586V53.4038H215.545L212.754 57.5641H211.835L211.83 51.9666Z" fill="#DDE6FD"/>
<path d="M217.596 54.7859C217.596 53.0548 218.584 51.8655 220.115 51.8655C221.646 51.8655 222.58 52.9997 222.58 54.6803V55.0247H218.515C218.515 56.1727 219.173 56.8615 220.17 56.8615C220.46 56.8888 220.75 56.8222 220.999 56.6717C221.247 56.5211 221.44 56.2946 221.55 56.0257V55.9798H222.469V56.0303C222.336 56.5287 222.034 56.9658 221.615 57.2678C221.196 57.5698 220.686 57.7182 220.17 57.688C218.543 57.6696 217.596 56.5446 217.596 54.7859ZM218.557 54.2854H221.623C221.531 53.2017 220.929 52.6874 220.111 52.6874C219.292 52.6874 218.644 53.2431 218.538 54.2854H218.557Z" fill="#DDE6FD"/>
<path d="M202.758 107.685H129.195C127.854 107.685 126.567 107.153 125.619 106.205C124.671 105.258 124.138 103.973 124.138 102.634V82.4293C124.138 81.0896 124.671 79.8049 125.619 78.8576C126.567 77.9103 127.854 77.3782 129.195 77.3782H202.758C204.1 77.3782 205.386 77.9103 206.334 78.8576C207.283 79.8049 207.816 81.0896 207.816 82.4293V102.634C207.816 103.973 207.283 105.258 206.334 106.205C205.386 107.153 204.1 107.685 202.758 107.685ZM129.195 78.2966C128.098 78.2966 127.045 78.732 126.269 79.507C125.493 80.282 125.057 81.3332 125.057 82.4293V102.634C125.057 103.73 125.493 104.781 126.269 105.556C127.045 106.331 128.098 106.766 129.195 106.766H202.758C203.856 106.766 204.908 106.331 205.684 105.556C206.46 104.781 206.896 103.73 206.896 102.634V82.4293C206.896 81.3332 206.46 80.282 205.684 79.507C204.908 78.732 203.856 78.2966 202.758 78.2966H129.195Z" fill="#DDE6FD"/>
<path d="M140.883 95.4609V87.696H145.481V88.5685H141.839V95.4564L140.883 95.4609Z" fill="#DDE6FD"/>
<path d="M145.21 92.6831C145.21 90.952 146.203 89.7627 147.734 89.7627C149.265 89.7627 150.194 90.8969 150.194 92.5775V92.9219H146.157C146.18 94.0699 146.815 94.7587 147.812 94.7587C148.101 94.7816 148.389 94.7132 148.637 94.5632C148.885 94.4132 149.079 94.1892 149.192 93.923V93.877H150.111V93.9276C149.976 94.4304 149.67 94.8707 149.246 95.1731C148.821 95.4755 148.305 95.6211 147.785 95.5852C146.18 95.5669 145.21 94.4418 145.21 92.6831ZM146.175 92.1826H149.242C149.15 91.0989 148.548 90.5847 147.725 90.5847C146.902 90.5847 146.277 91.154 146.175 92.1826Z" fill="#DDE6FD"/>
<path d="M150.97 92.6649C150.97 90.8832 152.013 89.772 153.563 89.772C155.112 89.772 156.156 90.8786 156.156 92.6649C156.156 94.4511 155.112 95.567 153.567 95.567C152.023 95.567 150.97 94.442 150.97 92.6649ZM155.2 92.6649C155.2 91.3516 154.551 90.5985 153.563 90.5985C152.574 90.5985 151.926 91.3562 151.926 92.6649C151.926 93.9828 152.579 94.7404 153.572 94.7404C154.565 94.7404 155.2 93.9736 155.2 92.6649Z" fill="#DDE6FD"/>
<path d="M158.142 90.6398V95.4613H157.223V89.8638H160.827V90.6398H158.142Z" fill="#DDE6FD"/>
<path d="M161.83 89.8635H162.75V90.8095C162.918 90.4852 163.174 90.2146 163.488 90.0287C163.803 89.8428 164.163 89.7489 164.529 89.7579C165.959 89.7579 166.911 90.8967 166.911 92.6646C166.911 94.4279 165.95 95.5621 164.543 95.5621C164.177 95.5708 163.815 95.478 163.499 95.294C163.182 95.11 162.923 94.842 162.75 94.5197V97.3392H161.83V89.8635ZM165.968 92.6692C165.968 91.3789 165.352 90.589 164.363 90.589C163.375 90.589 162.74 91.4156 162.74 92.6692C162.74 93.9182 163.421 94.7401 164.363 94.7401C165.306 94.7401 165.991 93.9411 165.991 92.6692H165.968Z" fill="#DDE6FD"/>
<path d="M167.774 93.8767C167.774 92.9262 168.519 92.3292 169.807 92.2512L171.411 92.1593V91.7001C171.411 91.0159 170.951 90.6027 170.184 90.6027C169.416 90.6027 169.007 90.9471 168.901 91.4476V91.4981H167.981V91.4384C168.059 90.52 168.864 89.7761 170.184 89.7761C171.503 89.7761 172.34 90.4925 172.34 91.6129V95.4839H171.42V94.5655C171.247 94.8763 170.992 95.1347 170.684 95.3132C170.376 95.4918 170.025 95.5841 169.669 95.5803C168.524 95.5665 167.774 94.8961 167.774 93.8767ZM169.848 94.7537C170.045 94.7668 170.242 94.7401 170.428 94.6752C170.614 94.6103 170.786 94.5086 170.932 94.3762C171.077 94.2437 171.195 94.0832 171.278 93.9043C171.36 93.7254 171.405 93.5317 171.411 93.3349V92.8757L169.912 92.9675C169.163 93.0134 168.735 93.344 168.735 93.8859C168.735 94.4185 169.177 94.7537 169.848 94.7537Z" fill="#DDE6FD"/>
<path d="M176.271 95.5299C174.523 95.4977 173.374 94.3911 173.374 92.6691C173.374 90.9471 174.523 89.8359 176.271 89.8084V88.0359H177.19V89.7762C178.923 89.8084 180.082 90.915 180.082 92.637C180.082 94.3589 178.923 95.4702 177.19 95.4977V97.2978H176.271V95.5299ZM176.271 90.5982C176.002 90.5872 175.734 90.6337 175.485 90.7347C175.236 90.8356 175.011 90.9887 174.826 91.1835C174.641 91.3784 174.5 91.6105 174.412 91.8644C174.324 92.1182 174.291 92.3879 174.317 92.6553C174.292 92.9228 174.325 93.1923 174.413 93.4461C174.501 93.6998 174.643 93.9319 174.827 94.127C175.012 94.322 175.237 94.4755 175.485 94.5773C175.734 94.679 176.002 94.7267 176.271 94.7171V90.5982ZM179.126 92.6691C179.15 92.4023 179.117 92.1333 179.029 91.8801C178.942 91.6269 178.801 91.3953 178.616 91.2007C178.432 91.0061 178.208 90.853 177.96 90.7514C177.712 90.6499 177.444 90.6024 177.176 90.612V94.7447C177.446 94.7545 177.715 94.7066 177.965 94.604C178.214 94.5014 178.439 94.3465 178.624 94.1498C178.809 93.9532 178.949 93.7192 179.036 93.4638C179.122 93.2084 179.153 92.9374 179.126 92.6691Z" fill="#DDE6FD"/>
<path d="M181.117 89.8638H182.037V94.024H182.083L184.873 89.8638H185.793V95.4613H184.873V91.301H184.832L182.041 95.4613H181.122L181.117 89.8638Z" fill="#DDE6FD"/>
<path d="M190.284 93.4497H189.236L187.811 95.4425H186.73L188.289 93.2798C187.929 93.2029 187.607 93.005 187.376 92.7191C187.145 92.4332 187.019 92.0767 187.02 91.7093C187.02 90.5659 187.848 89.8726 189.135 89.8726H191.222V95.4701H190.303L190.284 93.4497ZM190.284 92.6782V90.621H189.144C188.995 90.6 188.843 90.612 188.699 90.6563C188.555 90.7006 188.422 90.7761 188.311 90.8774C188.199 90.9787 188.112 91.1033 188.054 91.2423C187.996 91.3813 187.97 91.5314 187.976 91.6818C187.976 92.2604 188.436 92.669 189.144 92.669L190.284 92.6782Z" fill="#DDE6FD"/>
<g clip-path="url(#clip0_148_1495)">
<path d="M169.412 107.988C169.412 107.988 172.806 119.31 174.786 119.93C176.978 120.617 190.343 116.176 197.384 110.704C201.344 107.624 200.803 105.897 199.398 103.721L193.209 94.1604L169.412 107.988Z" fill="#EC9B57"/>
<path d="M178.488 69.1857C178.277 69.3131 178.074 69.4553 177.883 69.6112C177.31 70.0364 176.835 70.5793 176.491 71.2033C175.982 70.6877 175.318 70.353 174.599 70.2509C173.555 70.1381 171.903 70.2678 170.673 71.0032C170.568 71.0652 170.469 71.1328 170.373 71.2033C169.55 71.8035 169.547 73.0011 169.646 73.7647C169.122 73.4729 168.561 73.2539 167.977 73.1138C166.956 72.8743 165.016 73.156 163.531 74.0437C163.107 74.2904 162.725 74.6023 162.4 74.9679C161.814 75.6498 161.814 76.7375 162.009 77.7604C159.746 73.9253 155.297 66.6074 153.133 64.3447C151.759 62.9019 149.957 62.5187 148.545 63.364C147.301 64.108 146.237 66.0269 147.337 68.98C149.035 73.5393 160.193 90.714 161.868 93.2811C158.982 94.2873 155.838 94.2873 152.952 93.2811C150.596 92.4667 148.144 92.664 146.189 93.8277C144.379 94.9126 143.553 96.5751 144.226 97.7727C145.445 99.9509 152.409 101.571 158.035 102.546C159.874 102.865 161.509 104.144 163.242 105.499C166.161 107.779 169.465 110.363 174.591 108.881C177.308 108.085 179.91 106.943 182.332 105.482C188.722 101.678 192.976 96.4314 192.925 92.4526C192.857 86.9945 184.816 70.6031 182.72 69.4929C180.904 68.5291 179.724 68.4446 178.488 69.1857Z" fill="#DDE6FD"/>
</g>
<defs>
<clipPath id="clip0_148_1495">
<rect width="56.4324" height="57.081" fill="white" transform="translate(144 62.9189)"/>
</clipPath>
</defs>
</svg>
