<svg width="18" height="18" viewBox="0 0 18 18" fill="none" xmlns="http://www.w3.org/2000/svg">
<path d="M10.1 8.99998L17.8 1.29998C18.1 0.999975 18.1 0.499976 17.8 0.199976C17.5 -0.100024 17 -0.100024 16.7 0.199976L8.99998 7.89998L1.29998 0.199976C0.999975 -0.100024 0.499976 -0.100024 0.199976 0.199976C-0.100024 0.499976 -0.100024 0.999975 0.199976 1.29998L7.89998 8.99998L0.199976 16.7C-0.100024 17 -0.100024 17.5 0.199976 17.8C0.399976 17.9 0.599976 18 0.799976 18C0.999976 18 1.19998 17.9 1.29998 17.8L8.99998 10.1L16.7 17.8C16.8 17.9 17 18 17.2 18C17.4 18 17.6 17.9 17.7 17.8C18 17.5 18 17 17.7 16.7L10.1 8.99998Z" fill="#1A1A1A"/>
</svg>
