<svg width="14" height="8" viewBox="0 0 14 8" fill="none" xmlns="http://www.w3.org/2000/svg">
<path d="M6.99994 8C6.86833 8.00076 6.73787 7.97553 6.61603 7.92577C6.49419 7.87601 6.38336 7.80268 6.28992 7.71L0.289917 1.71C0.196189 1.61704 0.121814 1.50643 0.0710449 1.38457C0.0202762 1.26272 -0.00585938 1.13201 -0.00585938 1C-0.00585938 0.867988 0.0202762 0.737284 0.0710449 0.615425C0.121814 0.493566 0.196189 0.382964 0.289917 0.290001C0.477279 0.10375 0.730748 -0.000793457 0.994934 -0.000793457C1.25912 -0.000793457 1.51256 0.10375 1.69992 0.290001L6.99994 5.59L12.2899 0.290001C12.4773 0.10375 12.7307 -0.000793457 12.9949 -0.000793457C13.2591 -0.000793457 13.5126 0.10375 13.6999 0.290001C13.7936 0.382964 13.8681 0.493566 13.9188 0.615425C13.9696 0.737284 13.9957 0.867988 13.9957 1C13.9957 1.13201 13.9696 1.26272 13.9188 1.38457C13.8681 1.50643 13.7936 1.61704 13.6999 1.71L7.69992 7.71C7.51366 7.89474 7.26228 7.9989 6.99994 8Z" fill="#333333"/>
</svg>
