<svg width="25" height="29" viewBox="0 0 25 29" fill="none" xmlns="http://www.w3.org/2000/svg">
<g clip-path="url(#clip0_105_4029)">
<path d="M23.9908 23.44L20.1308 16.65C20.0833 16.5724 20.0399 16.4922 20.0008 16.41C20.2413 16.244 20.4256 16.0087 20.5292 15.7354C20.6328 15.4621 20.6508 15.1638 20.5808 14.88C20.4708 14.18 20.4008 13.47 20.3408 12.88C20.3376 12.7696 20.377 12.6622 20.4508 12.58C20.7808 12.22 21.1208 11.86 21.4508 11.51L21.9408 11C22.0744 10.8836 22.1816 10.7399 22.255 10.5787C22.3284 10.4174 22.3663 10.2422 22.3663 10.065C22.3663 9.88781 22.3284 9.71266 22.255 9.55138C22.1816 9.39009 22.0744 9.24641 21.9408 9.13002L21.6508 8.82002C21.2808 8.41002 20.8808 7.98002 20.4908 7.57002C20.4299 7.51398 20.3849 7.44285 20.3603 7.36383C20.3358 7.28481 20.3325 7.20072 20.3508 7.12003C20.4708 6.36003 20.5808 5.61002 20.6608 4.91002C20.6922 4.74572 20.6891 4.5767 20.6519 4.41364C20.6146 4.25057 20.5439 4.09699 20.4443 3.96262C20.3447 3.82824 20.2183 3.71598 20.0732 3.63292C19.928 3.54985 19.7671 3.4978 19.6008 3.48003L19.0908 3.38002C18.5408 3.27002 17.9708 3.16001 17.4108 3.03001C17.2956 3.00114 17.1955 2.92968 17.1308 2.83002C16.8708 2.38002 16.6208 1.92002 16.3808 1.47002L16.0708 0.900024C16.0051 0.728762 15.902 0.574357 15.7689 0.44812C15.6358 0.321884 15.4762 0.227005 15.3017 0.170441C15.1272 0.113876 14.9423 0.0970501 14.7605 0.121201C14.5786 0.145351 14.4045 0.209877 14.2508 0.310028L13.8208 0.500015L12.3108 1.15002C12.2477 1.18896 12.175 1.20958 12.1008 1.20958C12.0267 1.20958 11.9539 1.18896 11.8908 1.15002L10.1108 0.300018L9.53082 0.0200195H9.03082C8.6205 0.18639 8.2907 0.505432 8.11082 0.910019C7.81082 1.48002 7.48082 2.06002 7.11082 2.69002C7.05002 2.78904 6.95327 2.86071 6.84082 2.89001L5.19082 3.19002L4.64082 3.28001C4.47204 3.29668 4.30852 3.34809 4.16055 3.43098C4.01258 3.51388 3.88336 3.62649 3.78099 3.76172C3.67863 3.89695 3.60534 4.0519 3.56573 4.21681C3.52612 4.38173 3.52104 4.55304 3.55082 4.72002L3.67082 5.72002C3.67082 6.14002 3.77082 6.57002 3.81082 7.00002C3.81771 7.10757 3.78578 7.21402 3.72082 7.30002C3.37082 7.68002 3.00082 8.06002 2.65082 8.43002L2.20082 8.90002C2.07053 9.01634 1.96629 9.15886 1.89491 9.31827C1.82354 9.47767 1.78664 9.65037 1.78664 9.82503C1.78664 9.99968 1.82354 10.1724 1.89491 10.3318C1.96629 10.4912 2.07053 10.6337 2.20082 10.75L2.50082 11.08C2.87082 11.48 3.24082 11.89 3.63082 12.29C3.70639 12.3575 3.76146 12.4448 3.78976 12.5421C3.81805 12.6393 3.81842 12.7426 3.79082 12.84C3.79082 13.09 3.72082 13.35 3.69082 13.61C3.66082 13.87 3.59082 14.37 3.52082 14.75C3.4314 15.0425 3.44633 15.357 3.56306 15.6397C3.6798 15.9224 3.89108 16.1558 4.16082 16.3L4.06082 16.49C3.73082 17.06 3.41082 17.63 3.06082 18.21C2.06082 19.92 1.06082 21.7 0.0608215 23.43C-0.00965714 23.5479 -0.046875 23.6827 -0.046875 23.82C-0.046875 23.9574 -0.00965714 24.0921 0.0608215 24.21C0.136398 24.3211 0.240072 24.4102 0.361282 24.4681C0.482492 24.5261 0.616904 24.5509 0.75082 24.54C1.60082 24.54 2.46082 24.54 3.30082 24.54H4.81082C4.87731 24.5344 4.9439 24.5497 5.00128 24.5837C5.05866 24.6178 5.10395 24.6689 5.13082 24.73L5.82082 25.94C6.19082 26.58 6.58082 27.24 6.93082 27.94C6.98616 28.0672 7.07485 28.1771 7.1875 28.2581C7.30016 28.3391 7.4326 28.3881 7.57082 28.4C7.70827 28.3901 7.84044 28.343 7.95317 28.2637C8.06591 28.1844 8.15497 28.076 8.21082 27.95C8.86082 26.8 9.55082 25.63 10.2108 24.51L11.0008 23.16L12.0008 21.4C12.0411 21.4577 12.0778 21.5178 12.1108 21.58L12.8308 22.82L15.8308 28.01C15.8818 28.1411 15.9691 28.2549 16.0824 28.3381C16.1958 28.4214 16.3305 28.4706 16.4708 28.48C16.8008 28.48 16.9608 28.25 17.0908 28.01L17.7708 26.78C18.1508 26.12 18.5208 25.45 18.8908 24.78C18.9213 24.711 18.9721 24.653 19.0364 24.6137C19.1007 24.5744 19.1755 24.5556 19.2508 24.56H23.2508C23.3884 24.5754 23.5277 24.5539 23.6542 24.4976C23.7807 24.4414 23.89 24.3525 23.9708 24.24C24.0431 24.1198 24.083 23.9829 24.0865 23.8427C24.09 23.7024 24.057 23.5637 23.9908 23.44ZM5.66082 16.65C6.03082 16.73 6.39082 16.8 6.73082 16.84C6.80487 16.8427 6.87629 16.8681 6.93535 16.9128C6.99441 16.9576 7.03823 17.0195 7.06082 17.09C7.43082 17.79 7.81082 18.47 8.13082 19.09C8.1967 19.2439 8.29403 19.3823 8.41658 19.4963C8.53912 19.6103 8.68416 19.6974 8.84238 19.7521C9.0006 19.8067 9.16849 19.8276 9.33528 19.8135C9.50206 19.7993 9.66405 19.7505 9.81082 19.67L10.4908 19.35L10.7908 19.21L10.8908 19.39C11.0208 19.6 11.1308 19.8 11.2308 20C11.2427 20.0268 11.2488 20.0557 11.2488 20.085C11.2488 20.1143 11.2427 20.1433 11.2308 20.17C10.1308 22.1 9.02082 24.01 7.90082 25.95L7.59082 26.49L7.50082 26.33L7.12082 25.7L6.05082 23.83C5.97545 23.6676 5.85336 23.5314 5.70016 23.4388C5.54697 23.3462 5.36963 23.3013 5.19082 23.31H1.68082L1.76082 23.15L2.63082 21.61L5.31082 16.85C5.42082 16.64 5.49082 16.61 5.66082 16.65ZM9.66082 18.29L9.20082 18.51L8.89082 17.92C8.62082 17.42 8.37082 16.92 8.12082 16.46C8.01819 16.2362 7.85914 16.043 7.65928 15.8992C7.45942 15.7555 7.22562 15.6661 6.98082 15.64L5.31082 15.34L4.67082 15.21V14.93C4.73082 14.49 4.78082 14.07 4.84082 13.64L4.90082 13.24C4.90082 13.07 4.90082 12.91 4.98082 12.74C5.00775 12.5421 4.98835 12.3406 4.92414 12.1515C4.85993 11.9623 4.75267 11.7907 4.61082 11.65L3.41082 10.34L3.00082 9.89001L3.13082 9.74002L3.42082 9.43002L3.77082 9.07002L4.65082 8.15002C4.80499 7.99697 4.91932 7.80849 4.98382 7.60104C5.04832 7.3936 5.06102 7.17351 5.02082 6.96002C4.96082 6.52002 4.90082 6.09002 4.86082 5.66002L4.74082 4.71002C4.74082 4.60002 4.74082 4.58003 4.85082 4.56003L5.69082 4.41002L6.97082 4.19002C7.23051 4.16659 7.47961 4.07589 7.69355 3.92683C7.90749 3.77778 8.07889 3.57552 8.19082 3.34003C8.44082 2.86003 8.70082 2.40002 8.97082 1.91002C9.08082 1.73002 9.19082 1.54002 9.29082 1.35002L9.48082 1.44002L10.0108 1.70003C10.4308 1.90003 10.8708 2.11002 11.2908 2.33002C11.5165 2.45799 11.7714 2.52525 12.0308 2.52525C12.2902 2.52525 12.5452 2.45799 12.7708 2.33002C13.2608 2.09002 13.7708 1.87001 14.2508 1.64001L14.8508 1.37003L15.1508 1.93002C15.4108 2.41002 15.6808 2.93002 15.9308 3.41002C16.0278 3.63092 16.1799 3.82323 16.3725 3.96855C16.5651 4.11387 16.7918 4.20734 17.0308 4.24002C17.5408 4.32002 18.0308 4.43001 18.5308 4.53001L19.1708 4.66002H19.3108L19.2208 5.31003C19.1408 5.86003 19.0708 6.43002 18.9808 6.99002C18.9319 7.21267 18.9402 7.44407 19.0049 7.66264C19.0696 7.88122 19.1886 8.07985 19.3508 8.24002L20.5308 9.51003L20.9708 9.99002L19.7508 11.25L19.6108 11.39L19.3108 11.7C19.1442 11.8514 19.0198 12.0434 18.9497 12.2572C18.8796 12.4711 18.8662 12.6994 18.9108 12.92C18.9908 13.48 19.0608 14.04 19.1208 14.62C19.1208 14.83 19.1208 15.05 19.2008 15.26L17.6008 15.53L17.2608 15.59L16.8408 15.65C16.6292 15.6828 16.4284 15.7652 16.2546 15.8903C16.0808 16.0154 15.9391 16.1798 15.8408 16.37L15.1908 17.85L14.9308 18.31L14.8408 18.46L14.3608 18.23L13.3608 17.73H13.2608C12.9109 17.5005 12.5149 17.3504 12.1008 17.29C11.7638 17.3289 11.4394 17.4416 11.1508 17.62L10.8608 17.75L9.66082 18.29ZM11.9208 18.63C11.9931 18.6349 12.0641 18.6518 12.1308 18.68L13.3408 19.27L14.0908 19.63C14.2416 19.7254 14.4114 19.7868 14.5883 19.81C14.7653 19.8332 14.9451 19.8176 15.1154 19.7643C15.2857 19.711 15.4424 19.6213 15.5746 19.5014C15.7067 19.3816 15.8112 19.2343 15.8808 19.07L16.2408 18.43L16.9608 17.15C17.0059 17.0697 17.0762 17.0065 17.1608 16.97L18.5208 16.73C18.5799 16.7287 18.6372 16.7502 18.6808 16.79L22.0408 22.69L22.3708 23.28H18.7708C18.6179 23.2726 18.4662 23.3104 18.3346 23.3887C18.203 23.4669 18.0974 23.5821 18.0308 23.72C17.6408 24.44 17.2408 25.13 16.8208 25.87L16.4308 26.56L11.8608 18.65L11.9208 18.63Z" fill="#333333"/>
<path d="M12.0702 15.6C13.5314 15.5386 14.9124 14.9149 15.9247 13.8593C16.9369 12.8036 17.5021 11.3976 17.5021 9.93503C17.5021 8.47247 16.9369 7.06648 15.9247 6.0108C14.9124 4.95513 13.5314 4.33143 12.0702 4.27002C10.5672 4.27531 9.1276 4.87607 8.06672 5.9407C7.00583 7.00534 6.41015 8.44706 6.41016 9.95003C6.42321 11.4445 7.02267 12.874 8.07943 13.9307C9.1362 14.9875 10.5657 15.587 12.0602 15.6H12.0702ZM8.87016 12.95C8.07377 12.1167 7.63886 11.0025 7.66016 9.85002C7.69822 8.72105 8.16709 7.64949 8.97048 6.85539C9.77388 6.0613 10.8508 5.60493 11.9802 5.58002H12.0902C13.2528 5.5932 14.3632 6.06501 15.1797 6.89278C15.9963 7.72055 16.4529 8.83729 16.4502 10C16.4421 10.5912 16.3169 11.1749 16.0817 11.7173C15.8466 12.2597 15.5061 12.7501 15.0802 13.16C14.2706 13.9305 13.1977 14.3633 12.0802 14.37H11.9602C11.3755 14.3564 10.7998 14.2235 10.2684 13.9793C9.73707 13.7351 9.26123 13.3848 8.87016 12.95Z" fill="#333333"/>
</g>
<defs>
<clipPath id="clip0_105_4029">
<rect width="24.15" height="28.45" fill="white"/>
</clipPath>
</defs>
</svg>
