<svg width="24" height="21" viewBox="0 0 24 21" fill="none" xmlns="http://www.w3.org/2000/svg">
<g clip-path="url(#clip0_105_4032)">
<path d="M0 5.88002V6.41003C0.085061 6.66361 0.227758 6.89402 0.416885 7.08315C0.606013 7.27227 0.836416 7.41497 1.09 7.50003C1.63 7.73003 2.15999 7.98003 2.68999 8.22003L3.84 8.74002H3.9C3.9 8.74002 3.9 8.74003 3.9 8.80003V10.64C3.9 11.64 3.9 12.64 3.9 13.64C3.89063 14.0884 3.98188 14.5331 4.16705 14.9415C4.35222 15.3499 4.62661 15.7116 4.97 16C5.82957 16.7502 6.85945 17.2788 7.97 17.54C11.0098 18.4029 14.2487 18.2448 17.19 17.09C17.1953 17.1566 17.1953 17.2235 17.19 17.29C16.8055 17.4507 16.4882 17.7391 16.2916 18.1066C16.0951 18.4742 16.0315 18.8982 16.1114 19.3072C16.1913 19.7162 16.4099 20.0851 16.7303 20.3517C17.0507 20.6182 17.4533 20.7659 17.87 20.77C18.2362 20.7716 18.5943 20.6627 18.8976 20.4575C19.2009 20.2524 19.4352 19.9605 19.57 19.62C19.7437 19.1811 19.7359 18.6911 19.5484 18.2579C19.3608 17.8247 19.0089 17.4838 18.57 17.31H18.5V16.86C18.5 16.73 18.5 16.59 18.5 16.46C18.5083 16.421 18.5295 16.3858 18.56 16.36L18.87 16.08C19.0427 15.9406 19.2064 15.7903 19.36 15.63C19.8295 15.1266 20.0811 14.4581 20.06 13.77V8.77002H20.12L21.25 8.26003C21.79 8.01003 22.33 7.76003 22.87 7.53003C23.1251 7.4456 23.3571 7.30326 23.5479 7.11415C23.7388 6.92504 23.8832 6.69431 23.97 6.44003V6.37003V5.84003C23.8804 5.58896 23.7361 5.36094 23.5476 5.17244C23.3591 4.98394 23.1311 4.83966 22.88 4.75003L14.1 0.750031L13.02 0.250031C12.7064 0.105571 12.3653 0.0307617 12.02 0.0307617C11.6747 0.0307617 11.3336 0.105571 11.02 0.250031L10.02 0.720032L0.949997 4.84003C0.742212 4.93691 0.556752 5.07577 0.405296 5.24788C0.253841 5.41999 0.139676 5.62161 0.0699997 5.84003L0 5.88002ZM13.1 6.36003C12.7677 6.56639 12.3808 6.66747 11.99 6.65002C11.6001 6.65987 11.2153 6.55935 10.88 6.36003C10.76 6.27003 10.68 6.18003 10.68 6.11003C10.68 6.04003 10.76 5.95003 10.88 5.86003C11.2188 5.6604 11.6069 5.55992 12 5.57002C12.387 5.55817 12.7691 5.65893 13.1 5.86003C13.23 5.95003 13.32 6.05003 13.32 6.11003C13.32 6.17003 13.23 6.27003 13.1 6.36003ZM16.71 15.97C15.4977 16.4526 14.2134 16.7298 12.91 16.79C11.2203 16.9135 9.52255 16.7098 7.91 16.19C7.17764 15.9727 6.49717 15.6087 5.91 15.12C5.69264 14.9505 5.51922 14.7311 5.40436 14.4805C5.2895 14.2299 5.23656 13.9554 5.25 13.68C5.25 13.02 5.25 12.36 5.25 11.68V9.34003L6.93 10.1L11.02 11.96C11.3439 12.1182 11.6996 12.2004 12.06 12.2004C12.4204 12.2004 12.7761 12.1182 13.1 11.96L16.1 10.57L17.25 10.05V15.16C17.24 15.75 17.24 15.75 16.71 15.97ZM11.48 10.82L1.48 6.25003C1.32 6.18003 1.32 6.15003 1.32 6.11003C1.32 6.07003 1.32 6.05003 1.48 5.97003L2.48 5.51003L11.48 1.43002C11.659 1.33628 11.858 1.28732 12.06 1.28732C12.262 1.28732 12.461 1.33628 12.64 1.43002C15.47 2.73002 18.3 4.01003 21.14 5.30003L22.59 5.96002C22.78 6.05002 22.78 6.07003 22.78 6.12003C22.78 6.17003 22.78 6.18003 22.59 6.26003L18.03 8.34003C18.005 8.35723 17.9754 8.36644 17.945 8.36644C17.9146 8.36644 17.885 8.35723 17.86 8.34003L16.26 7.53003L14.53 6.66003C14.6563 6.35439 14.6736 6.01459 14.5789 5.69772C14.4842 5.38086 14.2833 5.10625 14.01 4.92003C13.4358 4.52661 12.756 4.31607 12.06 4.31607C11.364 4.31607 10.6842 4.52661 10.11 4.92003C9.91781 5.05772 9.75942 5.23729 9.64681 5.44518C9.53421 5.65306 9.47033 5.88383 9.46 6.12003C9.46686 6.3523 9.5262 6.58002 9.63358 6.7861C9.74095 6.99219 9.89357 7.17131 10.08 7.31003C10.2572 7.45931 10.4562 7.58071 10.67 7.67003C11.1122 7.86043 11.5886 7.95863 12.07 7.95863C12.5514 7.95863 13.0278 7.86043 13.47 7.67003C13.4985 7.65231 13.5314 7.64291 13.565 7.64291C13.5986 7.64291 13.6315 7.65231 13.66 7.67003L15.84 8.78003L16.46 9.09003L12.53 10.88C12.3637 10.9576 12.1807 10.9927 11.9974 10.9823C11.8142 10.9718 11.6364 10.9161 11.48 10.82ZM18.81 13.82C18.8198 13.9098 18.8198 14.0003 18.81 14.09C18.7657 14.3168 18.6736 14.5315 18.54 14.72V11.97C18.54 11.16 18.54 10.34 18.54 9.53003C18.54 9.53003 18.54 9.47002 18.54 9.46002L18.81 9.34003C18.81 10.88 18.81 12.35 18.81 13.83V13.82ZM18.41 18.99C18.4127 19.1342 18.3587 19.2737 18.2596 19.3784C18.1604 19.4832 18.0241 19.5448 17.88 19.55C17.8109 19.5552 17.7416 19.5443 17.6775 19.5183C17.6133 19.4923 17.556 19.4518 17.51 19.4C17.4558 19.3507 17.4126 19.2904 17.3833 19.2232C17.354 19.156 17.3392 19.0833 17.34 19.01C17.3383 18.8686 17.3922 18.7322 17.49 18.63C17.5399 18.5807 17.5993 18.5419 17.6646 18.5161C17.73 18.4904 17.7998 18.4781 17.87 18.48C17.9396 18.4787 18.0088 18.4911 18.0736 18.5165C18.1384 18.5419 18.1976 18.5799 18.2477 18.6282C18.2979 18.6764 18.338 18.7341 18.3659 18.7979C18.3937 18.8617 18.4087 18.9304 18.41 19V18.99Z" fill="#1D1D1B"/>
</g>
<defs>
<clipPath id="clip0_105_4032">
<rect width="24" height="20.83" fill="white"/>
</clipPath>
</defs>
</svg>
