<svg width="22" height="16" viewBox="0 0 22 16" fill="none" xmlns="http://www.w3.org/2000/svg">
<g clip-path="url(#clip0_105_4125)">
<path d="M8.34138 -2.0725e-06C6.16607 0.686938 4.21974 2.20393 2.53101 4.55098C0.842275 6.89803 0.01222 8.98748 0.0122199 10.8193C0.0122197 12.6512 0.470181 13.9678 1.41472 14.7979C2.35927 15.5993 3.53279 16 4.96392 16C6.39505 16 7.65444 15.4275 8.68485 14.254C9.71526 13.0805 10.2305 11.7925 10.2305 10.39C10.2305 8.98748 9.77251 7.89982 8.85659 7.12701C7.94067 6.3542 7.16786 5.95349 6.50954 5.95349C6.56678 5.55277 6.85301 4.89445 7.45408 4.00715C8.02653 3.11985 8.71347 2.34705 9.51491 1.74597C9.45766 0.944542 9.05695 0.37209 8.34138 -2.0725e-06Z" fill="#E3E9F5"/>
<path d="M19.7626 -1.62647e-07C18.3028 0.45796 16.929 1.31664 15.6409 2.57603C14.3529 3.83542 13.3225 5.26655 12.5783 6.84079C11.8341 8.41503 11.462 9.93202 11.462 11.3631C11.462 12.7943 11.92 13.9392 12.8359 14.7692C13.7232 15.5993 14.8968 16 16.3565 16C17.7876 16 19.047 15.4275 20.0774 14.254C21.1078 13.0805 21.623 11.7925 21.623 10.39C21.623 8.98748 21.1651 7.89982 20.2492 7.12701C19.3332 6.3542 18.5604 5.95349 17.9021 5.95349C17.9307 5.55277 18.2456 4.89445 18.8467 4.00716C19.4191 3.11986 20.1347 2.34705 20.9361 1.74597C20.8502 0.973166 20.4781 0.400715 19.7626 -1.62647e-07Z" fill="#E3E9F5"/>
</g>
<defs>
<clipPath id="clip0_105_4125">
<rect width="21.61" height="16" fill="white" transform="translate(21.623 16) rotate(-180)"/>
</clipPath>
</defs>
</svg>
