<svg width="16" height="20" viewBox="0 0 16 20" fill="none" xmlns="http://www.w3.org/2000/svg">
    <path d="M8 1.5C11.6 1.5 14.5 4.4 14.5 8C14.5 11.5 10.4 15.9 8 18C5.6 15.9 1.5 11.5 1.5 8C1.5 4.4 4.4 1.5 8 1.5ZM8 0C3.6 0 0 3.6 0 8C0 13.7 8 20 8 20C8 20 16 13.7 16 8C16 3.6 12.4 0 8 0Z" fill="#8B93A5" />
    <path d="M8 6C9.1 6 10 6.9 10 8C10 9.1 9.1 10 8 10C6.9 10 6 9.1 6 8C6 6.9 6.9 6 8 6ZM8 4.5C6.1 4.5 4.5 6.1 4.5 8C4.5 9.9 6.1 11.5 8 11.5C9.9 11.5 11.5 9.9 11.5 8C11.5 6.1 9.9 4.5 8 4.5Z" fill="#8B93A5" />
</svg>
