<svg width="188" height="140" viewBox="0 0 188 140" fill="none" xmlns="http://www.w3.org/2000/svg">
<g clip-path="url(#clip0_147_1085)">
<path d="M100.6 0H5.92356C4.35306 0 2.84687 0.621168 1.73635 1.72685C0.625835 2.83254 0.00195312 4.33217 0.00195312 5.89585V44.7971C0.00195312 46.3608 0.625835 47.8604 1.73635 48.9661C2.84687 50.0718 4.35306 50.6929 5.92356 50.6929H80.4633C83.4791 54.8846 88.9484 62.3893 89.4293 62.3893C89.9102 62.3893 89.0217 55.3005 88.3982 50.6929H100.598C102.169 50.6929 103.675 50.0718 104.785 48.9661C105.896 47.8604 106.52 46.3608 106.52 44.7971V5.89585C106.52 4.33252 105.896 2.8332 104.786 1.72757C103.676 0.621944 102.17 0.000537965 100.6 0Z" fill="#7C98E3"/>
<path d="M26.0476 38.9855C33.6106 35.8341 37.1756 27.1751 34.0104 19.6451C30.8453 12.1151 22.1484 8.56553 14.5855 11.7169C7.02256 14.8684 3.45749 23.5274 6.62268 31.0574C9.78787 38.5874 18.4847 42.137 26.0476 38.9855Z" fill="white"/>
<path d="M12.5932 25.734C12.5932 25.734 11.1219 19.7205 14.6309 17.4684C18.1398 15.2164 21.8811 14.699 24.4405 15.9975C27.9881 17.7971 29.4451 22.6582 28.3121 25.3465L18.8938 23.0011L12.5932 25.734Z" fill="#7C98E3"/>
<path d="M22.6692 32.7944H18.3105V37.1281H22.6692V32.7944Z" fill="#DDE6FD"/>
<path d="M29.5426 25.03C29.3117 24.9246 29.0591 24.8748 28.8053 24.8847C28.5514 24.8946 28.3035 24.9638 28.0816 25.0868C28.1199 24.0621 27.9453 23.0405 27.5687 22.0861C27.1921 21.1317 26.6216 20.265 25.893 19.5403C25.1643 18.8155 24.2932 18.2484 23.3342 17.8745C22.3753 17.5005 21.349 17.3278 20.3199 17.367C19.2908 17.3278 18.2647 17.5005 17.3058 17.8745C16.3469 18.2485 15.4759 18.8156 14.7474 19.5403C14.019 20.2651 13.4487 21.1318 13.0723 22.0863C12.6959 23.0407 12.5216 24.0622 12.5602 25.0868C12.3383 24.9638 12.0904 24.8946 11.8365 24.8847C11.5827 24.8748 11.3301 24.9246 11.0992 25.03C10.2271 25.4581 9.95604 26.6835 10.4879 27.7669C11.0197 28.8503 12.169 29.39 13.0411 28.9558C13.1599 28.8972 13.2696 28.822 13.3672 28.7327C13.8685 32.2669 16.8313 34.9166 20.3138 34.8679C23.7942 34.9166 26.7611 32.2669 27.2604 28.7327C27.3587 28.8219 27.4691 28.8971 27.5884 28.9558C28.4606 29.3839 29.6037 28.8524 30.1417 27.7669C30.6796 26.6815 30.4147 25.4662 29.5426 25.03Z" fill="#DDE6FD"/>
<path d="M12.5602 25.0948C12.5602 25.0948 18.2658 23.3743 20.7599 20.5015C20.7599 20.5015 20.0549 23.9627 19.5271 24.5145C19.6942 24.6261 25.2327 21.948 25.9765 19.4769C26.7203 17.0058 20.3198 16.1191 20.3198 16.1191C20.3198 16.1191 18.1252 17.0484 18.0151 17.1031C17.9051 17.1579 15.845 17.3973 15.6086 17.9147C15.3009 18.5964 13.846 18.6552 13.846 18.6552L12.929 20.5583L12.2871 22.5587L12.5602 25.0948Z" fill="#7C98E3"/>
<path d="M7.88574 17.2716C9.14709 17.7767 10.602 18.0101 12.1099 17.5475C15.4396 16.5331 16.758 16.9246 17.2042 17.1742C17.3338 17.253 17.4786 17.3039 17.6292 17.3235C17.7798 17.343 17.9328 17.3309 18.0784 17.2878C18.4065 17.1782 18.7121 16.882 18.6164 16.1354C18.6164 16.1354 18.7488 12.9866 16.0366 11.1931C12.686 12.2013 9.7998 14.3537 7.88574 17.2716Z" fill="#7C98E3"/>
<path d="M57.3618 12.6133H38.6454C38.3224 12.6133 38.0605 12.874 38.0605 13.1956V14.5995C38.0605 14.9211 38.3224 15.1818 38.6454 15.1818H57.3618C57.6848 15.1818 57.9466 14.9211 57.9466 14.5995V13.1956C57.9466 12.874 57.6848 12.6133 57.3618 12.6133Z" fill="white"/>
<path d="M50.9084 19.3896H38.6454C38.3224 19.3896 38.0605 19.6503 38.0605 19.9719V21.3759C38.0605 21.6975 38.3224 21.9582 38.6454 21.9582H50.9084C51.2313 21.9582 51.4932 21.6975 51.4932 21.3759V19.9719C51.4932 19.6503 51.2313 19.3896 50.9084 19.3896Z" fill="white"/>
<path d="M69.7547 19.3896H54.3944C54.0714 19.3896 53.8096 19.6503 53.8096 19.9719V21.3759C53.8096 21.6975 54.0714 21.9582 54.3944 21.9582H69.7547C70.0777 21.9582 70.3395 21.6975 70.3395 21.3759V19.9719C70.3395 19.6503 70.0777 19.3896 69.7547 19.3896Z" fill="white"/>
<path d="M94.3541 12.6133H61.826C61.503 12.6133 61.2412 12.874 61.2412 13.1956V14.5995C61.2412 14.9211 61.503 15.1818 61.826 15.1818H94.3541C94.6771 15.1818 94.939 14.9211 94.939 14.5995V13.1956C94.939 12.874 94.6771 12.6133 94.3541 12.6133Z" fill="white"/>
<path d="M94.3566 32.6748H38.6454C38.3224 32.6748 38.0605 32.9355 38.0605 33.2571V34.6611C38.0605 34.9826 38.3224 35.2433 38.6454 35.2433H94.3566C94.6796 35.2433 94.9414 34.9826 94.9414 34.6611V33.2571C94.9414 32.9355 94.6796 32.6748 94.3566 32.6748Z" fill="white"/>
<path d="M66.8596 26.1682H38.6454C38.3224 26.1682 38.0605 26.4289 38.0605 26.7505V28.1545C38.0605 28.4761 38.3224 28.7367 38.6454 28.7367H66.8596C67.1826 28.7367 67.4445 28.4761 67.4445 28.1545V26.7505C67.4445 26.4289 67.1826 26.1682 66.8596 26.1682Z" fill="white"/>
<path d="M94.3548 26.1682H72.327C72.004 26.1682 71.7422 26.4289 71.7422 26.7505V28.1545C71.7422 28.4761 72.004 28.7367 72.327 28.7367H94.3548C94.6777 28.7367 94.9396 28.4761 94.9396 28.1545V26.7505C94.9396 26.4289 94.6777 26.1682 94.3548 26.1682Z" fill="white"/>
</g>
<g clip-path="url(#clip1_147_1085)">
<path d="M182 77.6086H85.3174C84.5707 77.6077 83.8313 77.7539 83.1412 78.0388C82.4512 78.3237 81.8241 78.7418 81.296 79.2692C80.7678 79.7965 80.3489 80.4227 80.0632 81.112C79.7775 81.8013 79.6305 82.5401 79.6309 83.2862V123.534C79.6309 125.039 80.2292 126.483 81.2943 127.547C82.3594 128.611 83.804 129.209 85.3102 129.209H95.3605C94.7766 133.641 94.0139 139.998 94.4334 139.998C94.8528 139.998 99.7505 133.31 102.696 129.209H182.002C182.748 129.21 183.487 129.063 184.176 128.778C184.866 128.493 185.492 128.075 186.02 127.548C186.547 127.021 186.966 126.395 187.251 125.706C187.537 125.018 187.684 124.28 187.684 123.534V83.2862C187.684 82.5404 187.537 81.8019 187.251 81.1129C186.965 80.424 186.547 79.798 186.019 79.2707C185.491 78.7435 184.864 78.3253 184.175 78.0401C183.485 77.755 182.746 77.6083 182 77.6086Z" fill="#DDE6FD"/>
<path d="M108.426 113.615C113.987 108.058 113.987 99.0486 108.426 93.4916C102.864 87.9346 93.8481 87.9346 88.287 93.4916C82.7259 99.0486 82.7259 108.058 88.287 113.615C93.8481 119.172 102.864 119.172 108.426 113.615Z" fill="white"/>
<path d="M100.608 110.724H96.4277V114.896H100.608V110.724Z" fill="#DDE6FD"/>
<path d="M107.202 103.258C106.981 103.157 106.739 103.109 106.495 103.119C106.252 103.128 106.014 103.195 105.801 103.312C105.838 102.326 105.67 101.343 105.309 100.424C104.948 99.5049 104.401 98.6706 103.702 97.973C103.003 97.2755 102.167 96.7297 101.247 96.3699C100.327 96.01 99.3428 95.844 98.3557 95.882C97.3686 95.844 96.3842 96.01 95.4643 96.3699C94.5443 96.7297 93.7087 97.2755 93.0097 97.973C92.3107 98.6706 91.7635 99.5049 91.4022 100.424C91.041 101.343 90.8735 102.326 90.9103 103.312C90.6973 103.195 90.4595 103.128 90.2162 103.119C89.9728 103.109 89.7306 103.157 89.509 103.258C88.6724 103.67 88.4127 104.851 88.9275 105.894C89.4422 106.937 90.5409 107.449 91.3775 107.037C91.4917 106.981 91.5976 106.908 91.692 106.823C92.1687 110.226 95.0167 112.777 98.3652 112.729C101.702 112.777 104.55 110.226 105.038 106.823C105.132 106.908 105.237 106.98 105.351 107.037C106.19 107.449 107.286 106.937 107.801 105.894C108.315 104.851 108.039 103.67 107.202 103.258Z" fill="#DDE6FD"/>
<path d="M93.2654 94.2508C93.2654 94.2508 95.3603 92.4765 100.127 92.7576C104.893 93.0386 105.804 95.532 106.085 99.0829L105.806 103.308C105.806 103.308 104.567 102.036 102.946 98.509C102.946 98.509 100.277 101.503 99.114 101.148C97.9509 100.793 99.5549 98.6376 99.5549 98.6376C99.5549 98.6376 94.1138 103.315 90.9083 103.308C90.9083 103.308 89.2138 97.8302 91.5923 95.825C91.5923 95.825 89.8001 95.9107 89.7048 95.5582C89.6095 95.2058 90.5604 94.6795 92.2835 94.8771C92.2835 94.8771 91.0561 92.4765 91.7425 92.2265C92.4289 91.9764 93.2654 94.2508 93.2654 94.2508Z" fill="#7C98E3"/>
<path d="M173.61 89.209H118.056C117.747 89.209 117.496 89.4596 117.496 89.7686V91.1214C117.496 91.4304 117.747 91.681 118.056 91.681H173.61C173.92 91.681 174.17 91.4304 174.17 91.1214V89.7686C174.17 89.4596 173.92 89.209 173.61 89.209Z" fill="white"/>
<path d="M130.321 95.7322H118.056C117.747 95.7322 117.496 95.9827 117.496 96.2918V97.6445C117.496 97.9536 117.747 98.2042 118.056 98.2042H130.321C130.63 98.2042 130.881 97.9536 130.881 97.6445V96.2918C130.881 95.9827 130.63 95.7322 130.321 95.7322Z" fill="white"/>
<path d="M173.612 95.7322H136.493C136.183 95.7322 135.933 95.9827 135.933 96.2918V97.6445C135.933 97.9536 136.183 98.2042 136.493 98.2042H173.612C173.922 98.2042 174.172 97.9536 174.172 97.6445V96.2918C174.172 95.9827 173.922 95.7322 173.612 95.7322Z" fill="white"/>
<path d="M146.215 102.258H118.056C117.747 102.258 117.496 102.508 117.496 102.817V104.17C117.496 104.479 117.747 104.73 118.056 104.73H146.215C146.524 104.73 146.775 104.479 146.775 104.17V102.817C146.775 102.508 146.524 102.258 146.215 102.258Z" fill="white"/>
<path d="M173.611 102.258H151.618C151.308 102.258 151.058 102.508 151.058 102.817V104.17C151.058 104.479 151.308 104.73 151.618 104.73H173.611C173.92 104.73 174.171 104.479 174.171 104.17V102.817C174.171 102.508 173.92 102.258 173.611 102.258Z" fill="white"/>
<path d="M173.61 108.783H118.056C117.747 108.783 117.496 109.034 117.496 109.343V110.695C117.496 111.004 117.747 111.255 118.056 111.255H173.61C173.92 111.255 174.17 111.004 174.17 110.695V109.343C174.17 109.034 173.92 108.783 173.61 108.783Z" fill="white"/>
</g>
<defs>
<clipPath id="clip0_147_1085">
<rect width="106.522" height="62.3913" fill="white"/>
</clipPath>
<clipPath id="clip1_147_1085">
<rect width="108.043" height="62.3913" fill="white" transform="translate(79.6377 77.6086)"/>
</clipPath>
</defs>
</svg>
