<svg width="24" height="16" viewBox="0 0 24 16" fill="none" xmlns="http://www.w3.org/2000/svg">
<path d="M20.9267 0H3.08709C1.38675 0 0 1.50473 0 3.34972V10.4197C0 12.2646 1.38675 13.7694 3.08709 13.7694H9.51912L11.2752 15.6749C11.4773 15.8941 11.7421 16 11.9999 16C12.2648 16 12.5296 15.8941 12.7247 15.6749L14.4808 13.7694H20.9128C22.6131 13.7694 23.9999 12.2646 23.9999 10.4197V3.34972C24.0138 1.50473 22.6271 0 20.9267 0ZM4.45991 3.53875H12.6968C13.2682 3.53875 13.7282 4.03781 13.7282 4.65784C13.7282 5.27788 13.2682 5.77694 12.6968 5.77694H4.45991C3.88848 5.77694 3.42856 5.27788 3.42856 4.65784C3.42856 4.03781 3.88848 3.53875 4.45991 3.53875ZM19.5539 10.2382H4.45991C3.88848 10.2382 3.42856 9.73913 3.42856 9.11909C3.42856 8.49905 3.88848 8 4.45991 8H19.5539C20.1253 8 20.5853 8.49905 20.5853 9.11909C20.5853 9.73913 20.1253 10.2382 19.5539 10.2382Z" fill="#DCE6FF"/>
</svg>
