<svg width="70" height="70" viewBox="0 0 70 70" fill="none" xmlns="http://www.w3.org/2000/svg">
<g clip-path="url(#clip0)">
<path d="M19.8 20.6001C19.4 20.3001 18.9 20.3001 18.6 20.7001L14.5 25.6001L13.2 24.5001C12.8 24.2001 12.3 24.2001 12 24.6001C11.7 25.0001 11.7 25.5001 12.1 25.8001L13.7 27.1001C14.2 27.5001 15 27.5001 15.5 27.0001L19.9 21.8001C20.2 21.5001 20.2 20.9001 19.8 20.6001Z" fill="#FFC35F"/>
<path d="M9.69996 31.7H17.9C18.6 31.7 19.1 31.1 19.1 30.5V27.7C19.1 27.2 18.7 26.8 18.2 26.8C17.7 26.8 17.3 27.2 17.3 27.7V30H10.1V22.8H13.7C14.2 22.8 14.6 22.4 14.6 21.9C14.6 21.4 14.2 21 13.7 21H9.69996C8.99996 21 8.49996 21.6 8.49996 22.2V30.4C8.39996 31.2 8.99996 31.7 9.69996 31.7Z" fill="#FFC35F"/>
<path d="M61.2 21.7H27.9C27.4 21.7 27 22.1 27 22.6C27 23.1 27.4 23.5 27.9 23.5H61.2C61.7 23.5 62.1 23.1 62.1 22.6C62.1 22.1 61.7 21.7 61.2 21.7Z" fill="#FFC35F"/>
<path d="M61.2 28.8H27.9C27.4 28.8 27 29.2001 27 29.7001C27 30.2001 27.4 30.6 27.9 30.6H61.2C61.7 30.6 62.1 30.2001 62.1 29.7001C62.1 29.2001 61.7 28.8 61.2 28.8Z" fill="#FFC35F"/>
<path d="M18.2 45C17.7 45 17.3 45.4 17.3 45.9V48.2H10.1V41H13.7C14.2 41 14.6 40.5999 14.6 40.0999C14.6 39.5999 14.2 39.2 13.7 39.2H9.7C9 39.2 8.5 39.8 8.5 40.4V48.5999C8.5 49.2999 9.1 49.7999 9.7 49.7999H17.9C18.6 49.7999 19.1 49.1999 19.1 48.5999V45.7999C19.1 45.3999 18.7 45 18.2 45Z" fill="#FFC35F"/>
<path d="M19.8 38.6999C19.4 38.3999 18.9 38.3999 18.6 38.7999L14.5 43.6999L13.2 42.5999C12.8 42.2999 12.3 42.3999 12 42.6999C11.7 43.0999 11.8 43.5999 12.1 43.8999L13.7 45.1999C14.2 45.5999 15 45.5999 15.5 45.0999L19.9 39.8999C20.2 39.5999 20.2 38.9999 19.8 38.6999Z" fill="#FFC35F"/>
<path d="M61.1999 39.8H54.2999C53.7999 39.8 53.3999 40.2001 53.3999 40.7001C53.3999 41.2001 53.7999 41.6 54.2999 41.6H61.1999C61.6999 41.6 62.0999 41.2001 62.0999 40.7001C61.9999 40.2001 61.6999 39.8 61.1999 39.8Z" fill="#FFC35F"/>
<path d="M38.7 39.8H27.9C27.4 39.8 27 40.2001 27 40.7001C27 41.2001 27.4 41.6 27.9 41.6H38.7C39.2 41.6 39.6 41.2001 39.6 40.7001C39.6 40.2001 39.2 39.8 38.7 39.8Z" fill="#FFC35F"/>
<path d="M30.8 46.8999H27.9C27.4 46.8999 27 47.2999 27 47.7999C27 48.2999 27.4 48.6999 27.9 48.6999H30.8C31.3 48.6999 31.7 48.2999 31.7 47.7999C31.7 47.1999 31.3 46.8999 30.8 46.8999Z" fill="#FFC35F"/>
<path d="M65.5 0H3.9C1.8 0 0 1.8 0 3.9V54.9C0 57.1 1.8 58.8 3.9 58.8L36.5 59L38.1 65.5C38.9 68.1 41.3 69.9 44 69.9H55.9C59.3 69.9 62 67.2 62 63.8V59L65.5 58.8C67.7 58.8 69.4 57 69.4 54.9V3.9C69.4 1.8 67.7 0 65.5 0ZM3.9 1.7H65.5C66.7 1.7 67.7 2.7 67.7 3.9V12.5H1.7V3.9C1.7 2.7 2.7 1.7 3.9 1.7ZM60.3 63.9C60.3 66.3 58.3 68.3 55.9 68.3H44C42 68.3 40.3 67 39.8 65.2L38 58.1C37.6 56.4 37 54.8 36.3 53.2L36.2 52.9C38 52.9 39.8 53.8 40.8 55.3L42.3 57.4V60.6C42.3 61.1 42.7 61.5 43.2 61.5C43.7 61.5 44.1 61.1 44.1 60.6V37.4C44.1 36.5 44.8 35.8 45.7 35.8C46.6 35.8 47.3 36.5 47.3 37.4V52.6C47.3 52.7 47.3 52.8 47.3 52.8V56.3C47.3 56.8 47.7 57.2 48.2 57.2C48.7 57.2 49.1 56.8 49.1 56.3V51.5C49.1 50.8 49.7 50.2 50.4 50.2C51.1 50.2 51.7 50.8 51.7 51.5V52.5C51.7 52.6 51.7 52.8 51.7 53V56.4C51.7 56.9 52.1 57.3 52.6 57.3C53.1 57.3 53.5 56.9 53.5 56.4V52.8C53.7 52.1 54.4 51.6 55.1 51.8C55.7 51.9 56.2 52.5 56.2 53.1V57.3C56.2 57.8 56.6 58.2 57.1 58.2C57.6 58.2 58 57.8 58 57.3V54.4C58 53.6 58.6 53 59.4 53C60.2 53 60.8 53.6 60.8 54.4L60.3 63.9ZM65.5 57.2L62 57.4V54.3C62 52.6 60.6 51.2 58.9 51.2C58.3 51.2 57.7 51.4 57.2 51.7C56.5 50.2 54.7 49.5 53.1 50.2C53 50.3 52.9 50.3 52.8 50.4C52.1 48.9 50.4 48.2 48.9 48.9C48.9 48.9 48.8 48.9 48.8 49V37.4C48.8 35.6 47.3 34.1 45.5 34.1C43.7 34.1 42.2 35.6 42.2 37.4V54.4L42.1 54.3C40.7 52.3 38.5 51.1 36.1 51.1C35.2 51.1 34.4 51.9 34.4 52.8C34.4 53 34.5 53.3 34.5 53.5L34.6 53.8C35.1 54.9 35.5 56.1 35.9 57.3L3.9 57.2C2.7 57.2 1.7 56.2 1.7 55V14.3H67.7V55C67.7 56.2 66.7 57.2 65.5 57.2Z" fill="#7797E9"/>
<path d="M7.0999 10.3C8.8999 10.3 10.3999 8.80005 10.3999 7.00005C10.3999 5.20005 8.8999 3.80005 7.0999 3.80005C5.2999 3.80005 3.8999 5.20005 3.8999 7.00005C3.8999 8.80005 5.2999 10.3 7.0999 10.3ZM7.0999 5.50005C7.9999 5.50005 8.6999 6.20005 8.6999 7.00005C8.6999 7.80005 7.9999 8.60005 7.0999 8.60005C6.1999 8.60005 5.5999 7.90005 5.5999 7.00005C5.5999 6.20005 6.2999 5.50005 7.0999 5.50005Z" fill="#7797E9"/>
<path d="M15.8 10.3C17.6 10.3 19.1 8.79995 19.1 6.99995C19.1 5.19995 17.6 3.69995 15.8 3.69995C14 3.69995 12.5 5.19995 12.5 6.99995C12.5 8.79995 14 10.3 15.8 10.3ZM15.8 5.49995C16.7 5.49995 17.4 6.19995 17.4 7.09995C17.4 7.99995 16.7 8.69995 15.8 8.69995C14.9 8.69995 14.2 7.99995 14.2 7.09995C14.2 6.19995 14.9 5.49995 15.8 5.49995Z" fill="#7797E9"/>
<path d="M24.4001 10.3C26.2001 10.3 27.7001 8.79995 27.7001 6.99995C27.7001 5.19995 26.2001 3.69995 24.4001 3.69995C22.6001 3.69995 21.1001 5.19995 21.1001 6.99995C21.1001 8.79995 22.6001 10.3 24.4001 10.3ZM24.4001 5.49995C25.3001 5.49995 26.0001 6.19995 26.0001 6.99995C26.0001 7.79995 25.3001 8.59995 24.4001 8.59995C23.5001 8.59995 22.8001 7.89995 22.8001 6.99995C22.8001 6.19995 23.5001 5.49995 24.4001 5.49995Z" fill="#7797E9"/>
<path d="M37.0999 7.7H64.8C65.3 7.7 65.6999 7.3 65.6999 6.8C65.6999 6.3 65.3 6 64.9 6H37.0999C36.5999 6 36.2 6.4 36.2 6.9C36.2 7.4 36.6999 7.7 37.0999 7.7Z" fill="#7797E9"/>
</g>
<defs>
<clipPath id="clip0">
<rect width="69.4" height="70" fill="white"/>
</clipPath>
</defs>
</svg>
