<svg width="70" height="67" viewBox="0 0 70 67" fill="none" xmlns="http://www.w3.org/2000/svg">
<g clip-path="url(#clip0)">
<path d="M62.1 38.4L61.7 38.6C60.2 36.8 57.7 36.2 55.8 37.1L55 37.6C52.9 35.8 50 35.6 47.6 36.9L43 39.4H37C35.7 39.4 34.4 39.1 33.2 38.5L32.4 38.1C27.5 35.7 21.8 36.3 17.5 39.6C17.5 39.6 17.5 39.6 17.4 39.6L15.4 41.4C14.6 42.1 13.7 42.6 12.8 42.9L11.7 39.1C11.6 38.7 11.2 38.5 10.8 38.5H0.9C0.4 38.5 0 38.9 0 39.4V39.5L3.3 66.2C3.3 66.7 3.7 67 4.2 67H18.9C19.4 67 19.8 66.6 19.8 66.1C19.8 66 19.8 65.9 19.8 65.8L17.9 59.5L23.9 55.7C24.7 55.3 25.6 55.1 26.5 55.4C26.5 55.4 26.5 55.4 26.6 55.4L38.8 57.6C42.1 58.2 45.5 57.7 48.6 56.2C48.6 56.2 48.7 56.2 48.7 56.1L69.8 41.6C70.2 41.3 70.3 40.8 70.1 40.4C68.3 37.8 64.9 36.9 62.1 38.4ZM56.7 38.7C57.8 38.1 59.2 38.6 60.1 39.5L52.1 43.8L51.7 44C51.4 43.3 51.1 42.6 50.6 42L56.7 38.7ZM48.5 38.5C50 37.6 51.8 37.7 53.2 38.5L49.1 40.7C48.3 40.1 47.4 39.7 46.5 39.5L48.5 38.5ZM5 65.2L2 40.3H10L17.6 65.2H5ZM47.5 54.7C44.8 56 41.8 56.4 38.9 55.9L26.7 53.7C25.4 53.4 23.9 53.6 22.7 54.2L17.1 57.7L13.1 44.6C14.3 44.2 15.5 43.6 16.4 42.7L18.4 40.9C22.2 38.1 27.2 37.6 31.4 39.6L32.2 40C33.6 40.7 35.2 41.1 36.8 41.1H44.9C47.4 41.1 49.5 42.9 49.9 45.3L44 45C41.9 44.9 39.7 45 37.6 45.3C37.1 45.4 36.8 45.8 36.8 46.3C36.9 46.8 37.3 47.1 37.8 47.1C39.8 46.8 41.8 46.7 43.9 46.8L50.8 47.1C51.3 47.1 51.7 46.7 51.7 46.2C51.7 46.1 51.7 45.9 51.7 45.8L52.6 45.3L63 40C64.6 39.1 66.5 39.5 67.8 40.8L47.5 54.7Z" fill="#7797E9"/>
<path d="M7.8999 61.4C7.8999 63 9.1999 64.3 10.7999 64.3C12.3999 64.3 13.6999 63 13.6999 61.4C13.6999 59.8 12.3999 58.5 10.7999 58.5C9.0999 58.6 7.8999 59.8 7.8999 61.4ZM10.6999 60.4C11.2999 60.4 11.6999 60.9 11.6999 61.4C11.6999 61.9 11.1999 62.4 10.6999 62.4C10.0999 62.4 9.6999 61.9 9.6999 61.4C9.6999 60.8 10.0999 60.4 10.6999 60.4Z" fill="#7797E9"/>
<path d="M42.9999 15.3C45.6999 15.3 47.1999 14.1 47.1999 11.9C47.1999 9.7 45.6999 8.5 42.9999 8.5H38.9999V15.9H37.5999V16.9H38.9999V18.5H40.6999V16.9H43.7999V15.9H40.6999V15.3H42.9999ZM42.9999 13.9H40.6999V9.9H42.9999C44.5999 9.9 45.4999 10.6 45.4999 11.8C45.4999 13.1 44.5999 13.9 42.9999 13.9Z" fill="#FFC35F"/>
<path d="M42.3999 1.9C48.7999 1.9 53.9999 7.1 53.9999 13.5C53.9999 19.9 48.7999 25.2 42.3999 25.2C35.9999 25.2 30.6999 20 30.6999 13.5C30.6999 7 35.9999 1.9 42.3999 1.9ZM42.3999 0C34.8999 0 28.8999 6 28.8999 13.5C28.8999 21 34.8999 27 42.3999 27C49.8999 27 55.8999 21 55.8999 13.5C55.8999 6 49.7999 0 42.3999 0Z" fill="#FFC35F"/>
</g>
<defs>
<clipPath id="clip0">
<rect width="70" height="67" fill="white"/>
</clipPath>
</defs>
</svg>
