<svg width="59" height="70" viewBox="0 0 59 70" fill="none" xmlns="http://www.w3.org/2000/svg">
<g clip-path="url(#clip0)">
<path d="M1 65.7H34.8C39.9 71.2 48.5 71.5 54 66.4C59.5 61.3 59.8 52.7 54.7 47.2C49.6 41.7 41 41.4 35.5 46.5C35.1 46.8 34.8 47.2 34.5 47.6L30.7 46.4V41.9C34.2 39.8 36.7 36.3 37.5 32.2L38.1 30.2C40.4 29.5 41.7 27.1 41.2 24.7C40.9 23.5 40 22.5 38.8 22.1V15.6C38.6 6.9 31.7 0 23.2 0C14.7 0 7.8 6.9 7.8 15.4V21.9C6.6 22.3 5.7 23.3 5.4 24.5C4.8 26.8 6.2 29.2 8.5 30L9.1 32C9.9 36 12.3 39.6 15.9 41.7V46.2L6 49.4C3.2 50.3 1.1 52.5 0.4 55.2C0.4 55.3 0.3 55.4 0.3 55.5C0.1 56.2 0 56.8 0 57.4V64.6C0 65.2 0.4 65.7 1 65.7ZM44.8 44.8C51.2 44.8 56.4 50 56.4 56.4C56.4 62.8 51.2 68 44.8 68C38.4 68 33.2 62.8 33.2 56.4C33.1 50 38.3 44.8 44.8 44.8ZM24.5 15.7C25.8 17 29.7 20.6 36.7 21.3V21.8C34 21.7 26 21.1 19.6 16.6H19.7C21.3 16.4 22.9 16.1 24.5 15.7ZM9.8 15.4C9.8 8 15.8 2 23.2 2C30.6 2 36.6 8 36.6 15.4V19.3C31.5 18.7 28.2 16.4 26.6 15.1C29.2 14.2 31.5 13.1 33.3 11.7C33.7 11.4 33.8 10.8 33.5 10.3C33.2 9.9 32.6 9.8 32.1 10.1C28.4 13 23.1 14.1 19.4 14.6C17 15 14.5 15.1 12 15C11.5 15 11 15.4 11 15.9L10.8 21.1C10.8 21.4 10.6 21.7 10.3 21.9C10.2 22 10 22 9.8 22V15.4ZM11 31.6L10.3 29C10.2 28.6 9.9 28.3 9.5 28.2C8 28 7.1 26.6 7.3 25.2C7.3 25.1 7.3 25.1 7.3 25C7.4 24.4 7.9 23.9 8.5 23.7C10 24.4 11.7 23.8 12.4 22.3C12.6 21.9 12.7 21.6 12.7 21.2L12.9 16.9C13.7 16.9 15.1 16.9 16.7 16.8C21.1 20.6 26.5 22.2 30.2 23C34.4 23.8 37.5 23.7 37.6 23.7C37.6 23.7 37.6 23.7 37.7 23.7C38.4 23.8 38.9 24.3 39.1 25C39.4 26.4 38.6 27.9 37.2 28.2C37.1 28.2 37.1 28.2 37 28.2C36.6 28.3 36.3 28.6 36.2 29L35.5 31.5V31.6C34.2 38.4 27.7 42.8 21 41.5C15.9 40.6 12 36.7 11 31.6ZM23.2 43.8C25.1 43.8 26.9 43.4 28.6 42.7V46.4C25.2 48 21.2 48 17.7 46.4V42.7C19.5 43.4 21.4 43.8 23.2 43.8ZM2 57.4C2 57 2 56.5 2.1 56C2.1 55.9 2.1 55.8 2.2 55.8C2.8 53.7 4.4 52 6.5 51.4L16.7 48C20.8 50 25.6 50 29.7 48L33.2 49.1C30.4 53.5 30.4 59.2 33.2 63.6H2V57.4Z" fill="#7797E9"/>
<path d="M49.9 55.4001H46.7H45.7999V51.3C45.7999 50.8 45.3999 50.3 44.7999 50.3C44.2999 50.3 43.7999 50.7 43.7999 51.3V54.5V55.4001H39.7C39.2 55.4001 38.7 55.8001 38.7 56.4001C38.7 56.9001 39.1 57.4001 39.7 57.4001H42.9H43.7999V61.5C43.7999 62 44.1999 62.5 44.7999 62.5C45.2999 62.5 45.7999 62.1 45.7999 61.5V58.3V57.4001H49.9C50.4 57.4001 50.9 57.0001 50.9 56.4001C50.8 55.9001 50.4 55.4001 49.9 55.4001Z" fill="#FFC35F"/>
</g>
<defs>
<clipPath id="clip0">
<rect width="58.4" height="70" fill="white"/>
</clipPath>
</defs>
</svg>
