<svg width="58" height="48" viewBox="0 0 58 48" fill="none" xmlns="http://www.w3.org/2000/svg">
<g clip-path="url(#clip0)">
<path d="M15.3805 13.614H10.8387C10.363 13.614 9.98926 13.9991 9.98926 14.4635C9.98926 14.9278 10.3743 15.3129 10.8387 15.3129H15.3805C15.8562 15.3129 16.2299 14.9278 16.2299 14.4635C16.2299 13.9991 15.8449 13.614 15.3805 13.614Z" fill="#1A1A1A"/>
<path d="M27.1832 13.614H19.0057C18.53 13.614 18.1562 13.9991 18.1562 14.4635C18.1562 14.9278 18.5413 15.3129 19.0057 15.3129H27.1832C27.6588 15.3129 28.0326 14.9278 28.0326 14.4635C28.0326 13.9991 27.6588 13.614 27.1832 13.614Z" fill="#1A1A1A"/>
<path d="M19.0162 20.874H10.8387C10.363 20.874 9.98926 21.2591 9.98926 21.7235C9.98926 22.1878 10.3743 22.5729 10.8387 22.5729H19.0162C19.4919 22.5729 19.8656 22.1878 19.8656 21.7235C19.8656 21.2591 19.4805 20.874 19.0162 20.874Z" fill="#1A1A1A"/>
<path d="M14.4744 25.4158H10.8387C10.363 25.4158 9.98926 25.8009 9.98926 26.2652C9.98926 26.7296 10.3743 27.1147 10.8387 27.1147H14.4744C14.9501 27.1147 15.3239 26.7296 15.3239 26.2652C15.3239 25.8009 14.9388 25.4158 14.4744 25.4158Z" fill="#1A1A1A"/>
<path d="M25.3702 25.4158H18.1102C17.6345 25.4158 17.2607 25.8009 17.2607 26.2652C17.2607 26.7296 17.6458 27.1147 18.1102 27.1147H25.3702C25.8459 27.1147 26.2197 26.7296 26.2197 26.2652C26.2197 25.8009 25.8346 25.4158 25.3702 25.4158Z" fill="#1A1A1A"/>
<path d="M24.464 29.9575H10.8387C10.363 29.9575 9.98926 30.3426 9.98926 30.807C9.98926 31.2713 10.3743 31.6564 10.8387 31.6564H24.464C24.9397 31.6564 25.3135 31.2713 25.3135 30.807C25.3135 30.3426 24.9284 29.9575 24.464 29.9575Z" fill="#1A1A1A"/>
<path d="M26.2762 20.874H22.6405C22.1648 20.874 21.791 21.2591 21.791 21.7235C21.791 22.1878 22.1761 22.5729 22.6405 22.5729H26.2762C26.7518 22.5729 27.1256 22.1878 27.1256 21.7235C27.1256 21.2591 26.7405 20.874 26.2762 20.874Z" fill="#1A1A1A"/>
<path d="M57.2194 3.3411L54.6484 0.770077C53.6177 -0.260599 51.9075 -0.260599 50.8768 0.770077L43.2204 8.42652C42.5975 6.69363 40.9438 5.43643 38.9844 5.43643H32.6645H4.48513C2.01605 5.43643 0 7.45248 0 9.92157V34.4426C0 36.9117 2.01605 38.9277 4.48513 38.9277H9.62718L20.285 47.8074C20.8287 48.2604 21.6782 47.864 21.6782 47.1505V38.9164H38.9844C41.4535 38.9164 43.4696 36.9003 43.4696 34.4313V21.1571C43.4696 21.0665 43.4582 20.9758 43.4243 20.8966L57.2194 7.1127C58.2501 6.08202 58.2501 4.37178 57.2194 3.3411ZM49.5517 4.50769L50.9108 5.86682L32.857 23.9206L31.4979 22.5615L49.5517 4.50769ZM29.8556 26.0613L30.6144 24.0905L33.899 27.3751L31.9283 28.1339L29.8556 26.0613ZM30.1954 28.8022L28.5644 29.4251L29.1874 27.7942L30.1954 28.8022ZM41.7706 34.4426C41.7706 35.9716 40.5248 37.2288 38.9844 37.2288H20.8287C20.353 37.2288 19.9792 37.6139 19.9792 38.0783V45.3383L10.4766 37.4213C10.3181 37.2968 10.1255 37.2288 9.93299 37.2288H4.48513C2.95611 37.2288 1.69891 35.9829 1.69891 34.4426V9.92157C1.69891 8.39254 2.94479 7.13535 4.48513 7.13535H33.378H38.9844C40.5021 7.13535 41.748 8.35857 41.7593 9.87626L29.6857 21.9612C29.6064 22.0405 29.5385 22.1424 29.4932 22.2557L26.2879 30.603C26.0274 31.2713 26.7183 31.9622 27.3865 31.7017L35.7338 28.4964C35.8471 28.4511 35.949 28.3831 36.0283 28.3038L41.7706 22.5615V34.4426ZM35.428 26.4917L34.0689 25.1325L52.1227 7.06739L53.4818 8.42652L35.428 26.4917ZM56.0189 5.91213L54.6937 7.23728L50.7636 3.30712L52.0887 1.98197C52.4625 1.60821 53.0741 1.60821 53.4479 1.98197L56.0189 4.553C56.3926 4.91543 56.3926 5.52704 56.0189 5.91213Z" fill="#1A1A1A"/>
</g>
<defs>
<clipPath id="clip0">
<rect width="57.9896" height="48" fill="white"/>
</clipPath>
</defs>
</svg>
