<svg width="70" height="66" viewBox="0 0 70 66" fill="none" xmlns="http://www.w3.org/2000/svg">
<g clip-path="url(#clip0)">
<path d="M66.3 2.6H61.5V0.9C61.5 0.4 61.1 0 60.6 0H34.9C34.4 0 34 0.4 34 0.9V2.7H27.8C25.8 2.7 24.1 4.4 24.1 6.4V12.6C18.6 8.3 10.6 9.4 6.4 14.9C4.7 17.1 3.8 19.8 3.8 22.6V26.4C2.8 26.7 2.1 27.6 1.8 28.6C1.3 30.5 2.3 32.4 4.1 33.1V33.9C4.1 38.4 6.6 42.6 10.5 44.8V48.6L3.8 51.5C1.7 52.4 0.2 54.6 0 57C0 57 0 57 0 57.1V65C0 65.5 0.4 65.9 0.9 65.9H33.2C33.7 65.9 34.1 65.5 34.1 65V57.2H66.4C68.4 57.2 70.1 55.5 70.1 53.5V6.3C70 4.3 68.3 2.6 66.3 2.6ZM35.8 1.7H59.9V4.9H35.8V1.7ZM5.6 22.5C5.6 16.5 10.5 11.6 16.5 11.6C22.5 11.6 27.4 16.5 27.4 22.5V26.4C25.3 26.6 18.8 27 13.6 23.5C17.2 23 21.5 21.9 24.7 19.5C25.1 19.2 25.2 18.7 24.9 18.3C24.6 17.9 24.1 17.8 23.7 18.1C17.8 22.6 7.4 22.1 7.3 22.1C6.8 22.1 6.4 22.4 6.4 22.9L6.1 27.1L5.5 26.8C5.5 26.8 5.4 26.8 5.4 26.7L5.6 22.5ZM5.9 33.8V32.3C5.9 31.9 5.6 31.5 5.2 31.5C4.1 31.3 3.3 30.2 3.5 29.1V29C3.6 28.6 3.9 28.2 4.3 28.1C4.4 28.3 4.6 28.4 4.8 28.5L6.2 29.2C6.7 29.5 7.4 29.3 7.7 28.7C7.8 28.6 7.8 28.4 7.8 28.3L8.1 24C8.8 24 9.9 24 11.2 23.9C18.2 29.8 28 28.2 28.5 28.1C28.6 28.1 28.7 28.1 28.8 28C29.3 28.1 29.7 28.5 29.8 29C30.1 30.1 29.4 31.3 28.3 31.6H28.2C27.8 31.7 27.5 32 27.5 32.4V33.9C27.5 39.8 22.7 44.6 16.8 44.6C10.7 44.4 6 39.7 5.9 33.8ZM24.2 43.6V48.8L23.3 48.4V44.2C23.6 44 23.9 43.8 24.2 43.6ZM21.6 45.2V48.3C18.6 49.5 15.3 49.5 12.4 48.3V45.5C15.4 46.5 18.7 46.4 21.6 45.2ZM32.3 64.1H1.7V57.1C1.9 55.3 3 53.6 4.6 52.8L11.7 49.8C15.1 51.2 18.8 51.2 22.2 49.8L29.3 52.8C30.9 53.6 32 55.3 32.2 57.1V64.1H32.3ZM68.3 53.5C68.3 54.6 67.4 55.5 66.3 55.5H33.7C33.1 53.7 31.8 52.1 30.1 51.3L26 49.5V42C28 39.7 29.2 36.8 29.1 33.8V33C30.9 32.3 31.9 30.4 31.4 28.5C31.1 27.4 30.3 26.5 29.1 26.2V22.5C29.1 19.4 27.9 16.4 25.9 14.1V6.3C25.9 5.2 26.8 4.3 27.9 4.3H34.1V5.7C34.1 6.2 34.5 6.6 35 6.6H60.8C61.3 6.6 61.7 6.2 61.7 5.7V4.3H66.5C67.6 4.3 68.5 5.2 68.5 6.3V53.5H68.3Z" fill="#7797E9"/>
<path d="M62.1 28H55.9C55.4 28 55 28.4 55 28.9C55 29.4 55.4 29.8 55.9 29.8H62.1C62.6 29.8 63 29.4 63 28.9C63 28.4 62.6 28 62.1 28Z" fill="#FFC35F"/>
<path d="M50.1002 29.7H52.2002C52.7002 29.7 53.1002 29.3 53.1002 28.8C53.1002 28.3 52.7002 28 52.2002 28H50.1002C49.6002 28 49.2002 28.4 49.2002 28.9C49.2002 29.4 49.6002 29.7 50.1002 29.7Z" fill="#FFC35F"/>
<path d="M62.1001 37.3H60.0001C59.5001 37.3 59.1001 37.7001 59.1001 38.2001C59.1001 38.7001 59.5001 39.1 60.0001 39.1H62.1001C62.6001 39.1 63.0001 38.7001 63.0001 38.2001C63.0001 37.7001 62.6001 37.3 62.1001 37.3Z" fill="#FFC35F"/>
<path d="M57 39C57.5 39 57.9001 38.5999 57.9001 38.0999C57.9001 37.5999 57.5 37.2 57 37.2H45.7001C45.2001 37.2 44.8 37.5999 44.8 38.0999C44.8 38.5999 45.2001 39 45.7001 39H57Z" fill="#FFC35F"/>
<path d="M42.7001 37.3H42.0001C41.5001 37.3 41.1001 37.7001 41.1001 38.2001C41.1001 38.7001 41.5001 39.1 42.0001 39.1H42.8001C43.3001 39.1 43.7001 38.7001 43.7001 38.2001C43.6001 37.7001 43.2001 37.3 42.7001 37.3Z" fill="#FFC35F"/>
<path d="M33.5001 37.3C33.0001 37.3 32.6001 37.7001 32.6001 38.2001C32.6001 38.7001 33.0001 39.1 33.5001 39.1H38.3001C38.8001 39.1 39.2001 38.7001 39.2001 38.2001C39.2001 37.7001 38.8001 37.3 38.3001 37.3H33.5001Z" fill="#FFC35F"/>
<path d="M62.1 45.8H57.2001C56.7001 45.8 56.3 46.2001 56.3 46.7001C56.3 47.2001 56.7001 47.6 57.2001 47.6H62.1C62.6 47.6 63 47.2001 63 46.7001C63 46.2001 62.6 45.8 62.1 45.8Z" fill="#FFC35F"/>
<path d="M54.2002 45.8H53.6002C53.1002 45.8 52.7002 46.2001 52.7002 46.7001C52.7002 47.2001 53.1002 47.6 53.6002 47.6H54.2002C54.7002 47.6 55.1002 47.2001 55.1002 46.7001C55.0002 46.2001 54.6002 45.8 54.2002 45.8Z" fill="#FFC35F"/>
<path d="M51.2002 45.8H46.6002C46.1002 45.8 45.7002 46.2001 45.7002 46.7001C45.7002 47.2001 46.1002 47.6 46.6002 47.6H51.2002C51.7002 47.6 52.1002 47.2001 52.1002 46.7001C52.0002 46.2001 51.6002 45.8 51.2002 45.8Z" fill="#FFC35F"/>
<path d="M42.7 45.8H33.4C32.9 45.8 32.5 46.2001 32.5 46.7001C32.5 47.2001 32.9 47.6 33.4 47.6H42.7C43.2 47.6 43.6 47.2001 43.6 46.7001C43.6 46.2001 43.2 45.8 42.7 45.8Z" fill="#FFC35F"/>
<path d="M62.1001 20.8H61.5001C61.0001 20.8 60.6001 21.2001 60.6001 21.7001C60.6001 22.2001 61.0001 22.6 61.5001 22.6H62.1001C62.6001 22.6 63.0001 22.2001 63.0001 21.7001C63.0001 21.2001 62.6001 20.8 62.1001 20.8Z" fill="#FFC35F"/>
<path d="M51.8001 22.5H57.9001C58.4001 22.5 58.8001 22.1 58.8001 21.6C58.8001 21.1 58.4001 20.7 57.9001 20.7H51.8001C51.3001 20.7 50.9001 21.1 50.9001 21.6C50.9001 22.1 51.4001 22.5 51.8001 22.5Z" fill="#FFC35F"/>
<path d="M62.1001 13.7H56.0001C55.5001 13.7 55.1001 14.1 55.1001 14.6C55.1001 15.1 55.5001 15.5 56.0001 15.5H62.1001C62.6001 15.5 63.0001 15.1 63.0001 14.6C63.0001 14.1 62.6001 13.7 62.1001 13.7Z" fill="#FFC35F"/>
<path d="M51.8001 15.4001H52.3001C52.8001 15.4001 53.2001 15.0001 53.2001 14.5001C53.2001 14.0001 52.8001 13.6001 52.3001 13.6001H51.8001C51.3001 13.6001 50.9001 14.0001 50.9001 14.5001C50.9001 15.0001 51.4001 15.4001 51.8001 15.4001Z" fill="#FFC35F"/>
<path d="M39.5001 30.3C44.7001 30.3 48.9001 26.1 48.9001 20.9C48.9001 15.7 44.7001 11.5 39.5001 11.5C34.3001 11.5 30.1001 15.7 30.1001 20.9C30.2001 26.1 34.4001 30.3 39.5001 30.3ZM39.5001 13.3C43.7001 13.3 47.2001 16.7 47.2001 21C47.2001 25.3 43.8001 28.7 39.5001 28.7C35.2001 28.7 31.8001 25.3 31.8001 21C31.9001 16.7 35.3001 13.3 39.5001 13.3Z" fill="#FFC35F"/>
<path d="M37 24.7C37.3 25 37.9 25 38.2 24.7L44.4 18.5C44.7 18.2 44.7 17.6 44.4 17.3C44.1 17 43.5 17 43.2 17.3L37.6 22.9L35.8 21C35.5 20.7 34.9 20.7 34.6 21C34.3 21.3 34.3 21.9 34.6 22.2L37 24.7Z" fill="#FFC35F"/>
</g>
<defs>
<clipPath id="clip0">
<rect width="70" height="65.8" fill="white"/>
</clipPath>
</defs>
</svg>
