<svg width="14" height="16" viewBox="0 0 14 16" fill="none" xmlns="http://www.w3.org/2000/svg">
<path d="M13.4977 13.1824L11.3269 9.36374C11.2982 9.32021 11.2719 9.27516 11.2481 9.22877C11.3842 9.13632 11.4882 9.00384 11.5456 8.84966C11.6031 8.69549 11.6111 8.52727 11.5687 8.36832C11.5125 7.97464 11.4731 7.57535 11.4394 7.24354C11.4371 7.18235 11.4571 7.12241 11.4956 7.07483L12.058 6.47306L12.3392 6.18624C12.4135 6.12028 12.473 6.03931 12.5138 5.94867C12.5545 5.85803 12.5756 5.75979 12.5756 5.66041C12.5756 5.56103 12.5545 5.46278 12.5138 5.37214C12.473 5.2815 12.4135 5.20053 12.3392 5.13457L12.1761 4.96023C11.9624 4.72965 11.7431 4.48783 11.5237 4.25725C11.4895 4.22573 11.4642 4.18573 11.4503 4.14129C11.4365 4.09686 11.4347 4.04954 11.445 4.00416C11.5125 3.57675 11.5743 3.15496 11.6193 2.76129C11.6361 2.66865 11.6338 2.57357 11.6125 2.48186C11.5913 2.39015 11.5516 2.30373 11.4958 2.22792C11.4399 2.1521 11.3692 2.08849 11.288 2.04095C11.2067 1.99341 11.1166 1.96295 11.0232 1.95144L10.7308 1.8952C10.4214 1.83896 10.1009 1.7771 9.79155 1.70399C9.72624 1.68884 9.6696 1.6484 9.63409 1.59152C9.48786 1.33845 9.34727 1.07974 9.21229 0.826663C9.15043 0.719809 9.09419 0.612951 9.03795 0.506097C9.00035 0.409627 8.94173 0.322754 8.86636 0.251762C8.79099 0.18077 8.70076 0.127438 8.60221 0.0956662C8.50366 0.0638944 8.39927 0.0544697 8.29663 0.0680685C8.19398 0.0816673 8.09566 0.117952 8.00879 0.174289L7.77258 0.281144L6.94023 0.669195C6.90473 0.691093 6.86385 0.702697 6.82214 0.702697C6.78042 0.702697 6.73954 0.691093 6.70404 0.669195L5.69736 0.19116L5.37679 0.0336914H5.09559C4.86205 0.125005 4.67406 0.304921 4.57258 0.534227C4.40948 0.854789 4.22389 1.18097 4.01018 1.53528C3.9738 1.59133 3.91754 1.63151 3.85272 1.64775L2.92478 1.81085L2.61547 1.86709C2.52071 1.87637 2.42891 1.90527 2.34593 1.95196C2.26294 1.99865 2.19058 2.06209 2.13345 2.13826C2.07632 2.21443 2.03567 2.30166 2.01408 2.3944C1.9925 2.48714 1.99045 2.58336 2.00808 2.67693C2.00808 2.86252 2.04745 3.05373 2.06995 3.23932C2.09244 3.42491 2.13181 3.71735 2.1543 3.95918C2.15825 4.0206 2.13807 4.08113 2.09806 4.12789C1.90123 4.3416 1.69876 4.55531 1.4963 4.76339L1.27135 5.02772C1.19886 5.09361 1.14093 5.17392 1.1013 5.2635C1.06166 5.35309 1.04119 5.44996 1.04119 5.54792C1.04119 5.64588 1.06166 5.74278 1.1013 5.83236C1.14093 5.92195 1.19886 6.00225 1.27135 6.06814L1.44569 6.25372C1.64815 6.47868 1.86186 6.70927 2.08119 6.9286C2.12215 6.96882 2.15197 7.01899 2.16774 7.07419C2.18351 7.12939 2.1847 7.18774 2.17118 7.24354C2.17118 7.38413 2.1318 7.53035 2.1093 7.67657C2.08681 7.82279 2.05307 8.104 2.01371 8.3177C1.96606 8.48291 1.97632 8.65944 2.04281 8.818C2.10931 8.97656 2.22802 9.1076 2.37926 9.1894L2.31738 9.29626L1.75499 10.2579C1.1926 11.2253 0.630215 12.2263 0.0678243 13.1992C0.0238488 13.263 -0.00198419 13.3374 -0.00693675 13.4147C-0.0118893 13.492 0.00423142 13.5691 0.0397117 13.6379C0.0822152 13.7004 0.140529 13.7505 0.208696 13.7831C0.276864 13.8157 0.352449 13.8296 0.427762 13.8235C0.905794 13.8235 1.38944 13.8235 1.86185 13.8235C2.13742 13.8235 2.42425 13.8235 2.69982 13.8235C2.73722 13.8203 2.77467 13.8289 2.80694 13.8481C2.83921 13.8672 2.86466 13.896 2.87978 13.9303L3.26783 14.6109C3.47591 14.9652 3.68963 15.342 3.89209 15.7356C3.92321 15.8072 3.97309 15.869 4.03644 15.9145C4.0998 15.9601 4.17427 15.9876 4.25201 15.9943C4.33835 15.9927 4.42218 15.965 4.49246 15.9148C4.56273 15.8646 4.61616 15.7943 4.64569 15.7131C5.01124 15.0664 5.39929 14.4084 5.77047 13.7785L6.22037 13.0193L6.78276 12.0295L6.84464 12.1307L7.24956 12.8281L8.93673 15.7412C8.96611 15.8161 9.016 15.8811 9.08066 15.9288C9.14532 15.9766 9.22213 16.0051 9.30228 16.0112C9.48787 16.0112 9.57223 15.8762 9.64534 15.7469L10.0334 15.0551C10.2471 14.6839 10.4552 14.3071 10.6633 13.9303C10.6797 13.891 10.7081 13.8579 10.7445 13.8357C10.7808 13.8135 10.8232 13.8033 10.8657 13.8066H13.1153C13.1927 13.8159 13.2712 13.804 13.3425 13.7724C13.4138 13.7407 13.4752 13.6903 13.5202 13.6267C13.5564 13.5573 13.5734 13.4796 13.5695 13.4015C13.5655 13.3233 13.5407 13.2477 13.4977 13.1824Z" fill="#7797E9"/>
</svg>
