<svg width="18" height="24" viewBox="0 0 18 24" fill="none" xmlns="http://www.w3.org/2000/svg">
<g clip-path="url(#clip0_105_4023)">
<path d="M9 1.39999C11.0148 1.40264 12.9464 2.2042 14.3711 3.62891C15.7958 5.05361 16.5974 6.98517 16.6 9C16.6 14.44 11.18 20.07 9 22.12C6.82 20.12 1.4 14.46 1.4 9C1.40265 6.98517 2.2042 5.05361 3.62891 3.62891C5.05361 2.2042 6.98517 1.40264 9 1.39999ZM9 0C6.61305 0 4.32387 0.948205 2.63604 2.63603C0.948212 4.32386 0 6.61305 0 9C0 16.54 9 24 9 24C9 24 18 16.54 18 9C18 6.61305 17.0518 4.32386 15.364 2.63603C13.6761 0.948205 11.3869 0 9 0Z" fill="#1D1D1B"/>
<path d="M9 5.92002C9.61313 5.92002 10.2125 6.10184 10.7223 6.44247C11.2321 6.7831 11.6294 7.26725 11.864 7.83371C12.0987 8.40016 12.1601 9.02346 12.0404 9.6248C11.9208 10.2261 11.6256 10.7785 11.192 11.2121C10.7585 11.6456 10.2061 11.9409 9.60479 12.0605C9.00344 12.1801 8.38014 12.1187 7.81369 11.884C7.24723 11.6494 6.76308 11.2521 6.42244 10.7423C6.08181 10.2325 5.9 9.63315 5.9 9.02003C5.9 8.19786 6.22661 7.40936 6.80797 6.828C7.38933 6.24664 8.17783 5.92002 9 5.92002ZM9 4.52003C8.10999 4.52003 7.23996 4.78394 6.49993 5.27841C5.75991 5.77287 5.18314 6.47569 4.84255 7.29795C4.50195 8.12022 4.41283 9.02502 4.58647 9.89793C4.7601 10.7708 5.18868 11.5727 5.81802 12.202C6.44736 12.8313 7.24918 13.2599 8.1221 13.4336C8.99501 13.6072 9.89981 13.5181 10.7221 13.1775C11.5443 12.8369 12.2472 12.2601 12.7416 11.5201C13.2361 10.7801 13.5 9.91005 13.5 9.02003C13.5013 8.42871 13.3858 7.84296 13.1601 7.2964C12.9345 6.74984 12.6031 6.25324 12.1849 5.83511C11.7668 5.41698 11.2702 5.08555 10.7236 4.85987C10.1771 4.6342 9.59132 4.51871 9 4.52003Z" fill="#1D1D1B"/>
</g>
<defs>
<clipPath id="clip0_105_4023">
<rect width="18" height="24" fill="white"/>
</clipPath>
</defs>
</svg>
