<svg width="24" height="18" viewBox="0 0 24 18" fill="none" xmlns="http://www.w3.org/2000/svg">
<path d="M22 0H2C1.46957 0 0.960858 0.210712 0.585785 0.585785C0.210712 0.960858 0 1.46957 0 2V16C0 16.5304 0.210712 17.0391 0.585785 17.4142C0.960858 17.7893 1.46957 18 2 18H22C22.5304 18 23.0391 17.7893 23.4142 17.4142C23.7893 17.0391 24 16.5304 24 16V2C24 1.46957 23.7893 0.960858 23.4142 0.585785C23.0391 0.210712 22.5304 0 22 0ZM22.6 16C22.6 16.1591 22.5368 16.3117 22.4243 16.4243C22.3117 16.5368 22.1591 16.6 22 16.6H2C1.84087 16.6 1.68826 16.5368 1.57574 16.4243C1.46322 16.3117 1.4 16.1591 1.4 16V2C1.4 1.84087 1.46322 1.68826 1.57574 1.57574C1.68826 1.46322 1.84087 1.4 2 1.4H22C22.1591 1.4 22.3117 1.46322 22.4243 1.57574C22.5368 1.68826 22.6 1.84087 22.6 2V16Z" fill="#1D1D1B"/>
<path d="M15.5 8.12978L9.5 4.66978C9.34857 4.57991 9.17609 4.53161 9 4.52979C8.73478 4.52979 8.48043 4.63514 8.29289 4.82268C8.10536 5.01021 8 5.26457 8 5.52979V12.4498C8 12.715 8.10536 12.9694 8.29289 13.1569C8.48043 13.3444 8.73478 13.4498 9 13.4498C9.17609 13.448 9.34857 13.3997 9.5 13.3098L15.5 9.84978C15.6492 9.76124 15.7728 9.63539 15.8587 9.48461C15.9446 9.33383 15.9897 9.1633 15.9897 8.98978C15.9897 8.81627 15.9446 8.64574 15.8587 8.49496C15.7728 8.34417 15.6492 8.21833 15.5 8.12978ZM9.4 11.7698V6.22979L14.2 8.99979L9.4 11.7698Z" fill="#1D1D1B"/>
</svg>
