<svg width="8" height="8" viewBox="0 0 8 8" fill="none" xmlns="http://www.w3.org/2000/svg">
    <path d="M4.80001 3.80001L7.30001 1.30001C7.60001 1.00001 7.60001 0.500006 7.30001 0.200006C7.00001 -0.0999939 6.50001 -0.0999939 6.20001 0.200006L3.80001 2.70001L1.30001 0.200006C1.00001 -0.0999939 0.500006 -0.0999939 0.200006 0.200006C-0.0999939 0.500006 -0.0999939 1.00001 0.200006 1.30001L2.70001 3.80001L0.200006 6.20001C-0.0999939 6.50001 -0.0999939 7.00001 0.200006 7.30001C0.500006 7.60001 1.00001 7.60001 1.30001 7.30001L3.80001 4.80001L6.30001 7.30001C6.60001 7.60001 7.10001 7.60001 7.40001 7.30001C7.70001 7.00001 7.70001 6.50001 7.40001 6.20001L4.80001 3.80001Z" fill="#1D1D1B" />
</svg>