<svg width="8" height="7" viewBox="0 0 8 7" fill="none" xmlns="http://www.w3.org/2000/svg">
<g clip-path="url(#clip0_1_344)">
<path d="M7.3 1.5H0.8C0.3 1.5 0 1.2 0 0.8C0 0.4 0.3 0 0.8 0H7.3C7.7 0 8 0.3 8 0.8C8 1.3 7.7 1.5 7.3 1.5Z" fill="#9BA3B1"/>
<path d="M5.3 4H0.8C0.3 4 0 3.7 0 3.3C0 2.9 0.3 2.5 0.8 2.5H5.3C5.7 2.5 6 2.8 6 3.3C6 3.8 5.7 4 5.3 4Z" fill="#9BA3B1"/>
<path d="M3.3 6.5H0.8C0.3 6.5 0 6.2 0 5.8C0 5.4 0.3 5 0.8 5H3.3C3.7 5 4 5.3 4 5.8C4 6.3 3.7 6.5 3.3 6.5Z" fill="#9BA3B1"/>
</g>
<defs>
<clipPath id="clip0_1_344">
<rect width="8" height="6.5" fill="white"/>
</clipPath>
</defs>
</svg>
